<svg width="1512" height="623" viewBox="0 0 1512 623" fill="none" xmlns="http://www.w3.org/2000/svg">
<g clip-path="url(#clip0_123_2361)">
<path fill-rule="evenodd" clip-rule="evenodd" d="M1512 19.6184C1463.51 352.132 1275.99 607 751.5 607C232.863 607 49.1139 357.787 0 30.7187V623H1512V19.6184Z" fill="#092B70"/>
<path d="M1325.11 674.694C1318.34 672.126 1315.06 666.709 1313.7 660.003C1312.87 655.88 1313.25 651.68 1313.79 647.445C1312.98 648.586 1312.48 649.88 1311.76 651.039C1309.99 653.919 1309.88 656.747 1311.48 659.776C1312.81 662.3 1312.34 664.818 1310.45 666.891C1308.86 668.639 1307.03 670.166 1305.26 671.836C1304.88 671.411 1304.59 671.113 1304.34 670.778C1301.71 667.256 1300.12 663.51 1301.6 659.015C1302.12 657.461 1302.53 655.873 1302.83 654.262C1303.15 652.505 1303.95 651.192 1305.57 650.398C1306.26 650.054 1306.93 649.652 1307.75 649.197C1306.5 649.036 1305.37 649.123 1304.44 648.736C1301.69 647.591 1298.82 647.753 1295.96 647.699C1293.12 647.646 1290.32 648.38 1287.88 649.821C1287.36 650.111 1286.84 650.372 1286.32 650.646L1286.02 650.21C1286.34 649.858 1286.7 649.532 1287.07 649.234C1290.1 647.188 1293.39 646.284 1297.07 646.867C1298.29 647.059 1299.57 646.943 1300.83 646.967L1300.87 646.468C1297.81 643.794 1295.63 640.254 1294.61 636.313C1294.5 635.914 1294.08 635.561 1293.74 635.257C1291.89 633.615 1290.77 631.607 1290.9 629.092C1291.08 625.681 1292.56 622.677 1294.06 619.566C1295.37 620.332 1296.6 620.881 1297.63 621.691C1299.29 622.99 1301.11 624.242 1302.32 625.929C1303.83 628.024 1304.29 630.579 1302.75 632.997C1301.3 635.281 1299.31 636.575 1296.44 636.039C1296.14 636.042 1295.85 636.085 1295.57 636.167C1297.18 640.925 1299.82 644.68 1304.3 646.811C1306.9 648.05 1309.53 647.499 1311.93 645.965C1310.84 645.993 1309.76 646.219 1308.69 646.292C1304.31 646.615 1301.74 643.593 1302.76 639.3C1303.01 638.215 1303.39 637.154 1303.66 636.071C1304.91 631.231 1304.9 626.498 1302.44 621.949C1300.53 618.416 1297.57 615.943 1294.43 613.612C1293.83 613.164 1293.25 612.681 1292.49 612.08C1292.91 612.029 1293.03 611.972 1293.11 612.009C1302.56 616.309 1305.44 622.956 1305.26 631.809C1305.16 634.354 1304.64 636.866 1303.73 639.245C1302.7 642.129 1304.33 644.696 1307.15 645.07C1309.97 645.444 1315.11 642.549 1316.01 639.844C1320.33 626.636 1322.71 613.224 1320.7 599.255C1319.32 589.626 1315.61 581.17 1308.84 574.116C1308.5 573.754 1308.12 573.424 1307.88 573.195C1303.65 576.844 1298.83 577.033 1293.46 576.314C1297.04 579.799 1299.54 583.41 1300.61 588.359C1298.46 588.497 1296.51 588.801 1294.6 588.695C1292.69 588.588 1290.8 588.009 1289.37 587.726C1289.97 590.654 1290.88 593.728 1291.15 596.862C1291.53 601.254 1290.17 601.198 1287.14 600.432C1284.39 599.736 1281.8 598.426 1279.05 597.345C1279.05 601.35 1278.5 605.432 1275.93 609.523L1267.96 602.069C1267.77 602.569 1267.54 603.052 1267.26 603.511C1266.08 605.269 1265.02 607.146 1263.61 608.7C1261.65 610.856 1260.2 610.807 1258.89 608.201C1257.48 605.39 1256.64 602.273 1255.77 599.225C1255.37 597.818 1255.51 596.253 1255.38 594.414C1255.03 595.105 1254.81 595.46 1254.66 595.848C1252.85 600.391 1249.39 603.509 1245.62 606.377C1244.6 607.151 1243.88 607.064 1243.43 605.869C1242.7 603.939 1241.83 602.028 1241.42 600.028C1241.06 598.333 1241.28 596.517 1241.24 594.715C1238.14 597.248 1234.63 599.214 1230.85 600.522C1230.66 599.872 1230.49 599.384 1230.37 598.88C1229.23 593.663 1230.53 588.913 1233.31 584.56C1235.11 581.766 1237.22 579.189 1239.38 576.252C1237.01 577.533 1234.89 578.718 1232.73 579.827C1229.32 581.59 1225.74 582.717 1221.83 582.195C1218.78 581.786 1217.83 580.222 1218.87 577.421C1219.93 574.535 1221.9 572.078 1224.5 570.429C1225.44 569.81 1226.42 569.192 1227.72 568.356C1221.55 568.762 1216.5 567.202 1212.51 562.919C1215.73 556.697 1221.25 554.313 1227.69 553.385C1227.18 553.033 1226.63 552.74 1226.06 552.509C1221.59 550.572 1218.13 547.593 1216.07 543.091C1215.54 541.928 1215.62 541.064 1216.82 540.658C1219.11 539.877 1221.43 538.863 1223.79 538.637C1226.43 538.402 1229.14 538.952 1231.77 539.137C1231.6 538.929 1231.42 538.719 1231.24 538.518C1229.82 537.004 1228.7 535.222 1227.97 533.275C1227.24 531.328 1226.9 529.255 1226.98 527.177C1227 526.102 1227.39 525.684 1228.44 525.542C1233.64 524.833 1238.12 526.279 1241.92 529.886C1242.33 530.272 1242.74 530.648 1243.28 531.152C1242.32 523.143 1242.48 521.938 1244.89 516.229C1245.33 515.186 1245.82 515.033 1246.82 515.374C1250.91 516.771 1253.94 519.35 1255.82 523.25C1256.3 524.25 1256.77 525.257 1257.44 526.609C1257.58 525.82 1257.63 525.463 1257.7 525.107C1258.6 520.502 1260.72 516.598 1264.42 513.637C1266.17 512.238 1266.86 512.323 1268.23 514.12C1270.16 516.646 1271.09 519.606 1271.46 522.697C1271.75 525.203 1271.69 527.75 1271.79 530.592C1275.96 524.359 1281.59 521.036 1289.25 521.054C1290.62 527.839 1289.01 534.006 1284.49 539.894C1285.52 539.46 1286.13 539.164 1286.76 538.935C1288.96 538.144 1291.13 537.17 1293.39 536.642C1295.1 536.252 1296.83 535.919 1298.57 535.613C1299.75 535.405 1300.95 534.924 1302.16 534.919C1303.06 534.902 1304.14 535.399 1304.1 536.447C1304.07 537.254 1303.26 537.855 1302.81 538.454C1302.77 538.51 1302.61 539.28 1302.61 539.28C1302.75 539.632 1303.37 539.982 1303.65 540.198C1304.4 540.771 1305.2 541.266 1305.94 541.829C1307.26 542.821 1308.57 543.809 1309.91 544.764C1317.21 549.97 1322.5 556.696 1325.29 565.235C1329.03 576.716 1329.1 588.382 1326.48 600.093C1326.27 600.806 1326.01 601.504 1325.71 602.184C1325.52 601.75 1325.4 601.612 1325.41 601.479C1325.42 601 1325.47 600.522 1325.54 600.049C1326.69 593.703 1327.16 587.253 1326.95 580.808C1326.73 571.604 1324.24 563.217 1318.61 555.792C1314.52 550.413 1309.35 546.268 1304.09 542.176C1303.31 541.568 1302.5 540.987 1301.85 540.498L1296.59 547.772C1301.45 548.551 1305.31 551.308 1309.35 553.952C1306.56 558.32 1303.16 561.716 1297.64 562.838C1298.17 563.17 1298.34 563.283 1298.51 563.378C1307.44 568.25 1314.44 575.128 1319.09 584.186C1323 591.798 1324 600.105 1324.05 608.548C1324.11 618.398 1321.91 627.861 1319.29 637.288C1317.74 642.867 1316.29 648.547 1315.63 654.279C1314.9 660.767 1316.81 666.664 1322.43 670.738C1324.94 672.55 1327.78 673.426 1330.72 672.125C1332.56 671.304 1334.11 669.832 1335.82 668.708C1336.19 668.462 1336.97 668.198 1337.11 668.353C1337.45 668.773 1337.63 669.296 1337.63 669.836C1337.64 670.206 1337.32 670.61 1337.07 670.953C1334.56 674.539 1329.21 676.259 1325.11 674.694ZM1306.33 651.092C1304.36 651.904 1303.59 653.455 1303.96 655.722C1305.66 655.228 1307.45 654.893 1309.03 654.162C1309.69 653.855 1309.98 652.694 1310.39 651.904C1310.85 651.024 1311.25 650.108 1311.79 648.97C1309.79 649.746 1308.04 650.386 1306.34 651.088L1306.33 651.092ZM1294.87 587.207C1295.98 587.349 1297.13 587.155 1298.59 587.102C1297.05 582.937 1295.16 579.493 1291.83 577.07C1290.24 575.914 1288.53 574.917 1286.74 574.094C1282.63 572.21 1278.46 570.458 1274.3 568.724C1273.85 568.536 1273.2 568.803 1272.67 568.852C1273 569.313 1273.23 569.938 1273.67 570.213C1279 573.518 1284.4 576.733 1289.7 580.09C1291.04 580.937 1292.11 582.209 1293.12 583.513C1285.74 579.681 1279.15 574.607 1271.81 570.814L1271.5 571.278C1272.06 571.712 1272.63 572.137 1273.18 572.581C1277.27 575.873 1281.4 579.153 1285.44 582.526C1288.22 584.859 1291.2 586.736 1294.87 587.207ZM1285.05 596.529C1285.47 596.852 1286.22 596.744 1286.81 596.837C1286.87 596.227 1287.07 595.587 1286.97 595C1286.2 590.726 1284.24 586.757 1281.31 583.553C1278.81 580.758 1275.94 578.274 1273.03 575.897C1271.85 574.933 1270.14 574.623 1268.67 574.015L1268.43 574.479C1268.48 574.783 1268.57 575.079 1268.69 575.36C1272.13 580.792 1275.41 586.341 1279.13 591.576C1280.57 593.589 1283 594.943 1285.05 596.529ZM1275.57 606.987C1279.36 601.996 1276.55 590.043 1269.62 581.673C1271.59 587.462 1273.09 593.351 1273.65 599.453L1273.06 599.625L1270.28 590.022L1269.69 590.16C1269.79 593.212 1269.64 596.298 1270.05 599.312C1270.49 602.731 1272.88 605.006 1275.56 606.97L1275.57 606.987ZM1258.46 598.058C1258.91 600.266 1259.91 602.374 1260.74 604.487C1261.19 605.639 1262.12 605.826 1262.7 604.702C1263.81 602.547 1264.98 600.359 1265.62 598.046C1267.03 593.063 1266.53 588.023 1265.44 583.027L1264.18 577.42L1264.48 577.166C1263.94 576.577 1263.44 575.543 1262.88 575.51C1261.69 575.449 1260.39 575.605 1260.06 577.354C1258.79 584.187 1257.01 591.009 1258.46 598.041L1258.46 598.058ZM1245.04 604.829C1246.24 603.81 1247.51 602.941 1248.52 601.846C1252.32 597.772 1254.97 592.755 1256.18 587.315C1256.99 583.681 1257.69 580.018 1258.49 576.379C1258.68 575.511 1258.69 574.901 1257.2 574.765L1252.91 589.863C1252.65 589.807 1252.4 589.75 1252.14 589.69L1255.36 573.766L1254.72 573.609C1251 582.037 1249.65 591.185 1247.07 599.992C1246.43 595.023 1247.69 590.255 1248.57 585.023C1243.08 590.414 1241.78 597.879 1245.04 604.811L1245.04 604.829ZM1232.8 592.521C1232.44 593.974 1232.34 595.489 1232.07 597.336C1235.64 596.007 1238.58 594.467 1240.64 591.837C1245.48 585.657 1249.12 578.734 1252.57 571.706C1252.62 571.432 1252.65 571.152 1252.65 570.872C1251.66 570.979 1250.6 570.788 1249.92 571.215C1241.81 576.356 1235.16 582.732 1232.79 592.504L1232.8 592.521ZM1222.58 579.035C1224.24 578.89 1225.9 579.078 1227.3 578.557C1230.08 577.517 1232.78 576.262 1235.36 574.801C1239.16 572.653 1242.81 570.258 1246.52 567.964C1246.84 567.774 1247.11 567.555 1247.49 567.31C1239.02 566.376 1224.14 571.218 1222.58 579.018L1222.58 579.035ZM1216.19 561.02C1215.01 562.191 1215.11 562.718 1216.55 563.611C1220.6 566.177 1225.49 567.083 1230.2 566.139C1234.28 565.382 1238.32 564.463 1242.39 563.621C1243.58 563.374 1244.8 563.187 1245.98 562.881C1246.37 562.768 1246.69 562.395 1247.05 562.143C1246.66 561.882 1246.28 561.396 1245.88 561.38C1241.9 561.229 1237.91 560.982 1233.93 561.112C1229.74 561.242 1225.54 561.755 1221.36 562.084C1221.01 562.102 1220.65 562.043 1220.31 561.911C1229.44 558.521 1238.83 558.366 1248.36 559.83L1248.42 559.163C1247.77 558.978 1247.14 558.787 1246.49 558.66C1241.09 557.69 1235.71 556.65 1230.3 555.805C1224.67 554.906 1220.09 557.155 1216.19 561.003L1216.19 561.02ZM1222.53 541.693C1221.35 541.993 1220.22 542.438 1219.15 543.016C1219.96 544.587 1221.03 546.012 1222.31 547.233C1225.1 549.882 1228.1 550.729 1231.7 551.696C1237.55 553.27 1245.83 554.083 1246.71 554.332C1246.89 554.384 1247.08 554.42 1247.28 554.442C1247.55 554.472 1247.83 554.469 1248.1 554.435C1246.53 552.991 1244.27 550.979 1241.44 548.691C1234.71 543.259 1232.41 542.445 1231.32 542.109C1229.88 541.632 1226.52 540.666 1222.53 541.674L1222.53 541.693ZM1230.53 527.142C1230.01 527.115 1229.49 527.154 1228.99 527.164C1228.34 530.71 1230.32 534.457 1232.28 537.238C1233.11 538.397 1234.12 539.47 1239.02 543.616C1241.08 545.355 1240.77 545.04 1245.45 548.948L1249.17 552.061L1250.42 550.92C1242.31 541.937 1238.36 537.337 1238.59 537.12C1238.78 536.932 1242.06 539.975 1248.42 546.247L1252.63 549.618L1252.97 549.409C1252.96 549.177 1252.92 548.948 1252.84 548.728C1250 543.476 1246.87 538.406 1242.92 533.899C1239.64 530.14 1235.73 527.411 1230.53 527.142ZM1253.61 524.681C1252.55 521.958 1250.43 520.23 1247.92 518.869C1246.89 518.319 1246.37 518.676 1245.99 519.659C1244.37 523.604 1244.35 528.027 1245.95 531.983C1246.97 534.588 1248.37 537.059 1249.74 539.518C1251.03 541.841 1252.49 544.071 1253.88 546.335C1254.14 546.752 1254.46 547.13 1254.75 547.53L1255.21 547.299L1249.03 525.96C1249.2 525.88 1249.38 525.798 1249.56 525.721C1250.07 526.506 1250.53 527.317 1250.96 528.15C1253.62 534.066 1255.06 540.341 1256.36 546.655C1256.78 548.708 1256.78 548.708 1258.98 548.506C1257.83 542.389 1256.76 536.367 1255.52 530.383C1255.12 528.444 1254.34 526.548 1253.61 524.681ZM1267.94 522.02C1267.64 520.723 1267.24 519.451 1266.75 518.216C1266.31 516.999 1265.59 517.096 1264.89 517.973C1264.36 518.637 1263.9 519.351 1263.51 520.104C1260.64 525.662 1259.65 531.463 1261.47 537.542C1262.21 540.086 1263.2 542.556 1264.07 545.06L1264.54 544.992C1266.91 537.532 1269.44 530.076 1267.94 522.02ZM1282.68 539.085C1286.58 534.657 1288.51 527.806 1287.69 522.924C1284.85 523.12 1282.08 523.725 1279.84 525.516C1277.74 527.128 1275.85 529.001 1274.21 531.089C1270.73 535.818 1268.29 541.23 1267.05 546.969C1266.93 547.48 1266.88 548.003 1266.8 548.534C1268.42 549.591 1269.06 548.684 1269.69 547.557C1271.98 543.475 1274.21 539.35 1276.67 535.376C1277.98 533.252 1279.74 531.404 1281.29 529.436L1281.91 529.849C1281.4 530.84 1280.96 531.871 1280.37 532.807C1277.93 536.681 1275.41 540.502 1273 544.389C1272.26 545.676 1271.62 547.022 1271.09 548.414C1270.95 548.741 1271.23 549.238 1271.32 549.653C1271.69 549.546 1272.17 549.549 1272.41 549.311C1275.87 545.942 1279.48 542.693 1282.67 539.071L1282.68 539.085ZM1287.63 549.08C1293.97 547.579 1297.88 543.603 1300.56 537.987C1293.71 536.564 1277.84 544.651 1273.65 552.077C1277.07 550.238 1280.48 548.377 1283.92 546.567C1287.29 544.791 1290.26 542.138 1294.22 541.608C1288.74 547.173 1281.15 549.085 1274.66 552.875L1274.79 553.242C1275.1 553.224 1275.41 553.177 1275.72 553.102C1279.69 551.755 1283.58 550.042 1287.63 549.08ZM1265 550.63C1263.87 550.869 1262.86 551.68 1261.66 552.301C1259.23 550.127 1257.11 549.772 1254.63 551.151C1252.15 552.531 1250.87 555.426 1251.35 558.444C1251.36 558.637 1251.34 558.831 1251.27 559.014C1251.21 559.197 1251.11 559.365 1250.98 559.51C1247.57 563.175 1249.15 568.641 1254.05 570.083C1254.81 570.32 1255.49 570.77 1256.01 571.38C1258.29 574.218 1262.28 574.337 1264.54 571.464C1265.29 570.501 1266.03 570.055 1267.3 570.034C1270.44 569.979 1272.5 567.262 1271.59 564.018C1270.91 561.692 1270.76 559.632 1271.35 557.195C1272.24 553.571 1268.49 549.898 1265 550.63ZM1305.78 555.563L1306.69 554.321C1305.29 553.072 1303.65 552.126 1301.87 551.545C1300.09 550.963 1298.21 550.758 1296.34 550.943C1289.51 551.549 1282.99 553.496 1276.77 556.397C1276.38 556.619 1276.02 556.875 1275.68 557.162L1275.83 557.634C1283.85 556.778 1291.83 555.327 1299.91 555.734L1299.99 556.416C1292.12 557.702 1284.25 558.989 1276.38 560.275L1276.38 560.756C1276.9 560.86 1277.43 560.934 1277.97 560.978C1282.75 561.084 1287.54 561.345 1292.32 561.206C1297.45 561.052 1302.43 560.153 1305.78 555.563ZM1302.52 571.544C1302.03 570.775 1301.7 569.783 1301.02 569.284C1299.52 568.188 1297.91 567.243 1296.23 566.464C1289.84 563.562 1283.11 563.966 1276.25 564.768C1276.51 565.004 1276.79 565.22 1277.09 565.416C1282.71 568.636 1288.58 571.214 1294.96 572.443C1296.68 572.725 1298.43 572.789 1300.17 572.633C1300.97 572.58 1301.73 571.92 1302.52 571.544Z" fill="#1E1E1E"/>
<path d="M1262.28 565.373C1264.28 564.793 1265.48 562.35 1264.82 560.204C1264.2 558.175 1261.88 556.842 1259.92 557.4C1257.8 558.015 1256.6 560.37 1257.27 562.647C1257.41 563.16 1257.66 563.64 1257.99 564.057C1258.32 564.474 1258.73 564.821 1259.2 565.075C1259.67 565.329 1260.18 565.487 1260.71 565.538C1261.24 565.589 1261.78 565.533 1262.28 565.373Z" fill="#1E1E1E"/>
<path d="M462.88 647.321C463.07 647.02 463.156 646.942 463.145 646.872C462.552 642.729 464.652 639.709 467.503 637.201C470.488 634.573 471.974 631.44 471.971 627.489C471.968 625.644 472.219 623.798 472.371 621.724C469.2 623.407 466.451 625.322 464.383 628.125C462.913 630.076 462.008 632.394 461.765 634.825C461.351 638.998 462.016 643.066 462.88 647.321Z" fill="#1E1E1E"/>
<path d="M1354.81 567.134C1355.24 563.206 1353.5 561.282 1350.17 561.059C1347.47 561.011 1344.76 561.109 1342.07 561.354L1332.79 561.767C1333.53 560.439 1333.69 559.859 1334.07 559.525C1340.23 554.006 1341.61 548.202 1338.47 540.56C1336.61 536.034 1333.26 532.278 1328.98 529.913C1325.85 528.248 1322.82 526.405 1319.9 524.394C1315.06 520.792 1313.54 513.914 1315.86 509C1321.76 512.57 1327.58 516.323 1333.62 519.703C1344.24 525.651 1354.05 524.736 1363.16 516.156C1364.4 514.966 1365.87 514.034 1367.48 513.415C1369.09 512.797 1370.8 512.504 1372.52 512.554C1374.25 512.603 1375.94 512.994 1377.51 513.704C1379.08 514.414 1380.49 515.429 1381.66 516.689C1383.15 518.24 1383.48 519.48 1381.78 521.15C1372.81 529.952 1370.91 540.234 1375.03 552.05C1378.21 561.147 1377.66 570.013 1371.85 578.068C1370.17 580.398 1371.57 581.996 1372.59 583.817C1376.51 590.822 1381.02 597.573 1384.2 604.897C1394.54 628.752 1393.55 653.044 1385.35 677.257C1378.98 695.943 1368.12 712.149 1356.66 727.98C1345.61 743.232 1335.58 759.039 1328.92 777.28C1338.4 777.686 1345.83 781.59 1350.84 789.55C1353.93 794.283 1355.91 799.655 1356.63 805.262C1351.46 804.3 1346.59 803.139 1341.65 802.527C1333.76 801.557 1326.82 799.307 1322.9 791.045L1317.65 809.572C1325.19 812.824 1331.74 817.978 1336.68 824.529C1330.18 823.686 1324.75 823.456 1321.13 828.441C1317.34 833.618 1316.52 841.872 1318.99 850.316C1322.73 843.414 1327.74 838.898 1335.48 838.126C1342.32 837.297 1349.24 838.829 1355.1 842.468C1351.71 847.144 1348.59 851.684 1345.21 856.034C1341.83 860.383 1337.37 862.331 1331.98 862.562C1330.46 862.633 1328.95 862.8 1326.12 863.031C1329.59 866.641 1332.05 870.005 1335.25 872.358C1340.27 875.882 1345.48 879.131 1350.85 882.091C1354.32 884.103 1358.01 885.677 1361.57 887.586C1372.07 893.255 1379.78 901.501 1383.83 912.784C1390.09 930.214 1395.61 947.978 1392.8 966.752C1391.18 976.887 1388.6 986.844 1385.1 996.491C1376.5 1020.89 1366.81 1044.92 1358.37 1069.35C1351.65 1088.7 1347.02 1108.63 1345.89 1129.2C1344.94 1146.48 1348.02 1162.86 1357.13 1177.82C1357.45 1178.49 1357.71 1179.19 1357.92 1179.91L1351.74 1180.29C1361.95 1195.23 1371.17 1210.27 1384.11 1222.6C1373.61 1221.47 1364.07 1218.56 1357.09 1210.34C1354.98 1207.94 1353.05 1205.39 1351.31 1202.71C1346.37 1194.7 1340.04 1188.21 1331.75 1183.63C1329.21 1182.22 1326.91 1180.44 1323.57 1178.15L1345.78 1173.85C1341.01 1158.11 1340.71 1141.87 1341.1 1125.58C1341.59 1109.95 1344.06 1094.46 1348.47 1079.46C1350.14 1073.62 1348.85 1069.07 1345.62 1064.59C1343.75 1062.01 1341.54 1059.68 1339.59 1057.16C1334.12 1050.1 1332.64 1039.59 1336.14 1030.69C1338.41 1033.08 1340.39 1035.33 1342.58 1037.37C1344.65 1039.28 1346.94 1040.95 1349.13 1042.73L1350.31 1041.99C1350.18 1040.07 1350.49 1038.01 1349.85 1036.27C1346.61 1027.53 1343.7 1018.64 1339.61 1010.31C1331.11 993.323 1326.99 974.479 1327.62 955.493C1327.75 951.62 1328.59 947.764 1329.21 943.923C1329.44 942.785 1329.99 941.737 1330.81 940.909C1330.81 955.381 1330.01 969.845 1335.3 984.516C1339.81 972.851 1345.05 962.721 1358.21 960.661C1367.85 959.127 1373 966.585 1379.64 971.579C1374.07 980.238 1367.15 986.313 1356.25 985.661C1349.66 985.264 1344.32 987.641 1339.65 992.174C1337.82 993.947 1337.42 995.442 1338.48 997.74C1341.37 1003.96 1344.04 1010.26 1346.89 1016.5C1352.22 1028.25 1356.05 1040.35 1355.19 1053.46C1355.21 1054.3 1355.29 1055.12 1355.42 1055.95C1356.22 1054.55 1356.7 1053.84 1357.01 1053.05C1365.88 1031.14 1374.87 1009.32 1383.52 987.299C1387.28 977.757 1390.23 967.858 1390.13 957.361C1390.12 947.238 1386.9 937.379 1380.93 929.202C1374.96 921.026 1366.55 914.955 1356.91 911.862C1354.22 910.979 1351.53 910.081 1348.79 909.325C1318.88 900.96 1301.04 880.89 1294.42 851.183C1287.56 820.418 1295.63 792.611 1314.3 767.754C1320.39 759.644 1327.45 752.265 1333.9 744.416C1344.48 731.519 1355.11 718.478 1361.79 703.123C1368.9 686.783 1375.07 669.973 1375.12 651.676C1375.18 631.567 1368.5 613.707 1357.38 597.255C1355.93 595.124 1354.32 594.154 1351.54 594.313C1343.85 594.774 1338.34 590.942 1334.99 584.31C1332.6 579.626 1333.95 575.094 1337.19 571.118C1340.91 566.538 1345.71 564.995 1351.43 566.125C1352.5 566.331 1353.49 566.729 1354.81 567.134ZM1387.41 935.645C1384.47 918.947 1376.1 905.835 1361.17 897.35C1355.11 893.907 1348.81 890.925 1342.69 887.57C1328.67 879.881 1319.63 867.993 1315.47 852.821C1309.88 833.09 1310.85 812.077 1318.23 792.945C1325.8 772.549 1335.77 753.134 1347.96 735.113C1349.62 732.68 1350.94 730.024 1352.42 727.471C1351.62 727.408 1351.32 727.567 1351.12 727.837C1340.06 743.152 1328.41 758.093 1318.11 773.901C1305.53 793.208 1298.69 814.566 1300.06 837.983C1300.68 848.392 1302.74 858.475 1309.61 866.752C1318.11 876.978 1327.65 886.107 1339.31 892.77C1340.9 893.693 1342.49 894.631 1344.08 895.561C1331.35 893.239 1321.64 885.526 1311.75 878.012C1312.3 879.469 1313.1 880.816 1314.13 881.988C1323.62 892.325 1335.15 899.37 1349.12 901.072C1362.69 902.662 1372.52 909.23 1379.23 920.839C1382.09 925.666 1384.74 930.684 1387.41 935.645H1387.41ZM1362.83 590.313C1367.06 599.108 1371.75 607.242 1375 615.91C1381.45 633.069 1383.64 650.897 1378.06 668.677C1373.74 682.386 1367.99 695.633 1362.87 709.079C1362.37 710.375 1361.87 711.663 1361.38 712.952C1394.26 667.786 1392.9 625.484 1366.15 587.244L1362.83 590.313ZM1373.61 1216.83C1370.35 1213.09 1367.2 1209.91 1364.57 1206.35C1358.87 1198.66 1353.48 1190.77 1347.87 1183C1347.15 1182 1346.09 1180.61 1345.14 1180.56C1341.49 1180.44 1337.83 1180.81 1334.18 1180.99C1334.71 1181.96 1335.52 1182.73 1336.5 1183.22C1343.39 1186.94 1349.16 1192.45 1353.2 1199.16C1355.31 1202.44 1357.68 1205.54 1360.28 1208.44C1363.7 1212.61 1368.38 1215.55 1373.61 1216.83Z" fill="#1E1E1E"/>
<path d="M144.461 671.211C142.015 669.023 139.056 667.98 135.927 667.413C133.748 667.029 132.451 665.769 131.311 664.025C128.016 658.947 128.145 653.409 128.916 647.731C129.332 645.099 129.513 642.434 129.456 639.769C129.271 635.652 130.328 631.632 131.837 627.833C132.608 625.904 133.485 624.021 134.381 622.142C135.11 620.605 136.107 619.17 136.688 617.573C137.27 615.976 144.12 603.8 144.96 602.341C145.361 601.644 145.611 600.869 146.044 600.19C146.829 598.958 150.346 594.056 150.572 591.679C150.605 591.328 150.471 590.816 150.111 590.899C149.958 590.936 149.866 591.088 149.792 591.227C147.208 596.396 144.286 601.422 141.544 606.509C138.802 611.595 136.084 616.663 133.236 621.634C131.953 623.896 130.67 626.158 129.386 628.419C127.171 632.352 125.085 636.368 122.717 640.208C118.96 646.301 113.37 650.131 106.696 652.472C99.1701 655.178 91.0332 655.706 83.2207 653.995C91.6212 657.715 99.9802 656.723 108.358 653.815C117.067 650.81 123.035 644.81 127.268 636.838C127.505 640.096 127.55 643.365 127.402 646.628C127.246 647.773 126.749 648.844 125.976 649.702C122.975 653.261 118.997 655.19 114.478 655.97C111.247 656.529 108.45 657.729 106.23 660.198C103.142 663.637 102.399 668.096 100.783 671.857C104.296 671.091 107.707 670.274 111.173 669.623C114.533 668.991 117.677 667.943 120.377 665.779C122.691 664.022 124.3 661.496 124.914 658.657C125.329 656.663 124.679 656.136 122.726 656.718C121.415 657.106 120.086 657.447 118.766 657.807L118.71 657.475L126.959 651.622C127.882 661.089 127.882 661.089 132.036 667.449L129.497 669.637C128.971 668.036 128.426 666.277 127.813 664.56C127.199 662.843 126.483 661.061 125.814 659.312C125.546 660.457 125.517 661.645 125.726 662.801C126.068 664.574 125.482 665.765 124.023 666.822C122.47 667.949 121.028 669.223 119.717 670.625C115.563 675.107 113.892 683.623 116.315 688.732C119.661 683.193 127.36 682.136 128.823 675.758C130.333 678.365 131.593 681.49 133.674 683.895C136.647 687.324 140.229 690.228 143.967 693.745C145.301 688.608 146.834 683.66 147.798 678.605C148.361 675.665 146.672 673.196 144.461 671.211Z" fill="#1E1E1E"/>
<path d="M65.5203 593.031C60.3046 594.651 56.5566 597.965 53.9396 602.572C53.8243 602.836 53.7648 603.121 53.7648 603.41C53.7648 603.698 53.8243 603.983 53.9396 604.247C55.5043 607.52 54.6965 612.325 51.8025 614.697C47.6992 618.057 42.7651 619.728 37.494 621.274C37.254 616.959 36.7047 612.874 37.9556 608.877C38.6384 606.615 40.1138 604.675 42.1111 603.412C44.1084 602.15 46.4939 601.65 48.83 602.004C50.8425 602.263 52.3656 601.783 53.5565 600.269C57.0321 595.842 61.2046 592.422 66.7388 590.913C67.003 590.793 67.2499 590.637 67.4727 590.451C63.6463 590.271 57.249 592.851 54.8719 595.496C52.4949 598.141 47.3392 598.653 44.039 596.502C40.1849 594.014 34.4938 584.502 33.9769 579.369C36.2847 581.769 39.091 581.469 41.8235 581.603C47.6115 581.884 52.301 583.934 54.9966 589.514C56.2059 592.011 56.4043 591.914 60.3969 590.77C59.0537 590.156 57.7106 589.666 56.492 588.96C53.4411 587.202 53.0026 582.614 55.7674 580.583C56.5059 580.043 57.7659 580.214 58.7906 580.057C58.8275 580.855 59.0722 581.714 58.8737 582.448C57.7521 586.523 60.6138 589.934 64.7725 589.163C67.3136 588.635 69.8163 587.936 72.2637 587.072C75.5778 585.979 78.8364 584.728 82.1181 583.537C82.3377 583.468 82.5417 583.357 82.7183 583.21C82.8949 583.063 83.0407 582.882 83.1474 582.678C79.7042 582.286 76.2609 581.875 72.813 581.497C63.3647 580.463 54.0965 578.727 45.3175 574.887C34.5307 570.184 26.0979 563.251 22.9316 551.347C21.5469 546.109 21.1223 540.805 22.1977 535.46C22.4239 534.339 23.0193 533.291 23.4393 532.229L23.9609 532.377C23.9886 532.798 23.9886 533.221 23.9609 533.642C22.71 542.573 23.3147 551.181 28.4981 558.954C32.8183 565.453 39.271 569.191 46.0376 572.473C53.9211 576.29 62.4831 577.601 71.0083 579.05C81.4411 580.753 92.0132 581.452 102.579 581.137C106.193 581.054 109.821 581.635 113.445 581.954C114.034 582.064 114.611 582.234 115.166 582.461L115.194 583.071C113.92 583.237 112.646 583.454 111.368 583.565C102.349 584.349 93.3388 585.152 84.3152 585.872C77.5717 586.403 71.876 589.2 67.1865 593.917C64.0017 597.121 61.1861 600.666 58.2091 604.095C57.2859 605.166 56.8244 606.191 58.4075 607.326C58.9614 607.714 59.3307 609.085 59.0768 609.781C58.1205 612.598 58.1678 615.659 59.2106 618.445C59.4737 619.184 59.2522 620.098 59.2522 621.399C56.5982 619.313 55.015 617.185 55.0981 614.194C55.3058 608.494 56.1228 603.029 60.6 598.787C62.4416 597.019 63.9048 594.961 65.5203 593.031Z" fill="#1E1E1E"/>
<path d="M63.7598 555.266C79.4899 544.848 95.8524 537.777 114.823 544.188C113.198 539.522 111.693 534.925 109.999 530.397C107.115 522.666 101.742 517.935 93.3461 517.011C88.1258 516.453 83.944 519.661 83.3671 524.604C83.2828 525.216 83.3396 525.84 83.5333 526.427C83.7269 527.013 84.0522 527.548 84.4842 527.99C84.9163 528.432 85.4436 528.769 86.026 528.976C86.6084 529.183 87.2303 529.253 87.8443 529.183C89.5797 528.947 90.0644 527.964 89.229 526.413C88.5458 525.121 89.3536 523.755 90.8906 523.713C92.5245 523.667 93.5815 524.604 94.2693 525.993C95.677 528.851 94.5185 532.151 91.4999 533.909C84.701 537.874 76.2959 532.815 75.8066 524.452C75.3451 516.822 81.1977 510.96 89.7505 510.633C98.5203 510.296 105.864 513.804 112.487 519.245C117.814 523.621 120.763 529.294 122.305 535.931C123.486 541.008 125.042 545.97 126.56 550.946C126.969 552.04 127.597 553.039 128.407 553.881C132.662 558.728 136.973 563.523 141.266 568.328C141.446 568.536 141.755 568.688 141.824 568.919C141.976 569.514 142.098 570.116 142.189 570.724C141.598 570.77 140.874 571.056 140.44 570.821C138.1 569.533 135.824 568.162 133.548 566.727C128.625 563.603 123.736 560.44 118.88 557.237C117.875 556.515 117.019 555.606 116.36 554.56C119.231 556.406 122.051 558.377 124.991 560.131C127.931 561.885 131.093 563.51 134.356 565.3C132.801 561.146 126.279 554.024 121.755 551.075C111.495 544.382 100.551 542.554 88.7212 545.97C82.6609 547.724 76.5313 549.27 71.0017 552.455C70.3694 552.82 69.7786 553.263 68.957 553.807C69.5847 554.269 69.9817 554.597 70.4155 554.874C75.1558 557.888 80.1453 560.579 84.6041 563.966C95.5709 572.307 108.024 576.595 121.46 578.644C126.898 579.405 132.41 579.489 137.869 578.893C138.594 578.884 139.319 578.941 140.033 579.064L140.117 579.987C137.292 580.5 134.485 581.234 131.642 581.492C122.494 582.318 113.789 580.297 105.278 577.135C97.8371 574.366 90.9691 570.535 84.4471 566.057C78.0221 561.636 71.8556 556.692 63.7598 555.266ZM122.84 547.212C121.455 541.571 120.477 536.453 118.945 531.518C117.163 525.758 110.636 519.125 105.693 517.579C106.335 518.262 106.815 518.83 107.355 519.338C111.36 523.054 114.063 527.961 115.063 533.332C115.409 535.15 115.889 536.939 116.498 538.687C117.65 542.127 119.868 545.112 122.831 547.207L122.84 547.212Z" fill="#1E1E1E"/>
<path d="M260.913 553.064C260.733 553.84 260.692 554.68 260.355 555.372C256.662 562.928 249.54 568.614 239.506 566.833C234.927 566.02 230.376 564.746 225.659 565.739C224.903 565.872 224.201 566.216 223.633 566.731C224.33 567.013 225.017 567.34 225.719 567.562C239.686 571.915 252.365 578.547 262.603 589.172C268.077 594.854 272.295 601.436 274.289 609.214C274.562 610.271 274.497 611.415 274.589 612.518L274.012 612.634C273.685 611.78 273.343 610.935 273.029 610.077C267.615 595.413 257.918 584.691 243.775 577.915C232.638 572.565 221.112 568.49 208.899 566.551C201.422 565.365 193.982 566.228 186.62 567.742C181.455 568.808 176.248 569.777 171.536 572.358C170.985 572.588 170.413 572.763 169.828 572.879L169.436 572.395C172.062 569.907 174.37 566.879 177.393 565.056C181.87 562.36 186.79 560.329 191.665 558.377C194.531 557.223 197.605 557.62 200.471 558.981C201.167 559.253 201.877 559.484 202.599 559.674C202.908 559.775 203.476 559.937 203.467 560.038C203.264 562.697 205.548 561.986 206.813 562.392C210.926 563.703 215.094 564.853 219.275 565.979C219.908 566.15 220.868 566.117 221.334 565.743C224.468 563.242 228.101 562.919 231.853 563.237C233.898 563.408 235.91 563.916 237.946 564.202C247.246 565.503 254.747 562.84 259.552 554.306C259.815 553.844 260.156 553.41 260.475 552.967L260.913 553.064Z" fill="#1E1E1E"/>
<path d="M166.047 585.918C167.773 587.035 169.522 588.12 171.216 589.279C174.577 591.586 178.034 593.59 182.183 594.18C186.333 594.771 189.245 597.305 191.073 601.058C191.945 602.844 192.868 604.616 193.584 606.467C197.276 616.054 204.897 620.314 214.507 621.837C216.376 622.133 218.291 622.128 220.188 622.262L220.332 621.704C219.685 621.491 219.044 621.242 218.393 621.076C212.217 619.327 207.283 615.916 203.729 610.46C200.221 605.101 196.538 599.844 192.998 594.656C193.583 594.798 194.154 594.991 194.705 595.233C199.612 597.665 203.475 601.284 206.6 605.747C207.777 607.432 208.843 609.2 210.071 610.848C213.427 615.357 218.024 617.19 223.544 616.811C226.572 616.603 228.861 615.066 229.254 612.92C229.397 612.14 229.004 611.268 228.857 610.432C228.22 610.636 227.564 610.777 226.9 610.852C226.392 610.852 225.469 610.635 225.441 610.423C225.293 609.251 224.98 607.852 225.469 606.91C225.889 606.103 227.283 605.401 228.275 605.355C232.263 605.17 235.697 609.698 234.959 613.982C234.395 617.245 232.434 619.52 229.701 621.256C224.375 624.616 218.573 624.362 212.762 623.245C200.18 620.827 191.29 613.446 185.271 602.336C184.754 601.381 184.269 600.245 183.425 599.664C182.46 598.981 181.08 598.399 179.968 598.533C179.343 598.65 178.699 598.61 178.094 598.415C177.489 598.221 176.941 597.879 176.501 597.421C173.376 594.54 170.15 591.776 166.97 588.956C166.015 588.106 165.124 587.211 166.098 585.826L166.047 585.918Z" fill="#1E1E1E"/>
<path d="M142.197 585.438L123.735 593.747L123.508 593.285L138.251 585.877L138.159 585.378C137.552 585.369 136.946 585.401 136.345 585.475C120.236 588.452 108.955 597.647 101.81 612.246C98.5562 618.888 95.3484 625.562 91.7528 632.024C90.1096 634.983 87.5987 637.466 85.4939 640.157C85.0001 640.785 84.4462 641.371 83.9154 641.976L84.0954 642.682C87.7879 642.409 91.5081 642.303 95.173 641.842C105.858 640.499 114.369 634.978 121.999 627.727C131.138 619.04 136.132 607.843 141.44 596.599C139.022 596.913 133.321 601.182 129.966 605.415C127.003 609.149 124.335 613.118 121.593 616.908C121.939 610.077 139.382 591.023 146.564 589.454C142.225 600.795 137.462 612.131 129.947 622.082C120.748 634.286 108.891 642.142 93.7006 644.699C88.3649 645.59 83.0476 645.687 77.8319 643.919C77.2504 643.72 76.6642 643.517 76.1011 643.273C75.8347 643.11 75.5883 642.916 75.3672 642.696C75.6287 642.456 75.9204 642.251 76.2349 642.086C83.3661 639.737 88.2587 634.789 91.6974 628.364C93.8944 624.261 95.5653 619.88 97.67 615.726C100.019 611.083 102.378 606.421 105.12 602.009C108.203 597.047 112.371 592.92 117.684 590.428C123.624 587.659 129.777 585.277 135.948 583.043C139.451 581.732 139.552 582 142.197 585.438Z" fill="#1E1E1E"/>
<path d="M221.14 534.902L213.501 533.946C214.937 531.758 216.423 529.464 217.941 527.193C222.331 520.635 227.994 518.793 235.416 521.512C237.212 522.172 238.97 522.924 241.26 523.819C237.567 527.05 234.078 530.249 230.395 533.175C229.185 534.135 227.408 534.385 225.391 535.146C229.896 535.728 233.372 537.274 235.019 541.276C236.421 544.465 236.942 547.971 236.529 551.43C234.71 550.166 233.298 548.882 231.664 548.139C229.835 547.388 227.921 546.867 225.963 546.588C223.654 546.181 221.557 544.988 220.028 543.21C218.592 541.64 216.912 540.297 215.149 538.677L217.563 537.052C213.139 537.272 208.861 538.701 205.193 541.183C201.547 543.611 198.103 546.348 194.406 548.725C198.034 545.001 201.851 541.585 206.407 539C210.963 536.416 215.934 535.252 221.14 534.902Z" fill="#1E1E1E"/>
<path d="M203.292 505.472C193.881 506.658 186.26 510.822 179.254 516.18C172.09 521.655 167.124 528.864 163.043 536.886C158.866 545.093 159.416 553.877 159.171 562.568C156.757 562.646 156.157 561.691 156.074 559.623C155.109 535.234 173.281 510.032 198.478 503.871C202.904 502.776 207.516 502.66 211.992 503.529C211.683 503.965 211.322 504.362 210.917 504.711C200.943 510.951 196.17 520.441 194.148 531.62C191.72 545.074 184.239 555.335 173.839 563.749C171.665 565.513 169.339 567.087 167.008 568.804L165.624 567.248C168.91 564.613 172.358 562.171 175.427 559.328C183.644 551.817 189.276 541.901 191.517 530.997C192.994 524.05 195.15 517.339 198.99 511.297C200.195 509.419 201.64 507.697 203.292 505.472Z" fill="#1E1E1E"/>
<path d="M192.753 484.85C194.673 483.797 195.523 481.946 195.061 479.717C194.563 477.238 192.753 475.318 190.312 475.332C188.342 475.325 186.391 475.725 184.584 476.509C179.636 478.794 176.146 482.749 173.358 487.342C169.135 494.293 167.469 502.043 166.435 509.959C166.047 512.931 165.784 515.917 165.078 518.95C164.935 518.415 164.82 517.872 164.732 517.325C163.592 507.891 165.433 498.863 168.886 490.167C170.68 485.572 172.84 481.13 175.348 476.883C179.313 470.25 186.033 467.241 192.744 468.658C197.392 469.641 200.291 472.627 201.657 477.123C203.023 481.619 202.022 485.546 198.754 488.851C195.961 491.681 192.463 492.184 189.633 490.236C188.899 489.733 188.272 489.09 187.787 488.344C186.638 486.525 186.864 484.046 188.096 483.266C189.329 482.486 191.503 483.234 192.753 484.85Z" fill="#1E1E1E"/>
<path d="M144.566 568.019C143.403 567.239 142.055 566.634 141.114 565.656C132.012 556.189 127.22 544.742 126.108 531.726C125.831 528.454 125.49 525.158 125.647 521.89C125.748 519.624 126.2 517.164 127.244 515.184C130.659 508.685 129.367 502.883 125.351 497.27C124.82 496.527 124.345 495.747 123.842 494.985C123.971 494.815 124.096 494.639 124.22 494.469C126.773 495.539 129.454 496.375 131.855 497.699C139.588 502.067 146.344 507.975 151.702 515.059C156.779 521.682 157.951 528.934 155.99 537.025C154.822 542.171 154.011 547.391 153.562 552.649C153.267 555.663 153.774 558.755 153.562 562.148C153.188 561.622 152.662 561.146 152.459 560.56C151.111 556.66 150.936 552.63 151.37 548.559C151.859 543.99 152.237 539.402 152.953 534.869C154.462 525.324 151.166 517.501 144.792 510.651C140.615 506.16 135.593 502.306 131.804 500.852C131.768 501.101 131.768 501.355 131.804 501.604C133.382 506.331 132.764 510.877 130.276 515.077C127.71 519.407 127.128 523.972 128.134 528.758C129.519 535.386 130.821 542.065 132.704 548.564C134.629 555.206 139.166 560.44 143.357 565.785C143.874 566.44 144.123 567.304 144.501 568.093C144.506 568.088 144.566 568.019 144.566 568.019Z" fill="#1E1E1E"/>
<path d="M145.408 566.556C145.934 566.27 146.497 566.034 146.991 565.697C152.354 562.069 159.453 562.296 163.736 566.242C169.072 571.167 170.286 577.846 166.967 583.938C166.621 584.58 166.353 585.263 166.044 585.923L166.109 585.849C164.027 587.234 162.112 589.08 159.822 589.897C154.283 591.868 147.632 589.592 143.977 584.981C140.653 580.8 140.501 574.915 143.58 569.57C143.884 569.039 144.235 568.531 144.563 568.014C144.563 568.014 144.503 568.088 144.503 568.093L145.426 566.556H145.408ZM146.658 576.826C146.524 581.649 150.282 585.392 155.387 585.517C156.518 585.563 157.648 585.384 158.71 584.99C159.772 584.597 160.745 583.996 161.573 583.223C162.401 582.45 163.067 581.52 163.532 580.488C163.998 579.455 164.254 578.341 164.286 577.209C164.442 572.376 160.87 568.374 156.3 568.268C150.96 568.157 146.801 571.845 146.658 576.826Z" fill="#1E1E1E"/>
<path d="M154.277 591.951C154.466 593.534 154.762 595.113 154.822 596.701C155.08 603.624 155.21 610.548 155.514 617.471C155.768 623.218 157.887 628.355 160.725 633.321C163.439 638.057 165.849 642.977 168.184 647.916C169.047 649.739 169.329 651.839 169.98 654.198C176.1 648.142 179.516 640.863 181.057 632.763C182.631 624.505 181.251 616.382 178.666 608.461C176.017 600.329 169.056 595.538 163.402 589.768L163.961 589.085C164.936 589.548 165.881 590.073 166.79 590.654C176.575 597.762 181.399 607.603 183.245 619.424C185.756 635.449 177.245 657.097 166.559 660.452C166.712 658.144 167.053 655.836 166.975 653.529C166.776 647.69 163.975 642.76 161.081 637.928C158.187 633.095 155.08 628.189 154.093 622.47C153.425 619.041 153.023 615.566 152.888 612.075C152.777 606.186 153.04 600.287 153.188 594.393C153.269 593.564 153.415 592.743 153.626 591.937L154.277 591.951Z" fill="#1E1E1E"/>
<path d="M221.02 560.569C217.54 559.835 214.341 559.185 211.152 558.488C207.888 557.781 204.837 556.591 202.483 554.103C199.926 551.393 196.945 550.839 193.487 552.063C193.164 552.164 192.829 552.226 192.49 552.247C192.384 552.247 192.264 552.146 191.955 551.998C194.046 549.889 196.649 550.406 199.082 550.299C200.466 545.43 206.088 541.931 211.825 542.328C216.727 542.67 220.378 546.284 220.964 551.818C221.269 554.703 221.02 557.648 221.02 560.569Z" fill="#1E1E1E"/>
<path d="M144.125 489.724C143.664 489.479 143.497 489.442 143.461 489.345C141.19 483.645 136.316 481.337 130.86 480.229C125.146 479.066 120.968 476.167 118.088 471.141C116.745 468.792 115.079 466.627 113.371 464.102C118.633 463.927 123.526 464.356 128.201 466.41C131.495 467.819 134.339 470.105 136.422 473.02C139.994 478.023 142.117 483.682 144.125 489.724Z" fill="#1E1E1E"/>
<path d="M71.6243 599.391C71.5412 594.448 72.5105 590.446 77.2831 588.632C79.8817 587.649 82.4942 586.62 85.3651 587.811C82.2218 593.539 75.9953 595.63 71.7674 600.038C74.5137 604.261 74.5645 608.48 72.9721 612.961C72.2566 614.974 72.2382 617.231 71.9105 619.354C63.3853 616.239 59.5636 606.393 64.1792 599.202C65.9009 596.525 67.0225 596.285 69.718 598.048C70.2119 598.385 70.7011 598.745 71.6243 599.391Z" fill="#1E1E1E"/>
<path d="M148.481 599.447C149.797 601.87 149.428 604.69 147.992 607.252C146.418 610.063 147.004 611.591 148.454 613.289C151.191 616.493 152.995 620.287 151.223 625.65C149.672 630.307 146.866 634.254 143.376 638.112C141.71 635.297 139.91 632.832 138.645 629.993C136.088 624.252 137.348 618.145 141.655 612.108C144.475 608.143 147.881 604.515 148.481 599.447Z" fill="#1E1E1E"/>
<path d="M144.678 465.145C144.973 467.015 145.278 468.879 145.564 470.749C146.75 478.369 150.332 485.154 153.028 492.253C155.894 499.809 158.788 507.369 161.197 515.073C162.342 518.728 162.379 522.73 162.914 526.57L162.245 526.773C161.885 526.021 161.373 525.306 161.184 524.512C158.322 512.414 152.797 501.337 148.043 489.964C145.444 483.746 143.538 477.298 143.136 470.509C143.079 469.217 143.149 467.923 143.344 466.645C143.423 466.082 143.907 465.579 144.207 465.048L144.678 465.145Z" fill="#1E1E1E"/>
<path d="M253.24 566.579C254.076 566.006 254.943 565.48 255.737 564.857C260.094 561.405 262.352 556.974 262.158 551.329C261.964 546.035 264.272 542.891 269.81 541.027C270.424 544.834 271.292 548.541 271.555 552.293C271.758 555.27 270.23 557.892 268.089 559.946C264.064 563.82 258.812 566.166 253.24 566.579Z" fill="#1E1E1E"/>
<path d="M168.399 583.601C170.402 584.395 172.392 585.226 174.399 585.978C184.092 589.602 194.025 591.545 204.433 590.691C209.544 590.303 214.34 588.072 217.93 584.414C220.274 582.106 222.518 579.655 225.139 577.721C230.729 573.604 238.215 577.661 240.588 582.974C239.005 582.097 237.565 581.215 236.055 580.486C231.44 578.266 227.143 578.69 223.261 582.134C222.284 582.991 221.359 583.907 220.491 584.875C215.668 590.326 209.571 593.045 202.352 593.253C191.445 593.571 181.12 591.069 171.288 586.468C170.116 585.914 169.087 585.051 167.988 584.331L168.399 583.601Z" fill="#1E1E1E"/>
<path d="M43.0429 598.279C41.4782 600.476 40.135 602.719 38.4273 604.635C37.1804 605.941 35.7053 607.007 34.0747 607.783C32.7638 608.443 31.1945 608.65 29.7175 608.927C26.0642 609.528 22.6872 611.247 20.0523 613.848C19.0277 604.893 33.2762 595.464 43.0429 598.279Z" fill="#1E1E1E"/>
<path d="M148.721 561.502C148.158 554.181 147.733 546.482 146.935 538.82C146.063 530.443 143.704 524.512 138.867 515.862C139.588 516.672 140.265 517.521 140.893 518.405C145.356 525.366 148.115 533.28 148.947 541.507C149.649 548.37 149.224 555.354 151.463 562.088L147.54 564.049C146.233 560.952 144.53 558.049 143.796 554.943C142.301 548.555 141.419 542.019 140.104 535.594C139.051 530.438 137.731 525.343 136.531 520.219C136.471 519.975 136.43 519.721 136.379 519.471L136.979 519.255C138.142 522.329 139.711 525.319 140.39 528.486C141.775 534.911 142.375 541.507 143.824 547.913C144.816 552.284 146.681 556.461 148.19 560.717C148.3 561.018 148.482 561.288 148.721 561.502Z" fill="#1E1E1E"/>
<path d="M120.207 574.375L131.64 576.632L131.769 576.05C126.761 573.705 121.785 571.287 116.731 569.039C111.534 566.731 106.346 564.345 100.992 562.443C95.7254 560.569 90.2605 559.263 84.4355 557.578C91.0498 556.651 137.442 573.036 140.202 577.047C135.54 579.133 122.856 577.204 120.207 574.375Z" fill="#1E1E1E"/>
<path d="M210.523 526.326C209.208 530.863 208.367 535.059 204.213 537.565C200.059 540.071 196.911 543.528 194.114 547.419C192.974 549.016 191.723 550.54 190.523 552.095L189.965 551.906C190.103 551.32 190.094 550.632 190.426 550.161C191.811 548.047 193.454 546.076 194.742 543.898C195.961 541.95 196.93 539.856 197.627 537.666C198.698 533.909 200.156 530.425 203.683 528.491C205.617 527.434 207.961 527.11 210.523 526.326Z" fill="#1E1E1E"/>
<path d="M144.727 587.271C143.944 587.852 143.125 588.383 142.276 588.863C133.706 592.992 126.355 599.276 120.943 607.1C116.203 613.903 111.361 620.637 106.501 627.358C105.359 628.92 103.971 630.287 102.393 631.406C103.043 630.533 103.74 629.684 104.345 628.779C109.247 621.422 114.162 614.074 119.018 606.689C124.88 597.73 132.639 591.028 142.613 586.994C143.216 586.816 143.834 586.697 144.46 586.638L144.727 587.271Z" fill="#1E1E1E"/>
<path d="M89.8442 553.447C94.1645 554.37 98.5124 555.155 102.796 556.217C116.066 559.535 128.251 565.448 140.076 572.164C141.087 572.736 141.613 573.29 140.792 574.375C132.571 570.221 124.522 565.753 116.112 562.083C107.665 558.354 98.7705 555.735 89.6504 554.292L89.8442 553.447Z" fill="#1E1E1E"/>
<path d="M210.297 534.574C210.994 533.263 211.714 531.962 212.392 530.641C213.879 527.757 214.529 524.881 213.486 521.558C212.102 517.214 213.652 513.042 216.92 510.762C217.283 510.556 217.657 510.373 218.042 510.213C218.407 513.67 219.062 516.928 217.096 519.905C216.297 521.124 216.094 522.213 216.773 523.538C217.696 525.273 217.17 526.898 216.108 528.357C214.673 530.341 213.159 532.266 211.645 534.191C211.353 534.463 211.024 534.692 210.666 534.869L210.297 534.574Z" fill="#1E1E1E"/>
<path d="M160.853 563.754C160.632 563.2 160.101 562.549 160.24 562.106C164.998 546.875 171.096 532.432 184.559 522.541C185.077 522.126 185.679 521.83 186.323 521.673C172.863 532.571 166.263 547.484 161.726 563.611L160.853 563.754Z" fill="#1E1E1E"/>
<path d="M158.486 591.877C160.143 591.056 161.117 590.954 161.782 592.57C166.158 603.398 170.159 614.332 171.475 626.029C171.742 628.406 171.512 630.838 171.262 633.252C170.681 626.033 169.254 618.907 167.011 612.02C164.842 605.115 162.645 598.192 158.486 591.877Z" fill="#1E1E1E"/>
<path d="M212.869 579.337C208.862 579.337 204.824 579.623 200.868 579.277C191.355 578.455 181.861 577.716 172.311 578.556C171.605 578.621 170.885 578.556 170.169 578.556L170.059 577.841C171.443 577.541 172.828 576.987 174.213 576.973C181.058 576.923 187.917 576.812 194.757 577.121C200.808 577.398 206.836 578.192 212.873 578.76C212.855 578.958 212.864 579.147 212.869 579.337Z" fill="#1E1E1E"/>
<path d="M162.729 563.597C168.577 556.554 171.498 548.029 175.191 539.873C176.34 537.32 177.997 534.999 179.423 532.575L179.885 532.838C176.252 541.216 172.703 549.63 168.937 557.948C168.013 559.969 166.458 561.714 165.069 563.486C164.686 563.976 163.855 564.114 163.222 564.41L162.729 563.597Z" fill="#1E1E1E"/>
<path d="M169.832 580.652C171.475 580.73 173.146 580.652 174.752 580.915C183.947 582.494 193.146 584.04 202.525 583.823C205.663 583.749 208.797 583.523 211.83 583.361C206.07 586.555 174.831 584.289 169.832 580.652Z" fill="#1E1E1E"/>
<path d="M175.505 613.936C174.541 612.057 173.479 610.243 172.63 608.3C170.151 602.879 166.956 597.815 163.131 593.244C162.568 592.551 162.443 591.503 162.115 590.622C162.997 591.06 164.109 591.287 164.714 591.97C170.331 598.284 173.331 605.937 175.99 613.76L175.505 613.936Z" fill="#1E1E1E"/>
<path d="M200.424 571.448C197.798 571.767 195.172 572.118 192.541 572.399C188.184 572.861 183.771 573.092 179.469 573.784C176.931 574.185 174.498 575.284 172.015 576.055C171.318 576.272 170.607 576.438 169.901 576.632L169.439 576.069C170.016 575.529 170.51 574.684 171.18 574.504C175.278 573.465 179.372 572.196 183.545 571.735C189.111 571.125 194.752 571.195 200.355 570.973L200.424 571.448Z" fill="#1E1E1E"/>
<path d="M162.756 616.857C162.202 613.7 161.869 610.478 161.029 607.395C160.106 604.058 158.722 600.85 157.554 597.578C156.866 595.648 155.8 593.779 156.211 591.545C159.363 592.27 164.186 610.88 162.756 616.857Z" fill="#1E1E1E"/>
<path d="M145.425 566.556C144.77 565.552 144.178 564.508 143.653 563.431C142.037 559.614 140.495 555.769 138.972 551.92C138.876 551.613 138.847 551.29 138.886 550.972C138.925 550.654 139.031 550.347 139.198 550.073C139.863 551.596 140.472 553.152 141.211 554.643C142.665 557.574 144.031 560.565 145.753 563.334C146.62 564.742 146.616 565.582 145.411 566.565C145.406 566.556 145.425 566.556 145.425 566.556Z" fill="#1E1E1E"/>
<path d="M1362.66 484.675C1362.27 480.653 1363.75 477.201 1366.11 474.071C1367.08 472.775 1368.2 471.579 1369.53 470.034L1355.97 474.812C1352.94 468.147 1356.46 463.459 1361.59 459.351C1361.4 459.214 1361.32 459.109 1361.24 459.106C1360.77 459.076 1360.29 459.078 1359.81 459.075C1354.65 459.051 1349.59 457.571 1345.23 454.805C1344.53 454.363 1343.98 453.974 1344.25 452.934C1344.92 450.622 1346.34 448.6 1348.29 447.195C1350.24 445.79 1352.61 445.084 1355.01 445.191C1355.64 445.229 1356.26 445.289 1356.88 445.342C1354.95 443.372 1352.98 441.667 1351.4 439.677C1349.76 437.631 1348.52 435.281 1348.67 432.584C1350.66 432.259 1352.51 432.131 1354.28 431.653C1361.21 429.778 1367.52 431.009 1373.51 434.871C1377.64 437.537 1381.95 439.903 1386.19 442.387C1386.61 442.596 1387.04 442.772 1387.49 442.914L1387.76 442.504C1387.46 442.132 1387.13 441.784 1386.78 441.463C1384.69 439.853 1382.57 438.273 1380.47 436.671C1376.53 433.663 1372.51 430.797 1369.12 427.08C1365.38 423.006 1364.36 417.551 1361.24 412.944C1368.33 412.428 1373.64 415.785 1378.31 420.145C1379.03 418.189 1379.52 416.349 1380.34 414.667C1382.28 410.72 1383.98 406.776 1382.62 402.068C1383.74 402.447 1384.8 403.012 1385.74 403.74C1389.63 407.031 1392.09 411.715 1392.57 416.79C1393.1 421.709 1392.98 426.702 1393.2 431.654C1393.3 433.968 1393.47 436.283 1393.72 438.598C1393.77 439.015 1394.33 439.396 1394.66 439.787L1395.06 439.508C1394.9 432.168 1396.54 425.13 1398.55 418.146C1399.85 413.609 1402.11 409.684 1405.61 406.503C1407.79 404.52 1410 402.569 1412.33 400.477C1412.61 400.845 1413.12 401.276 1413.33 401.824C1414.22 404.236 1415.44 406.624 1415.77 409.125C1416.55 415.084 1414.72 420.71 1412.18 425.952C1409.95 430.548 1407.02 434.812 1404.4 439.215C1404.1 439.721 1403.85 440.253 1403.56 440.777L1403.95 441.022L1421.54 416.845C1421.12 419.742 1419.66 422.173 1418.14 424.54C1416.63 426.906 1414.92 429.059 1413.3 431.306C1414.92 430.645 1416.33 429.814 1417.79 429.083C1422.73 426.615 1425.11 422.282 1426.02 417.152C1426.3 415.748 1426.27 414.301 1425.94 412.909C1425.62 411.596 1425.06 410.353 1424.29 409.241C1423.59 408.174 1422.8 407.015 1421.33 406.32C1421.23 406.272 1421.15 406.241 1421.1 406.216C1420.58 406.375 1420.1 406.608 1419.65 406.908C1418.98 407.373 1418.42 407.972 1417.99 408.666C1417.74 409.073 1417.52 409.496 1417.32 409.932C1416.7 411.22 1415.95 412.437 1415.31 413.704C1415.3 413.717 1415.28 413.769 1415.26 413.766C1415.15 413.749 1415.32 412.171 1415.57 410.169C1416.81 407.687 1418.13 406.491 1419.14 405.873C1419.57 405.606 1421.43 404.537 1421.43 404.537C1421.43 404.537 1423.41 406.063 1423.57 406.191C1425.28 407.533 1427.04 411.063 1427.5 414.618C1428.22 420.232 1425.54 424.523 1424.72 425.735L1438.81 426.67C1438.47 432.005 1433.67 433.53 1430.2 436.203C1431.41 436.402 1432.49 436.538 1433.56 436.77C1437.89 437.7 1441.88 439.236 1444.58 443.049C1445.2 443.921 1445.11 444.465 1444.13 444.872C1442.23 445.666 1440.37 446.574 1438.42 447.221C1438.18 447.297 1429.66 450.55 1426.29 450.253C1424.83 450.368 1425.99 449.732 1425.75 449.292C1428.18 449.435 1440.36 445.004 1443.29 443.729C1440.8 440.979 1438.19 439.353 1435.05 438.799C1430.26 437.957 1425.58 438.369 1421.14 440.515C1417.29 442.381 1413.41 444.179 1409.54 446.007C1408.93 446.294 1408.37 446.655 1407.79 446.983L1407.87 447.452C1408.48 447.448 1409.08 447.398 1409.67 447.304C1414.41 446.228 1419.11 444.961 1423.87 444.066C1427.01 443.486 1430.27 443.42 1433.47 443.145C1434.19 443.084 1434.92 443.083 1435.64 443.057L1435.52 443.68C1431.39 444.467 1427.26 445.173 1423.13 446.06C1419 446.947 1414.97 447.961 1410.89 448.922L1410.96 449.315C1411.52 449.339 1412.08 449.333 1412.63 449.295C1414.98 448.971 1417.36 448.834 1419.73 448.883C1423.57 449.03 1427.38 449.41 1431.21 449.838C1432.83 450.03 1434.46 450.178 1436.07 450.426C1437.53 450.691 1438.94 451.141 1440.29 451.765C1440.62 451.911 1440.96 452.058 1441.28 452.216C1442.95 452.964 1444.46 454.026 1445.72 455.344C1446.11 455.761 1446.49 456.868 1446.3 457.034C1445.17 458.058 1445.97 458.849 1446.45 459.681C1450.78 467.116 1463.79 472.013 1472.52 462.269C1475.97 458.428 1477.77 454.45 1475.38 449.306C1473.8 445.895 1473.93 442.201 1474.5 438.543C1474.64 437.638 1474.89 436.75 1475.13 435.688C1476.01 436.132 1476.7 436.416 1477.31 436.796C1483.87 440.741 1486.04 447.045 1483.22 454.113C1481.01 459.626 1477.04 463.61 1472.06 466.718C1462.34 472.801 1449.31 469.477 1443.73 459.444C1443.51 459.041 1443.23 458.668 1442.92 458.198C1440.71 459.265 1438.58 460.299 1436.44 461.323C1434.3 462.346 1432.13 463.376 1429.87 464.452C1432.91 465.806 1435.39 467.707 1436.84 470.712C1437.63 472.29 1438.02 474.04 1437.97 475.805C1437.94 477.209 1437.43 478.561 1436.52 479.629C1436.48 479.679 1436.43 479.718 1436.37 479.742C1436.32 479.755 1436.28 479.759 1436.23 479.754C1434.16 479.744 1432.09 479.565 1430.05 479.22C1428.9 478.992 1427.77 478.686 1426.66 478.304C1426.44 478.245 1426.24 478.14 1426.07 477.994C1425.93 477.845 1425.83 477.67 1425.75 477.48C1425.53 476.972 1425.31 476.478 1425.07 475.964C1425.34 476.137 1425.64 476.258 1425.95 476.324C1428.06 476.891 1430.19 477.323 1432.35 477.616C1433.08 477.727 1433.82 477.786 1434.56 477.793C1434.84 477.798 1435.12 477.768 1435.39 477.706C1435.49 477.688 1435.58 477.644 1435.66 477.577C1435.71 477.51 1435.75 477.433 1435.77 477.351C1436.09 476.54 1436.28 475.683 1436.33 474.812C1436.35 473.233 1435.98 471.674 1435.23 470.28C1435.06 469.964 1434.87 469.661 1434.66 469.374C1434.46 469.105 1434.2 468.873 1434 468.604C1431.58 466.236 1428.5 465.129 1425.33 464.141C1423.85 463.791 1422.41 463.282 1421.04 462.624L1410.21 458.074C1410.16 458.053 1410.06 458.151 1410.02 458.178C1411.1 459.003 1412.55 460.185 1414.2 461.696C1417.55 464.814 1420.57 468.261 1423.23 471.985C1423.23 471.985 1428.01 478.581 1428.5 482.892C1428.63 483.995 1428.5 485.112 1428.12 486.153C1427.95 486.535 1427.75 486.899 1427.51 487.237C1423.8 486.748 1420.25 485.454 1417.1 483.445C1413.94 481.436 1411.27 478.761 1409.26 475.608C1408.36 474.31 1407.71 473.23 1407.31 472.545C1404.9 468.419 1403.77 466.389 1401.64 462.821C1401.38 462.469 1401.09 462.143 1400.77 461.844L1400.39 462.032C1400.49 462.613 1400.63 463.185 1400.81 463.745C1402.27 467.427 1403.78 471.095 1405.26 474.771C1407.51 480.331 1408.66 485.985 1406.93 491.955C1406.21 494.41 1405.22 496.975 1407.63 499.361C1406.91 499.525 1406.26 499.689 1405.78 499.463C1404.55 498.879 1403.26 498.292 1402.26 497.407C1398.48 494.065 1396.62 489.703 1395.94 484.769C1395.72 483.148 1395.54 481.541 1395.34 479.925C1393.22 487.702 1388.52 493.54 1382.18 498.414C1381.91 497.964 1381.33 497.387 1381.22 496.732C1380.98 495.285 1380.88 493.818 1380.91 492.352C1381.01 488.171 1381.21 483.989 1381.37 479.466C1378.72 482.516 1375.92 484.586 1372.08 485.02C1369.78 485.279 1367.52 485.895 1365.27 486.46C1363.29 486.989 1362.85 486.755 1362.66 484.675ZM1359.73 462.085C1356.77 464.989 1355.86 468.507 1356.7 472.405C1361.47 471.036 1366.12 469.889 1370.65 468.346C1372.75 467.637 1374.69 466.313 1376.53 465.015C1379.64 462.812 1382.62 460.409 1385.66 458.089C1377.83 460.595 1370.98 465.579 1362.9 467.414L1362.69 466.964L1382.99 456.457L1382.9 456.143C1382.04 456.193 1381.15 456.259 1380.29 456.344C1376.82 456.631 1373.32 456.748 1369.89 457.261C1366.03 457.798 1362.54 459.328 1359.72 462.092L1359.73 462.085ZM1347.28 450.974C1345.96 452.83 1346.09 453.295 1348.28 454.387C1353.41 456.94 1359.22 457.816 1364.88 456.889C1368.96 456.228 1373.08 455.8 1377.18 455.229C1379.35 454.916 1381.52 454.542 1383.69 454.192L1383.62 453.799C1383.52 453.774 1383.42 453.712 1383.33 453.733C1377.58 454.993 1371.97 453.877 1366.38 452.671C1361.45 451.607 1356.53 451.357 1351.62 452.698C1351.55 452.729 1351.46 452.743 1351.38 452.737C1351.3 452.732 1351.22 452.708 1351.15 452.668C1351.68 451.908 1352.39 451.291 1353.22 450.869C1354.04 450.448 1354.96 450.236 1355.88 450.253C1359.1 450.301 1362.3 450.557 1365.48 451.02C1368.19 451.433 1370.83 452.303 1373.48 452.972C1377.31 453.968 1380.82 452.455 1384.45 451.845L1384.52 451.346C1383.97 451.214 1383.41 450.957 1382.87 450.978C1374.88 451.301 1367.43 448.724 1359.88 446.716C1354.51 445.316 1350.33 446.681 1347.27 450.981L1347.28 450.974ZM1382.62 442.397C1381.34 441.59 1380.06 440.772 1378.75 439.98C1376 438.314 1373.25 436.641 1370.46 435.026C1366.94 432.903 1362.79 432.07 1358.72 432.669C1355.9 433.084 1353.11 433.524 1350.09 433.991C1350.19 434.6 1350.35 435.199 1350.56 435.78C1352.69 440.331 1355.61 444.189 1360.72 445.558C1367.66 447.422 1374.62 449.269 1381.92 448.889C1385.04 448.743 1385.04 448.811 1385.6 445.37C1379.37 442.861 1373.23 440.387 1367.08 437.914C1372.55 438.324 1377.41 440.876 1382.62 442.397ZM1368.07 415.206C1367.56 414.976 1366.95 414.978 1366.04 414.804C1366.03 416.042 1365.92 417.132 1366.04 418.166C1366.43 421.406 1368.36 423.871 1370.27 426.358C1373.57 430.679 1378.12 433.465 1382.65 436.384C1379.21 431.615 1375.78 426.844 1372.35 422.07L1372.99 421.64C1374.04 422.802 1375.16 423.904 1376.11 425.148C1378.23 427.917 1380.17 430.822 1382.37 433.523C1384.39 436.008 1386.66 438.302 1388.83 440.675C1388.98 440.815 1389.16 440.921 1389.36 440.987C1389.43 441.013 1389.54 440.922 1389.85 440.793C1389.27 440.145 1388.77 439.524 1388.21 438.952C1385.25 435.872 1383.47 432.092 1382.05 428.162C1379.61 421.387 1374.13 417.995 1368.07 415.206ZM1390.97 434.463C1390.99 433.812 1390.97 433.16 1391.03 432.515C1391.3 428.99 1391.77 425.471 1391.83 421.945C1391.91 417.365 1390.59 412.869 1388.05 409.062C1387.31 407.951 1386.35 406.993 1385.47 405.932C1384.15 409.666 1382.92 413.116 1381.74 416.586C1381.56 417.195 1381.49 417.836 1381.56 418.47C1382.14 425.501 1383.85 432.118 1388.87 437.431C1389.57 438.138 1390.39 438.711 1391.3 439.121C1389.92 435.695 1387.59 432.727 1387.3 428.431L1390.37 434.595L1390.97 434.463ZM1407.88 444.586C1415.15 442.323 1422.07 439.035 1428.42 434.82C1430.57 433.379 1432.84 432.117 1434.97 430.642C1435.77 430.085 1436.33 429.156 1437.31 428.057C1436.15 427.995 1435.54 427.961 1434.93 427.935C1433.4 427.878 1431.83 427.983 1430.34 427.75C1422.28 426.582 1416.06 430.064 1410.59 435.389C1408.63 437.297 1407.01 439.555 1405.28 441.686C1405.03 441.993 1405.01 442.514 1404.91 442.919C1405.32 442.873 1405.81 442.931 1406.16 442.742C1409.74 440.814 1413.28 438.818 1416.86 436.909C1417.67 436.51 1418.57 436.333 1419.48 436.396L1405.96 444.312C1406.05 444.506 1406.12 444.699 1406.2 444.892C1406.77 444.827 1407.32 444.725 1407.88 444.586ZM1424.6 462.494C1427.23 463.7 1429.72 463.246 1432.18 461.915C1435.98 459.861 1439.81 457.882 1443.76 455.805C1443.4 455.508 1442.9 454.857 1442.25 454.592C1439.96 453.651 1437.68 452.343 1435.3 452.093C1428 451.331 1420.72 450.193 1413.35 450.741C1411.98 450.842 1410.6 451.044 1409.24 451.134C1408.25 451.186 1407.94 451.629 1408.23 452.74L1427.66 456.601C1420.98 456.945 1414.51 455.216 1407.93 454.855C1413.48 457.402 1419.04 459.949 1424.6 462.494ZM1402.26 439.109C1405.06 434.827 1408.21 430.714 1410.53 426.178C1412.97 421.372 1414.17 416.041 1414.33 410.582C1414.42 407.774 1413.43 405.225 1412.18 402.739C1406.28 406.937 1401.63 412.034 1400.17 419.191C1398.94 425.286 1398.3 431.505 1397.41 437.671C1397.35 437.93 1397.36 438.2 1397.43 438.457C1397.62 438.898 1397.84 439.327 1398.09 439.742C1398.43 439.454 1398.73 439.135 1399.01 438.788C1402.72 433.088 1405.88 427.142 1407.73 420.561C1407.81 420.34 1407.92 420.13 1408.05 419.934C1408.09 427.512 1403.98 433.534 1400.7 439.878L1401.12 440.178C1401.54 439.875 1401.93 439.523 1402.26 439.13L1402.26 439.109ZM1409.32 472.971C1411.81 476.589 1414.16 479.993 1418.5 482.466C1418.5 482.466 1419.59 483.081 1426.89 486.106C1426.88 485.943 1426.88 485.778 1426.91 485.616C1427.02 485.049 1426.99 484.31 1426.75 482.858C1426.51 481.475 1426.05 480.139 1425.39 478.898C1422.72 473.778 1418.81 469.564 1414.96 465.372C1412.84 463.067 1410.23 461.2 1407.78 459.216C1407.21 458.756 1406.36 458.596 1405.64 458.297C1408.02 462.965 1411.69 466.628 1413.41 471.476C1411.92 469.826 1410.63 468.043 1409.24 466.334C1407.6 464.328 1405.93 462.352 1404.19 460.443C1403.84 460.072 1403.1 460.069 1402.54 459.906L1402.34 460.391C1402.5 460.715 1402.65 461.047 1402.82 461.362C1404.84 464.973 1406.91 469.482 1409.31 472.973L1409.32 472.971ZM1402.24 458.774C1406.88 455.151 1407.5 450.009 1403.87 445.275C1400.31 440.615 1394.18 439.624 1389.86 442.99C1385.31 446.529 1384.47 452.552 1387.87 457.086C1391.09 461.363 1397.9 462.161 1402.24 458.776L1402.24 458.774ZM1401.74 494.641C1402.37 495.346 1403.08 495.988 1403.77 496.639C1403.96 496.781 1404.17 496.899 1404.39 496.991C1405.49 491.303 1406.92 485.653 1405 479.953C1403.09 474.254 1400.94 468.517 1398.85 462.816C1398.75 462.54 1398.26 462.409 1397.94 462.214C1397.74 462.538 1397.4 462.847 1397.38 463.17C1397.18 468.76 1396.87 474.352 1396.89 479.94C1396.9 485.311 1397.95 490.465 1401.73 494.643L1401.74 494.641ZM1382.53 484.237C1382.51 487.347 1382.31 490.46 1382.23 493.572C1382.21 494.485 1382.34 495.402 1382.41 496.317L1382.91 496.489C1384.52 494.703 1386.28 493.023 1387.7 491.108C1393.64 482.949 1397.01 473.982 1395.79 463.698C1395.66 463.129 1395.32 462.63 1394.84 462.301C1393.68 469.9 1391.55 477.317 1388.5 484.368C1389.55 477.013 1391.86 469.889 1392.77 462.512L1392.36 462.376C1392.15 462.64 1391.94 462.915 1391.75 463.2C1389.66 466.807 1387.63 470.447 1385.48 474.018C1383.57 477.089 1382.55 480.627 1382.53 484.242L1382.53 484.237ZM1372.04 483.786C1373.37 483.665 1375.01 483.225 1375.91 482.325C1381.54 476.681 1386.31 470.377 1389.53 463.006C1389.75 462.498 1389.88 461.951 1390.16 461.076C1379.96 471.557 1376.62 474.263 1373.18 474.856C1375.6 472.811 1378.01 470.979 1380.18 468.891C1382.76 466.411 1385.19 463.723 1387.59 461.079C1387.91 460.726 1387.82 460.006 1387.94 459.47C1387.38 459.553 1386.68 459.455 1386.28 459.749C1380.84 463.759 1375.32 467.674 1370.08 471.95C1368.13 473.539 1366.71 475.863 1365.29 477.99C1364.74 478.827 1364.38 479.775 1364.23 480.766C1364.08 481.758 1364.15 482.769 1364.44 483.73C1367.1 483.779 1369.59 483.991 1372.04 483.791L1372.04 483.786Z" fill="#1E1E1E"/>
<path d="M1399.14 448.702C1398.87 448.325 1398.53 448.008 1398.13 447.768C1397.74 447.528 1397.3 447.37 1396.84 447.305C1396.38 447.239 1395.91 447.267 1395.46 447.387C1395.02 447.507 1394.6 447.715 1394.23 448.001C1392.75 449.131 1392.52 451.523 1393.7 453.164C1394.74 454.608 1396.82 454.856 1398.36 453.717C1400.06 452.447 1400.38 450.363 1399.14 448.702Z" fill="#1E1E1E"/>
<path fill-rule="evenodd" clip-rule="evenodd" d="M879.795 664.775C879.657 664.83 879.52 664.885 879.383 664.942C879.152 665.02 878.942 665.147 878.77 665.315C878.634 665.485 878.535 665.68 878.476 665.89C878.281 666.452 878.091 667 877.886 667.569C878.163 667.366 878.478 667.215 878.814 667.124C878.817 667.123 878.821 667.122 878.824 667.121C879.131 666.444 879.432 665.732 879.707 665.01C879.737 664.932 879.766 664.854 879.795 664.775ZM874.431 736.666C874.548 737.655 874.605 738.657 874.593 739.671C874.592 739.67 874.591 739.669 874.591 739.668C874.478 739.499 874.365 739.323 874.252 739.141C873.771 736.998 873.429 735.308 873.549 735.282C873.562 735.279 873.575 735.298 873.587 735.316C873.595 735.328 873.603 735.34 873.611 735.345C873.873 735.763 874.145 736.175 874.421 736.585C874.425 736.612 874.428 736.639 874.431 736.666ZM874.773 737.106C874.773 737.106 874.773 737.106 874.773 737.106ZM881.847 695.219C882.943 695.057 884.578 695.21 886.338 695.505C886.259 695.518 886.18 695.532 886.101 695.545C884.586 695.801 883.069 696.048 881.551 696.275C881.549 696.275 881.546 696.275 881.544 696.275C881.478 696.278 881.416 696.282 881.359 696.289C881.442 696.108 881.311 695.909 881.194 695.733C880.997 695.435 880.841 695.2 881.847 695.219ZM935.681 704.682C934.882 704.166 934.105 703.696 933.562 703.532C933.146 703.257 932.87 703.151 932.99 703.522C933.12 703.447 933.317 703.458 933.562 703.532C933.795 703.686 934.071 703.893 934.347 704.099C935.082 704.65 935.812 705.196 935.691 704.723C935.687 704.71 935.684 704.696 935.681 704.682Z" fill="#1E1E1E"/>
<path fill-rule="evenodd" clip-rule="evenodd" d="M808.843 662.218C808.834 666.581 810.807 670.208 813.695 673.431C814.893 674.765 816.233 675.983 817.851 677.562L802.547 673.288C799.925 680.673 804.246 685.5 810.271 689.598C810.077 689.758 810.001 689.876 809.916 689.884C809.405 689.947 808.878 689.977 808.357 690.011C802.721 690.371 797.356 692.294 792.879 695.56C792.155 696.083 791.592 696.538 792 697.641C792.96 700.092 794.719 702.18 796.995 703.569C799.271 704.957 801.929 705.566 804.542 705.295C805.22 705.214 805.895 705.108 806.564 705.011C804.659 707.26 802.688 709.227 801.159 711.475C799.584 713.788 798.466 716.403 798.904 719.302C801.111 719.523 803.144 719.541 805.126 719.943C812.883 721.516 819.651 719.779 825.8 715.226C830.038 712.084 834.497 709.253 838.872 706.299C839.308 706.047 839.763 705.829 840.235 705.646L840.575 706.071C840.286 706.492 839.963 706.888 839.609 707.257C837.492 709.129 835.344 710.97 833.214 712.834C829.219 716.333 825.123 719.685 821.798 723.913C818.137 728.549 817.584 734.498 814.649 739.668C822.437 739.765 827.894 735.801 832.551 730.796C833.53 732.859 834.257 734.812 835.329 736.572C837.85 740.703 840.108 744.846 839.103 750.013C840.294 749.53 841.389 748.852 842.341 748.007C846.255 744.205 848.453 738.996 848.465 733.491C848.533 728.152 847.893 722.775 847.629 717.42C847.496 714.917 847.449 712.41 847.487 709.897C847.489 709.445 848.07 708.997 848.386 708.554L848.852 708.829C849.433 716.755 851.94 724.24 854.849 731.641C856.737 736.45 859.607 740.536 863.757 743.74C866.341 745.737 868.952 747.698 871.709 749.803C871.978 749.388 872.494 748.89 872.66 748.286C873.388 745.627 874.48 742.972 874.579 740.254C874.586 740.059 874.591 739.865 874.593 739.671L874.591 739.668C874.478 739.499 874.365 739.323 874.252 739.141C873.771 736.998 873.429 735.308 873.549 735.282C873.562 735.279 873.575 735.298 873.587 735.316C873.595 735.328 873.603 735.34 873.611 735.345C873.873 735.763 874.145 736.175 874.421 736.585C873.805 731.512 871.608 726.776 868.93 722.34C866.029 717.527 862.397 713.118 859.076 708.54C858.698 708.014 858.368 707.456 858.008 706.91L858.407 706.62L880.085 731.554C879.328 728.458 877.484 725.93 875.587 723.477C873.691 721.023 871.608 718.812 869.605 716.493C871.444 717.101 873.07 717.906 874.74 718.6C880.391 720.941 883.425 725.46 884.953 730.933C885.394 732.43 885.511 733.991 885.296 735.514C885.08 736.951 884.599 738.328 883.875 739.577C883.211 740.773 882.471 742.074 880.936 742.918C880.838 742.977 880.751 743.016 880.694 743.046C880.117 742.908 879.561 742.688 879.044 742.393C878.266 741.935 877.586 741.327 877.049 740.606C876.735 740.183 876.448 739.741 876.191 739.283C875.745 738.54 875.259 737.822 874.773 737.106C874.656 736.932 874.538 736.759 874.421 736.585L874.431 736.666C874.548 737.655 874.605 738.657 874.593 739.671C876.079 741.905 877.511 742.984 878.595 743.543C879.093 743.803 881.23 744.836 881.23 744.836C881.23 744.836 883.232 743.061 883.394 742.913C885.128 741.355 886.684 737.434 886.82 733.571C887.04 727.469 883.666 723.016 882.647 721.761L897.935 719.84C897.021 714.109 891.624 712.775 887.561 710.117C888.856 709.824 890.031 709.607 891.173 709.288C895.804 708.005 899.999 706.089 902.562 701.803C903.147 700.822 902.992 700.241 901.882 699.866C899.725 699.133 897.597 698.274 895.401 697.702C895.218 697.656 890.441 696.194 886.338 695.505L886.101 695.545C884.586 695.801 883.069 696.048 881.551 696.275C884.601 696.154 897.823 699.994 901.085 701.152C898.648 704.28 895.967 706.202 892.59 707.003C887.446 708.221 882.296 708.08 877.222 706.053C872.827 704.291 868.408 702.603 863.995 700.883C863.305 700.612 862.65 700.26 861.981 699.943L862.031 699.432C862.687 699.398 863.347 699.412 864.005 699.475C869.29 700.329 874.553 701.391 879.848 702.047C883.335 702.469 886.9 702.33 890.42 702.419C891.216 702.437 892.012 702.392 892.8 702.372L892.601 701.708C888.009 701.127 883.426 700.634 878.828 699.945C874.231 699.256 869.727 698.424 865.174 697.651L865.212 697.222C865.817 697.16 866.426 697.131 867.036 697.136C869.637 697.333 872.244 697.328 874.831 697.121C877.078 696.901 879.314 696.609 881.544 696.275C881.478 696.278 881.416 696.282 881.359 696.289C881.442 696.108 881.311 695.909 881.194 695.733C880.997 695.435 880.841 695.2 881.847 695.219C882.943 695.057 884.578 695.21 886.338 695.505C886.646 695.453 886.955 695.4 887.264 695.347C889.012 695.035 890.783 694.77 892.514 694.398C894.077 694.018 895.578 693.441 896.98 692.681C897.331 692.501 897.683 692.321 898.023 692.13C899.765 691.215 901.3 689.972 902.546 688.47C902.93 687.994 902.818 687.556 903.01 686.609C903.201 685.662 903.332 684.063 902.897 683.745C902.462 683.427 920.567 669.322 931.104 679.264C935.261 683.184 937.636 687.357 935.551 693.059C934.175 696.827 934.686 700.788 935.681 704.682C937.104 705.603 938.595 706.673 938.945 706.426C945.703 701.746 947.42 694.807 943.614 687.368C940.64 681.565 935.893 677.526 930.139 674.497C918.899 668.567 905.013 672.996 899.957 684.176C899.755 684.625 899.197 685.573 899.197 685.573C899.197 685.573 894.236 683.588 891.797 682.623C889.358 681.657 886.885 680.687 884.308 679.673C887.489 678.016 890.004 675.805 891.278 672.471C891.978 670.717 892.22 668.805 891.982 666.906C891.812 665.392 891.114 663.967 890.008 662.875C889.961 662.824 889.902 662.785 889.836 662.763C889.786 662.752 889.734 662.751 889.683 662.759C887.422 662.904 885.182 663.231 882.986 663.735C881.9 664.018 880.835 664.365 879.795 664.775C879.766 664.854 879.737 664.932 879.707 665.01C879.432 665.732 879.131 666.444 878.824 667.121C881.056 666.374 883.34 665.771 885.661 665.316C886.449 665.149 887.251 665.038 888.059 664.982C888.363 664.959 888.67 664.973 888.973 665.022C889.083 665.035 889.189 665.077 889.279 665.144C889.344 665.212 889.394 665.293 889.427 665.38C889.859 666.234 890.155 667.146 890.303 668.082C890.486 669.784 890.232 671.489 889.564 673.041C889.413 673.392 889.235 673.731 889.033 674.055C888.836 674.358 888.584 674.625 888.387 674.928C885.985 677.639 882.745 679.031 879.382 680.303C877.801 680.777 876.281 681.418 874.85 682.217L863.494 687.825C863.444 687.851 863.325 687.752 863.271 687.726C864.364 686.767 865.835 685.396 867.483 683.66C870.817 680.081 873.765 676.168 876.281 671.979C876.281 671.979 877.594 669.833 878.824 667.121L878.814 667.124C878.478 667.215 878.163 667.366 877.886 667.569C878.091 667 878.281 666.452 878.476 665.89C878.535 665.68 878.634 665.485 878.77 665.315C878.942 665.147 879.152 665.02 879.383 664.942C879.52 664.885 879.657 664.83 879.795 664.775C880.424 663.081 880.893 661.343 880.925 659.875C880.951 658.678 880.692 657.482 880.167 656.383C879.95 655.982 879.692 655.603 879.395 655.253C875.398 656.021 871.649 657.647 868.411 660.018C865.174 662.389 862.527 665.447 860.655 668.978C859.814 670.435 859.209 671.642 858.845 672.407C856.638 677.012 855.613 679.274 853.648 683.261C853.402 683.657 853.119 684.028 852.802 684.37L852.367 684.193C852.412 683.561 852.504 682.934 852.642 682.319C853.869 678.252 855.139 674.2 856.381 670.139C858.258 663.997 858.942 657.825 856.44 651.499C855.405 648.898 854.055 646.196 856.45 643.467C855.641 643.337 854.91 643.202 854.417 643.476C853.135 644.185 851.781 644.903 850.782 645.922C846.998 649.771 845.41 654.596 845.179 659.96C845.103 661.723 845.067 663.468 845.015 665.223C841.903 656.974 836.171 650.982 828.749 646.137C828.504 646.64 827.935 647.299 827.881 648.012C827.767 649.589 827.802 651.177 827.987 652.757C828.522 657.259 829.169 661.757 829.806 666.624C826.605 663.506 823.337 661.455 819.094 661.236C816.56 661.106 814.028 660.588 811.517 660.124C809.299 659.682 808.844 659.962 808.843 662.218ZM803.592 675.837C803.079 680.094 804.436 683.829 807.963 686.77L807.954 686.763C811.31 689.561 815.275 690.986 819.547 691.314C823.342 691.646 827.183 691.544 831.001 691.629C831.951 691.665 832.93 691.678 833.871 691.677L833.939 691.332L810.692 681.316L810.874 680.818C819.887 682.273 827.882 687.204 836.683 689.4C833.129 687.095 829.631 684.695 826.001 682.522C823.865 681.241 821.612 679.939 819.246 679.31C814.142 677.939 808.947 677.004 803.592 675.837ZM796.245 695.813C793.97 697.133 793.874 697.642 795.509 699.559L795.499 699.552C799.276 703.991 803.979 705.192 809.701 703.335C817.737 700.68 825.606 697.419 834.365 697.25C834.961 697.237 835.546 696.923 836.131 696.745L836.007 696.212C831.98 695.789 827.992 694.385 823.904 695.708C821.088 696.6 818.286 697.71 815.372 698.331C811.949 699.036 808.476 699.52 804.974 699.78C803.964 699.857 802.942 699.688 801.998 699.287C801.054 698.887 800.216 698.267 799.559 697.482C799.632 697.433 799.716 697.402 799.805 697.392C799.893 697.381 799.984 697.39 800.07 697.419C805.567 698.547 810.913 697.958 816.184 696.492C822.171 694.828 828.175 693.262 834.587 694.248C834.683 694.266 834.793 694.192 834.894 694.158L834.932 693.729C832.528 693.493 830.118 693.231 827.717 693.033C823.181 692.683 818.64 692.488 814.112 692.04C807.839 691.408 801.589 692.728 796.245 695.813ZM830.999 709.376C832.346 708.437 833.654 707.473 834.977 706.519C829.435 708.498 824.395 711.564 818.463 712.361L818.469 712.358C824.926 709.294 831.383 706.229 837.925 703.12C836.956 699.446 836.97 699.519 833.546 699.564C825.532 699.627 818.119 702.069 810.732 704.529C805.296 706.337 802.508 710.686 800.646 715.732C800.476 716.372 800.365 717.028 800.315 717.692C803.655 718.001 806.755 718.294 809.874 718.559C814.378 718.941 818.824 717.774 822.452 715.256C825.33 713.335 828.162 711.352 830.999 709.376ZM819.692 737.351C820.674 737.104 821.343 737.067 821.868 736.786C828.201 733.385 833.836 729.373 835.804 721.909C836.958 717.578 838.516 713.386 841.434 709.872C841.979 709.22 842.468 708.517 843.03 707.781C842.679 707.662 842.545 707.571 842.477 707.604C842.269 707.687 842.083 707.813 841.931 707.975C839.805 710.674 837.559 713.295 835.605 716.106C833.482 719.161 831.66 722.42 829.635 725.543C828.725 726.946 827.61 728.208 826.579 729.529L825.843 729.106C829.1 723.736 832.359 718.368 835.619 713.003C830.976 716.444 826.288 719.743 823.127 724.617L823.026 724.773C821.23 727.526 819.44 730.271 819.349 733.726C819.326 734.848 819.556 736.017 819.692 737.351ZM845.164 716.632C845.039 715.94 844.988 715.236 844.906 714.535L844.231 714.432L841.511 721.278C841.388 716.626 843.632 713.274 844.784 709.49C843.839 709.991 843 710.662 842.311 711.47C837.373 717.525 836.18 724.772 836.263 732.393C836.259 733.081 836.393 733.767 836.66 734.412C838.302 738.078 840.002 741.719 841.818 745.66C842.677 744.459 843.627 743.363 844.313 742.118C846.704 737.847 847.684 732.913 847.122 727.98C846.699 724.18 845.821 720.417 845.164 716.632ZM885.762 711.724C878.396 707.59 870.504 704.491 862.325 702.523C861.709 702.409 861.089 702.335 860.466 702.301C860.398 702.515 860.335 702.728 860.267 702.942L875.832 710.603C874.853 710.73 873.849 710.597 872.921 710.22C868.813 708.393 864.743 706.47 860.643 704.622C860.244 704.44 859.713 704.535 859.258 704.512C859.411 704.942 859.48 705.503 859.783 705.818C861.891 708.005 863.896 710.334 866.231 712.265C872.744 717.654 879.903 721.005 888.58 719.224C890.182 718.877 891.905 718.888 893.57 718.727C894.235 718.659 894.9 718.583 896.162 718.441C894.971 717.32 894.272 716.354 893.335 715.806C890.864 714.353 888.258 713.138 885.762 711.724ZM887.087 682.26C884.262 680.984 881.504 680.655 878.749 682.126C872.94 685.231 867.135 688.338 861.334 691.445C868.482 690.629 875.365 688.346 882.696 688.284L861.88 693.706C861.674 694.923 862.058 695.381 863.149 695.373C864.644 695.381 866.163 695.51 867.668 695.53C875.78 695.643 883.613 693.945 891.504 692.65C894.078 692.226 896.433 690.668 898.832 689.505C899.52 689.176 899.996 688.443 900.36 688.099C895.827 686.115 891.451 684.229 887.087 682.26ZM867.105 722.203C864.112 717.461 860.256 713.23 856.754 708.793L856.755 708.77C856.346 708.368 855.893 708.014 855.404 707.713L854.969 708.066C859.202 714.694 864.312 720.922 865.041 729.098C864.878 728.894 864.739 728.675 864.624 728.442C861.934 721.464 857.869 715.257 853.239 709.349C852.903 708.993 852.534 708.669 852.137 708.381C851.909 708.844 851.711 709.321 851.544 709.809C851.494 710.091 851.516 710.383 851.609 710.658C853.215 717.25 854.543 723.916 856.519 730.408C858.837 738.033 864.437 743.229 871.31 747.374C872.425 744.612 873.248 741.798 872.858 738.776C872.118 732.899 870.269 727.227 867.105 722.203ZM870.043 660.983C865.555 663.931 863.338 667.754 860.99 671.818L860.986 671.816C858.716 675.736 856.919 680.733 855.089 684.757C854.932 685.109 854.801 685.477 854.657 685.837L854.933 686.346C855.522 686.135 856.336 686.082 856.671 685.661C858.38 683.489 860.007 681.249 861.581 678.981C862.925 677.047 864.155 675.04 865.616 673.165C864.236 678.505 860.603 682.692 858.474 687.881C859.231 687.512 860.145 687.284 860.721 686.751C863.199 684.452 865.856 682.269 867.933 679.647L868.108 679.426C871.826 674.728 875.576 669.992 877.935 664.384C878.527 663.004 878.89 661.533 879.013 660.026C879.131 658.444 879.08 657.645 878.909 657.04C878.86 656.868 878.836 656.69 878.837 656.513C871.168 660.249 870.043 660.983 870.043 660.983ZM857.876 702.039C861.359 696.699 860.157 691.194 854.721 687.586L854.718 687.584C849.635 684.215 842.28 685.517 839.205 690.338C835.947 695.448 837.487 701.889 842.813 705.411C847.875 708.762 854.467 707.296 857.876 702.039ZM852.508 646.652C851.822 647.398 851.117 648.138 850.494 648.939L850.491 648.937C846.784 653.688 846.173 659.313 846.702 665.108C847.255 671.135 848.166 677.145 848.966 683.16C849.013 683.508 849.422 683.819 849.674 684.155C849.998 683.925 850.519 683.751 850.603 683.447C852.295 677.163 854.057 670.838 855.566 664.567C857.076 658.296 854.936 652.295 853.147 646.232C852.917 646.346 852.703 646.487 852.508 646.652ZM829.305 651.355C829.707 654.707 830.251 658.05 830.587 661.403L830.586 661.398C830.982 665.295 832.46 669.044 834.855 672.233C837.568 675.945 840.161 679.738 842.813 683.493C843.049 683.788 843.299 684.071 843.564 684.342L843.996 684.169C842.244 676.273 838.992 668.74 837.088 660.875C841.149 668.281 844.236 676.143 846.271 684.263C846.765 683.877 847.086 683.317 847.171 682.694C847.444 671.525 842.846 662.072 835.525 653.659C833.782 651.685 831.687 649.987 829.752 648.165L829.215 648.384C829.24 649.374 829.186 650.372 829.305 651.355ZM823.556 663.894C822.484 662.981 820.645 662.613 819.179 662.569L819.178 662.563C816.478 662.507 813.781 662.897 810.885 663.121C810.673 664.176 810.698 665.272 810.96 666.331C811.222 667.391 811.714 668.39 812.401 669.257C814.175 671.458 815.956 673.873 818.25 675.461C824.411 679.733 830.837 683.597 837.193 687.569C837.662 687.86 838.409 687.71 839.028 687.763C838.848 687.192 838.871 686.41 838.484 686.05C835.592 683.355 832.67 680.612 829.594 678.105C827.01 675.994 824.19 674.174 821.339 672.126C825.159 672.542 829.075 675.245 841.293 685.887C840.892 684.961 840.695 684.38 840.402 683.846C836.138 676.105 830.282 669.616 823.556 663.894Z" fill="#1E1E1E"/>
</g>
<defs>
<clipPath id="clip0_123_2361">
<rect width="1512" height="623" fill="white"/>
</clipPath>
</defs>
</svg>
