<svg xmlns="http://www.w3.org/2000/svg" xmlns:xlink="http://www.w3.org/1999/xlink" width="1080" zoomAndPan="magnify" viewBox="0 0 810 809.999993" height="1080" preserveAspectRatio="xMidYMid meet" version="1.0"><defs><clipPath id="890286d0b2"><path d="M 121.136719 13.464844 L 688.886719 13.464844 L 688.886719 796.464844 L 121.136719 796.464844 Z M 121.136719 13.464844 " clip-rule="nonzero"/></clipPath></defs><g clip-path="url(#890286d0b2)"><path fill="#4870b7" d="M 669.5 763.71875 C 669.5 753.527344 677.785156 745.242188 687.980469 745.242188 L 687.980469 727.082031 C 677.785156 727.082031 669.5 718.800781 669.5 708.605469 C 669.5 698.410156 677.785156 690.128906 687.980469 690.128906 L 687.980469 671.96875 C 677.785156 671.96875 669.5 663.6875 669.5 653.492188 C 669.5 643.296875 677.785156 635.015625 687.980469 635.015625 L 687.980469 616.855469 C 677.785156 616.855469 669.5 608.570312 669.5 598.378906 C 669.5 588.183594 677.785156 579.898438 687.980469 579.898438 L 687.980469 561.742188 C 677.785156 561.742188 669.5 553.457031 669.5 543.261719 C 669.5 533.070312 677.785156 524.785156 687.980469 524.785156 L 687.980469 506.945312 C 677.785156 506.945312 669.5 498.660156 669.5 488.46875 C 669.5 478.273438 677.785156 469.988281 687.980469 469.988281 L 687.980469 451.832031 C 677.785156 451.832031 669.5 443.546875 669.5 433.351562 C 669.5 423.160156 677.785156 414.875 687.980469 414.875 L 687.980469 396.714844 C 677.785156 396.714844 669.5 388.433594 669.5 378.238281 C 669.5 368.042969 677.785156 359.761719 687.980469 359.761719 L 687.980469 341.601562 C 677.785156 341.601562 669.5 333.320312 669.5 323.125 C 669.5 312.929688 677.785156 304.644531 687.980469 304.644531 L 687.980469 286.488281 C 677.785156 286.488281 669.5 278.203125 669.5 268.007812 C 669.5 257.816406 677.785156 249.53125 687.980469 249.53125 L 687.980469 231.371094 C 677.785156 231.371094 669.5 223.089844 669.5 212.894531 C 669.5 202.699219 677.785156 194.417969 687.980469 194.417969 L 687.980469 176.257812 C 677.785156 176.257812 669.5 167.976562 669.5 157.78125 C 669.5 147.585938 677.785156 139.304688 687.980469 139.304688 L 687.980469 121.621094 C 677.785156 121.621094 669.5 113.339844 669.5 103.144531 C 669.5 92.949219 677.785156 84.667969 687.980469 84.667969 L 687.980469 66.507812 C 677.785156 66.507812 669.5 58.222656 669.5 48.03125 C 669.5 37.835938 677.785156 29.550781 687.980469 29.550781 L 687.980469 13.464844 L 670.933594 13.464844 C 670.933594 23.660156 662.652344 31.941406 652.457031 31.941406 C 642.261719 31.941406 633.980469 23.660156 633.980469 13.464844 L 615.820312 13.464844 C 615.820312 23.660156 607.535156 31.941406 597.34375 31.941406 C 587.148438 31.941406 578.863281 23.660156 578.863281 13.464844 L 560.863281 13.464844 C 560.863281 23.660156 552.582031 31.941406 542.386719 31.941406 C 532.191406 31.941406 523.910156 23.660156 523.910156 13.464844 L 505.75 13.464844 C 505.75 23.660156 497.46875 31.941406 487.273438 31.941406 C 477.078125 31.941406 468.796875 23.660156 468.796875 13.464844 L 450.636719 13.464844 C 450.636719 23.660156 442.351562 31.941406 432.160156 31.941406 C 421.964844 31.941406 413.679688 23.660156 413.679688 13.464844 L 395.523438 13.464844 C 395.523438 23.660156 387.238281 31.941406 377.042969 31.941406 C 366.851562 31.941406 358.566406 23.660156 358.566406 13.464844 L 340.40625 13.464844 C 340.40625 23.660156 332.125 31.941406 321.929688 31.941406 C 311.734375 31.941406 303.453125 23.660156 303.453125 13.464844 L 285.292969 13.464844 C 285.292969 23.660156 277.011719 31.941406 266.816406 31.941406 C 256.621094 31.941406 248.65625 23.660156 248.65625 13.464844 L 230.496094 13.464844 C 230.496094 23.660156 222.214844 31.941406 212.019531 31.941406 C 201.824219 31.941406 193.542969 23.660156 193.542969 13.464844 L 175.382812 13.464844 C 175.382812 23.660156 167.101562 31.941406 156.90625 31.941406 C 146.710938 31.941406 138.425781 23.660156 138.425781 13.464844 L 121.542969 13.464844 L 121.542969 28.757812 C 131.738281 28.757812 140.019531 37.039062 140.019531 47.234375 C 140.019531 57.429688 131.738281 65.710938 121.542969 65.710938 L 121.542969 83.871094 C 131.738281 83.871094 140.019531 92.152344 140.019531 102.347656 C 140.019531 112.542969 131.738281 120.824219 121.542969 120.824219 L 121.542969 138.984375 C 131.738281 138.984375 140.019531 147.269531 140.019531 157.460938 C 140.019531 167.65625 131.738281 175.941406 121.542969 175.941406 L 121.542969 194.097656 C 131.738281 194.097656 140.019531 202.382812 140.019531 212.578125 C 140.019531 222.769531 131.738281 231.054688 121.542969 231.054688 L 121.542969 248.894531 C 131.738281 248.894531 140.019531 257.179688 140.019531 267.371094 C 140.019531 277.566406 131.738281 285.851562 121.542969 285.851562 L 121.542969 304.007812 C 131.738281 304.007812 140.019531 312.292969 140.019531 322.488281 C 140.019531 332.679688 131.738281 340.964844 121.542969 340.964844 L 121.542969 359.125 C 131.738281 359.125 140.019531 367.40625 140.019531 377.601562 C 140.019531 387.796875 131.738281 396.078125 121.542969 396.078125 L 121.542969 414.238281 C 131.738281 414.238281 140.019531 422.519531 140.019531 432.714844 C 140.019531 442.910156 131.738281 451.191406 121.542969 451.191406 L 121.542969 469.351562 C 131.738281 469.351562 140.019531 477.636719 140.019531 487.828125 C 140.019531 498.023438 131.738281 506.308594 121.542969 506.308594 L 121.542969 524.464844 C 131.738281 524.464844 140.019531 532.75 140.019531 542.945312 C 140.019531 553.140625 131.738281 561.101562 121.542969 561.101562 L 121.542969 579.261719 C 131.738281 579.261719 140.019531 587.546875 140.019531 597.738281 C 140.019531 607.933594 131.738281 616.21875 121.542969 616.21875 L 121.542969 634.375 C 131.738281 634.375 140.019531 642.660156 140.019531 652.855469 C 140.019531 663.050781 131.738281 671.332031 121.542969 671.332031 L 121.542969 689.492188 C 131.738281 689.492188 140.019531 697.773438 140.019531 707.96875 C 140.019531 718.164062 131.738281 726.445312 121.542969 726.445312 L 121.542969 744.289062 C 131.738281 744.289062 140.019531 752.570312 140.019531 762.765625 C 140.019531 772.960938 131.738281 781.242188 121.542969 781.242188 L 121.542969 796.535156 L 138.585938 796.535156 C 138.585938 786.339844 146.871094 778.058594 157.066406 778.058594 C 167.257812 778.058594 175.542969 786.339844 175.542969 796.535156 L 193.703125 796.535156 C 193.703125 786.339844 201.984375 778.058594 212.179688 778.058594 C 222.375 778.058594 230.65625 786.339844 230.65625 796.535156 L 248.65625 796.535156 C 248.65625 786.339844 256.941406 778.058594 267.132812 778.058594 C 277.328125 778.058594 285.613281 786.339844 285.613281 796.535156 L 303.769531 796.535156 C 303.769531 786.339844 312.054688 778.058594 322.25 778.058594 C 332.441406 778.058594 340.726562 786.339844 340.726562 796.535156 L 358.886719 796.535156 C 358.886719 786.339844 367.167969 778.058594 377.363281 778.058594 C 387.558594 778.058594 395.839844 786.339844 395.839844 796.535156 L 414 796.535156 C 414 786.339844 422.28125 778.058594 432.476562 778.058594 C 442.671875 778.058594 450.953125 786.339844 450.953125 796.535156 L 469.113281 796.535156 C 469.113281 786.339844 477.398438 778.058594 487.589844 778.058594 C 497.785156 778.058594 506.070312 786.339844 506.070312 796.535156 L 524.226562 796.535156 C 524.226562 786.339844 532.511719 778.058594 542.707031 778.058594 C 552.902344 778.058594 561.183594 786.339844 561.183594 796.535156 L 579.34375 796.535156 C 579.34375 786.339844 587.625 778.058594 597.820312 778.058594 C 608.015625 778.058594 616.296875 786.339844 616.296875 796.535156 L 634.457031 796.535156 C 634.457031 786.339844 642.738281 778.058594 652.933594 778.058594 C 663.128906 778.058594 671.414062 786.339844 671.414062 796.535156 L 688.457031 796.535156 L 688.457031 782.199219 C 677.785156 782.199219 669.5 773.914062 669.5 763.71875 Z M 669.5 763.71875 " fill-opacity="1" fill-rule="nonzero"/></g><path fill="#eceff6" d="M 223.488281 725.492188 L 223.488281 658.269531 L 242.125 658.269531 L 269.046875 702.074219 L 259.328125 702.074219 L 285.292969 658.269531 L 303.929688 658.269531 L 304.089844 725.492188 L 283.382812 725.492188 L 283.222656 689.492188 L 286.40625 689.492188 L 268.566406 719.597656 L 258.53125 719.597656 L 239.894531 689.492188 L 243.878906 689.492188 L 243.878906 725.492188 Z M 223.488281 725.492188 " fill-opacity="1" fill-rule="nonzero"/><path fill="#eceff6" d="M 331.167969 726.445312 C 326.867188 726.445312 323.363281 725.648438 320.496094 724.214844 C 317.628906 722.78125 315.398438 720.710938 313.964844 718.324219 C 312.53125 715.933594 311.734375 713.066406 311.734375 710.039062 C 311.734375 706.695312 312.53125 703.828125 314.285156 701.4375 C 316.035156 699.046875 318.585938 697.296875 322.25 696.023438 C 325.753906 694.746094 330.214844 694.269531 335.789062 694.269531 L 346.777344 694.269531 L 346.777344 704.78125 L 339.292969 704.78125 C 337.0625 704.78125 335.308594 705.101562 334.195312 705.898438 C 333.082031 706.695312 332.601562 707.808594 332.601562 709.242188 C 332.601562 710.519531 333.082031 711.472656 334.035156 712.269531 C 334.992188 713.066406 336.265625 713.542969 337.859375 713.542969 C 339.292969 713.542969 340.726562 713.226562 342 712.269531 C 343.273438 711.472656 344.230469 710.199219 344.707031 708.445312 L 347.417969 714.820312 C 346.621094 718.800781 344.867188 721.667969 342.160156 723.578125 C 339.453125 725.492188 335.789062 726.445312 331.167969 726.445312 Z M 346.140625 725.492188 L 346.140625 716.253906 L 344.550781 713.703125 L 344.550781 696.023438 C 344.550781 693.472656 343.753906 691.5625 342.160156 690.128906 C 340.566406 688.855469 338.019531 688.058594 334.515625 688.058594 C 332.125 688.058594 329.734375 688.375 327.347656 689.171875 C 324.957031 689.96875 322.886719 690.925781 321.132812 692.199219 L 314.285156 677.863281 C 317.308594 675.953125 320.972656 674.519531 325.273438 673.402344 C 329.574219 672.449219 333.71875 671.808594 337.859375 671.808594 C 346.9375 671.808594 353.789062 673.882812 358.886719 677.863281 C 363.824219 681.84375 366.371094 688.21875 366.371094 696.976562 L 366.371094 725.171875 L 346.140625 725.171875 Z M 346.140625 725.492188 " fill-opacity="1" fill-rule="nonzero"/><path fill="#eceff6" d="M 375.609375 654.289062 L 397.273438 654.289062 L 397.273438 725.492188 L 375.609375 725.492188 Z M 375.609375 654.289062 " fill-opacity="1" fill-rule="nonzero"/><path fill="#eceff6" d="M 423.875 726.445312 C 419.574219 726.445312 416.070312 725.648438 413.203125 724.214844 C 410.335938 722.78125 408.105469 720.710938 406.671875 718.324219 C 405.238281 715.933594 404.441406 713.066406 404.441406 710.039062 C 404.441406 706.695312 405.238281 703.828125 406.992188 701.4375 C 408.742188 699.046875 411.292969 697.296875 414.957031 696.023438 C 418.460938 694.746094 422.917969 694.269531 428.496094 694.269531 L 439.484375 694.269531 L 439.484375 704.78125 L 431.839844 704.78125 C 429.609375 704.78125 427.859375 705.101562 426.742188 705.898438 C 425.628906 706.695312 425.148438 707.808594 425.148438 709.242188 C 425.148438 710.519531 425.628906 711.472656 426.582031 712.269531 C 427.539062 713.066406 428.8125 713.542969 430.40625 713.542969 C 431.839844 713.542969 433.273438 713.226562 434.546875 712.269531 C 435.820312 711.472656 436.777344 710.199219 437.257812 708.445312 L 439.964844 714.820312 C 439.167969 718.800781 437.414062 721.667969 434.707031 723.578125 C 432 725.492188 428.335938 726.445312 423.875 726.445312 Z M 438.691406 725.492188 L 438.691406 716.253906 L 437.097656 713.703125 L 437.097656 696.023438 C 437.097656 693.472656 436.300781 691.5625 434.707031 690.128906 C 433.113281 688.855469 430.566406 688.058594 427.0625 688.058594 C 424.671875 688.058594 422.28125 688.375 419.894531 689.171875 C 417.503906 689.96875 415.433594 690.925781 413.679688 692.199219 L 406.832031 677.863281 C 409.859375 675.953125 413.523438 674.519531 417.824219 673.402344 C 422.125 672.449219 426.265625 671.808594 430.40625 671.808594 C 439.484375 671.808594 446.335938 673.882812 451.433594 677.863281 C 456.371094 681.84375 458.917969 688.21875 458.917969 696.976562 L 458.917969 725.171875 L 438.691406 725.171875 Z M 438.691406 725.492188 " fill-opacity="1" fill-rule="nonzero"/><path fill="#eceff6" d="M 504.792969 671.96875 C 508.777344 671.96875 512.441406 672.765625 515.785156 674.359375 C 518.972656 675.953125 521.679688 678.5 523.433594 682.003906 C 525.34375 685.507812 526.300781 689.96875 526.300781 695.386719 L 526.300781 725.332031 L 504.636719 725.332031 L 504.636719 699.207031 C 504.636719 696.023438 504 693.632812 502.882812 692.199219 C 501.769531 690.765625 500.175781 690.128906 498.105469 690.128906 C 496.671875 690.128906 495.238281 690.445312 493.964844 691.085938 C 492.6875 691.722656 491.734375 692.835938 490.9375 694.429688 C 490.140625 696.023438 489.820312 698.09375 489.820312 700.640625 L 489.820312 725.332031 L 468.15625 725.332031 L 468.15625 672.925781 L 488.867188 672.925781 L 488.867188 688.21875 L 484.722656 683.757812 C 486.796875 679.773438 489.503906 676.75 493.007812 674.835938 C 496.511719 673.085938 500.492188 671.96875 504.792969 671.96875 Z M 504.792969 671.96875 " fill-opacity="1" fill-rule="nonzero"/><path fill="#eceff6" d="M 558.953125 722.625 C 554.492188 722.625 550.351562 721.507812 546.527344 719.4375 C 542.707031 717.367188 539.519531 714.5 537.289062 710.675781 C 534.902344 706.855469 533.785156 702.394531 533.785156 697.296875 C 533.785156 692.039062 534.902344 687.578125 537.289062 683.917969 C 539.679688 680.09375 542.707031 677.226562 546.527344 675.15625 C 550.351562 673.085938 554.492188 672.128906 558.953125 672.128906 C 563.574219 672.128906 567.238281 673.085938 570.105469 674.835938 C 572.972656 676.589844 575.199219 679.457031 576.636719 683.121094 C 578.070312 686.785156 578.707031 691.5625 578.707031 697.296875 C 578.707031 703.03125 578.070312 707.808594 576.636719 711.472656 C 575.199219 715.136719 573.128906 718.003906 570.105469 719.757812 C 567.238281 721.667969 563.574219 722.625 558.953125 722.625 Z M 563.253906 745.082031 C 557.996094 745.082031 553.21875 744.605469 548.601562 743.492188 C 543.980469 742.375 540.15625 740.78125 536.972656 738.550781 L 544.300781 723.738281 C 546.371094 725.332031 548.917969 726.605469 552.105469 727.5625 C 555.289062 728.515625 558.316406 728.996094 561.023438 728.996094 C 565.484375 728.996094 568.671875 728.039062 570.582031 726.128906 C 572.492188 724.214844 573.449219 721.507812 573.449219 718.003906 L 573.449219 713.542969 L 574.40625 697.296875 L 574.5625 681.050781 L 574.5625 673.085938 L 595.273438 673.085938 L 595.273438 715.136719 C 595.273438 725.332031 592.40625 732.816406 586.828125 737.757812 C 581.09375 742.535156 573.289062 745.082031 563.253906 745.082031 Z M 564.847656 705.738281 C 566.597656 705.738281 568.03125 705.421875 569.464844 704.625 C 570.742188 703.988281 571.855469 702.871094 572.652344 701.597656 C 573.449219 700.324219 573.765625 698.890625 573.765625 697.136719 C 573.765625 695.386719 573.449219 693.953125 572.652344 692.675781 C 571.855469 691.402344 570.898438 690.445312 569.464844 689.808594 C 568.191406 689.171875 566.597656 688.855469 564.847656 688.855469 C 563.253906 688.855469 561.660156 689.171875 560.226562 689.808594 C 558.792969 690.445312 557.839844 691.402344 557.042969 692.675781 C 556.246094 693.953125 555.769531 695.386719 555.769531 697.136719 C 555.769531 698.730469 556.246094 700.324219 557.042969 701.597656 C 557.839844 702.871094 558.953125 703.828125 560.226562 704.625 C 561.660156 705.421875 563.09375 705.738281 564.847656 705.738281 Z M 564.847656 705.738281 " fill-opacity="1" fill-rule="nonzero"/><path fill="#eceff6" d="M 616.777344 604.113281 L 192.746094 604.113281 C 185.738281 604.113281 180.160156 598.535156 180.160156 591.527344 L 180.160156 85.304688 C 180.160156 78.296875 185.738281 72.71875 192.746094 72.71875 L 616.777344 72.71875 C 623.785156 72.71875 629.359375 78.296875 629.359375 85.304688 L 629.359375 591.527344 C 629.359375 598.378906 623.785156 604.113281 616.777344 604.113281 Z M 616.777344 604.113281 " fill-opacity="1" fill-rule="nonzero"/><path fill="#4870b7" d="M 454.9375 184.542969 C 452.546875 183.746094 450.316406 183.265625 447.769531 182.789062 C 440.761719 181.675781 433.910156 182.3125 427.378906 184.382812 C 423.078125 185.65625 418.617188 186.453125 414.160156 186.773438 C 415.910156 176.257812 421.167969 161.445312 435.980469 156.347656 L 434.390625 151.886719 C 423.078125 155.710938 414.957031 165.109375 410.972656 178.964844 C 410.175781 181.832031 409.539062 184.542969 409.222656 187.089844 C 404.125 186.929688 399.1875 186.132812 394.246094 184.699219 C 387.714844 182.628906 380.867188 181.992188 373.859375 183.109375 C 342.476562 187.886719 322.089844 225.160156 328.300781 266.417969 C 330.214844 279 334.515625 290.628906 340.25 300.34375 C 353.46875 322.488281 374.65625 335.546875 396.476562 332.203125 C 396.957031 332.042969 397.433594 332.042969 397.910156 332.042969 C 406.195312 330.453125 414.796875 330.453125 423.238281 332.042969 C 423.714844 332.203125 424.195312 332.203125 424.832031 332.203125 C 456.210938 336.980469 486.796875 307.511719 493.007812 266.257812 C 499.058594 228.027344 482.175781 193.300781 454.9375 184.542969 Z M 454.9375 184.542969 " fill-opacity="1" fill-rule="nonzero"/><path fill="#092b70" d="M 493.167969 266.097656 C 486.953125 307.355469 456.371094 336.824219 424.992188 332.042969 C 424.511719 331.886719 424.035156 331.886719 423.398438 331.886719 C 415.113281 330.292969 406.511719 330.292969 398.070312 331.886719 C 397.59375 332.042969 397.113281 332.042969 396.636719 332.042969 C 374.8125 335.390625 353.46875 322.167969 340.40625 300.1875 C 355.539062 304.964844 371.628906 307.035156 387.398438 305.441406 C 417.027344 302.257812 445.699219 285.214844 459.238281 258.613281 C 466.40625 244.59375 468.636719 228.1875 465.929688 212.734375 C 464.335938 203.816406 457.484375 194.097656 454.777344 184.699219 C 482.175781 193.300781 499.058594 228.027344 493.167969 266.097656 Z M 493.167969 266.097656 " fill-opacity="1" fill-rule="nonzero"/><path fill="#4870b7" d="M 370.035156 301.140625 C 367.644531 300.824219 365.257812 300.664062 362.707031 300.664062 C 355.699219 300.664062 349.007812 302.417969 342.796875 305.441406 C 338.496094 307.671875 333.875 309.105469 329.097656 310.0625 C 328.460938 306.398438 327.347656 301.140625 325.117188 295.726562 C 319.699219 282.347656 310.78125 273.902344 298.992188 271.195312 L 297.878906 275.816406 C 316.992188 280.273438 322.726562 301.460938 324.320312 310.699219 C 319.539062 311.175781 314.921875 311.175781 310.140625 310.539062 C 303.292969 309.585938 296.445312 310.0625 289.753906 312.292969 C 259.488281 322.007812 245.3125 361.992188 258.214844 401.652344 C 262.195312 413.761719 268.089844 424.59375 275.417969 433.351562 C 291.984375 453.105469 315.082031 462.664062 336.105469 455.8125 C 336.585938 455.652344 337.0625 455.492188 337.539062 455.335938 C 345.503906 452.46875 353.945312 451.035156 362.546875 451.351562 C 363.027344 451.351562 363.503906 451.351562 364.140625 451.351562 C 395.839844 451.035156 421.328125 417.105469 421.007812 375.371094 C 420.53125 337.140625 398.390625 305.601562 370.035156 301.140625 Z M 370.035156 301.140625 " fill-opacity="1" fill-rule="nonzero"/><path fill="#092b70" d="M 420.847656 375.53125 C 421.167969 417.265625 395.839844 451.191406 363.984375 451.511719 C 363.503906 451.511719 363.027344 451.511719 362.390625 451.511719 C 353.945312 451.351562 345.503906 452.625 337.382812 455.496094 C 336.902344 455.652344 336.425781 455.8125 335.949219 455.972656 C 315.082031 462.664062 291.824219 453.105469 275.257812 433.511719 C 291.027344 435.902344 307.117188 435.265625 322.566406 431.121094 C 351.398438 423.316406 376.886719 401.8125 385.964844 373.460938 C 390.742188 358.488281 390.425781 341.921875 385.328125 327.105469 C 382.300781 318.503906 374.019531 309.902344 369.875 301.140625 C 398.390625 305.601562 420.53125 337.140625 420.847656 375.53125 Z M 420.847656 375.53125 " fill-opacity="1" fill-rule="nonzero"/><path fill="#4870b7" d="M 536.015625 319.9375 C 533.945312 318.664062 531.875 317.550781 529.484375 316.59375 C 522.953125 313.886719 516.265625 312.769531 509.414062 313.246094 C 504.953125 313.40625 500.335938 313.089844 496.035156 312.292969 C 500.335938 302.417969 508.9375 289.355469 524.707031 288.082031 L 524.386719 283.300781 C 512.441406 284.257812 502.246094 291.425781 495.078125 303.851562 C 493.644531 306.398438 492.371094 308.945312 491.414062 311.175781 C 486.476562 309.742188 481.855469 307.832031 477.398438 305.125 C 471.503906 301.621094 464.972656 299.390625 457.964844 298.59375 C 426.425781 295.566406 397.59375 326.789062 393.609375 368.363281 C 392.335938 381.105469 393.769531 393.371094 396.957031 404.203125 C 404.28125 428.734375 421.804688 446.734375 443.785156 448.804688 C 444.265625 448.804688 444.742188 448.964844 445.378906 448.964844 C 453.820312 449.441406 462.105469 451.511719 469.910156 455.175781 C 470.386719 455.335938 470.867188 455.652344 471.34375 455.8125 C 500.652344 468.078125 537.449219 446.890625 553.539062 408.34375 C 568.351562 372.824219 560.386719 335.070312 536.015625 319.9375 Z M 536.015625 319.9375 " fill-opacity="1" fill-rule="nonzero"/><path fill="#092b70" d="M 553.539062 408.34375 C 537.449219 446.734375 500.652344 467.917969 471.34375 455.8125 C 470.867188 455.652344 470.386719 455.492188 469.910156 455.175781 C 462.105469 451.671875 453.820312 449.601562 445.378906 448.964844 C 444.902344 448.964844 444.425781 448.964844 443.785156 448.804688 C 421.804688 446.734375 404.28125 428.894531 396.957031 404.203125 C 410.496094 412.484375 425.628906 418.378906 441.398438 420.609375 C 470.867188 424.75 502.882812 415.035156 522.476562 392.574219 C 532.828125 380.785156 539.042969 365.335938 540.15625 349.726562 C 540.792969 340.644531 536.492188 329.496094 536.175781 319.777344 C 560.386719 335.070312 568.351562 372.824219 553.539062 408.34375 Z M 553.539062 408.34375 " fill-opacity="1" fill-rule="nonzero"/><path fill="#092b70" d="M 535.695312 482.574219 L 532.351562 482.574219 L 407.46875 503.28125 L 277.167969 482.574219 L 273.824219 482.574219 C 266.65625 482.574219 260.761719 476.839844 260.761719 469.511719 L 260.761719 463.457031 C 260.761719 456.289062 266.496094 450.398438 273.824219 450.398438 L 535.695312 450.398438 C 542.867188 450.398438 548.757812 456.132812 548.757812 463.457031 L 548.757812 469.511719 C 548.757812 476.839844 542.867188 482.574219 535.695312 482.574219 Z M 535.695312 482.574219 " fill-opacity="1" fill-rule="nonzero"/><path fill="#4870b7" d="M 277.167969 482.574219 L 532.351562 482.574219 L 532.351562 532.75 L 277.167969 532.75 Z M 277.167969 482.574219 " fill-opacity="1" fill-rule="nonzero"/><path fill="#092b70" d="M 575.996094 556.324219 L 572.492188 556.324219 L 402.371094 576.875 L 239.734375 556.324219 L 233.523438 556.324219 C 226.515625 556.324219 220.78125 550.589844 220.78125 543.582031 L 220.78125 536.890625 C 220.78125 529.882812 226.515625 524.148438 233.523438 524.148438 L 575.996094 524.148438 C 583.007812 524.148438 588.742188 529.882812 588.742188 536.890625 L 588.742188 543.582031 C 588.742188 550.589844 583.007812 556.324219 575.996094 556.324219 Z M 575.996094 556.324219 " fill-opacity="1" fill-rule="nonzero"/><path fill="#4870b7" d="M 237.027344 556.324219 L 572.492188 556.324219 L 572.492188 607.296875 L 237.027344 607.296875 Z M 237.027344 556.324219 " fill-opacity="1" fill-rule="nonzero"/></svg>