<svg xmlns="http://www.w3.org/2000/svg" xmlns:xlink="http://www.w3.org/1999/xlink" width="1080" zoomAndPan="magnify" viewBox="0 0 810 809.999993" height="1080" preserveAspectRatio="xMidYMid meet" version="1.0"><path fill="#4870b7" d="M 2425.449219 -1585.546875 C 2409.070312 -1585.546875 2395.789062 -1598.824219 2395.789062 -1615.203125 L 2425.449219 -1615.203125 Z M 2425.449219 31.519531 C 2409.070312 31.519531 2395.789062 18.238281 2395.789062 1.859375 L 2395.792969 1.859375 C 2395.792969 -14.515625 2409.070312 -27.796875 2425.449219 -27.796875 Z M 2159.480469 544.429688 C 2129.929688 542.410156 2106.398438 518.878906 2104.375 489.328125 C 2133.925781 491.34375 2157.460938 514.882812 2159.480469 544.429688 Z M 1991.523438 406.128906 C 1991.523438 389.753906 2004.800781 376.472656 2021.179688 376.472656 C 2037.554688 376.472656 2050.835938 389.753906 2050.835938 406.128906 C 2050.835938 422.511719 2037.554688 435.789062 2021.179688 435.789062 C 2004.800781 435.789062 1991.523438 422.511719 1991.523438 406.128906 Z M 1882.878906 544.433594 C 1884.898438 514.886719 1908.4375 491.347656 1937.984375 489.328125 C 1935.960938 518.878906 1912.421875 542.410156 1882.878906 544.433594 Z M 1882.878906 267.832031 C 1912.421875 269.855469 1935.960938 293.382812 1937.980469 322.929688 C 1908.4375 320.917969 1884.898438 297.378906 1882.878906 267.832031 Z M 2159.480469 267.832031 C 2157.453125 297.378906 2133.925781 320.910156 2104.378906 322.929688 C 2106.390625 293.382812 2129.929688 269.855469 2159.480469 267.832031 Z M 2057.113281 1.863281 C 2103.292969 11.398438 2137 57.066406 2126.808594 107.488281 C 2076.386719 117.683594 2030.710938 83.972656 2021.179688 37.800781 C 2011.644531 83.976562 1965.972656 117.683594 1915.550781 107.488281 C 1905.359375 57.070312 1939.066406 11.398438 1985.246094 1.863281 C 1939.0625 -7.667969 1905.355469 -53.339844 1915.550781 -103.765625 C 1965.96875 -113.953125 2011.640625 -80.246094 2021.171875 -34.070312 C 2030.710938 -80.246094 2076.378906 -113.953125 2126.800781 -103.765625 C 2137 -53.347656 2103.285156 -7.667969 2057.113281 1.863281 Z M 2425.449219 442.0625 C 2415.914062 488.242188 2370.242188 521.949219 2319.820312 511.753906 C 2309.628906 461.339844 2343.335938 415.664062 2389.515625 406.128906 C 2343.335938 396.597656 2309.625 350.921875 2319.820312 300.5 C 2370.230469 290.308594 2415.910156 324.015625 2425.449219 370.195312 Z M 2338.246094 493.324219 C 2370.300781 493.042969 2398.945312 470.449219 2405.652344 437.972656 L 2408.785156 422.789062 L 2393.601562 425.921875 C 2361.125 432.632812 2338.535156 461.277344 2338.246094 493.324219 Z M 2408.785156 389.472656 L 2405.652344 374.285156 C 2398.945312 341.808594 2370.300781 319.222656 2338.246094 318.933594 C 2338.535156 350.980469 2361.125 379.632812 2393.601562 386.332031 Z M 1985.25 810.394531 C 1939.066406 800.867188 1905.359375 755.191406 1915.554688 704.769531 C 1965.96875 694.578125 2011.644531 728.285156 2021.179688 774.464844 C 2030.710938 728.28125 2076.386719 694.578125 2126.808594 704.769531 C 2137 755.1875 2103.292969 800.867188 2057.113281 810.394531 Z M 1933.976562 723.195312 C 1934.265625 755.25 1956.851562 783.894531 1989.332031 790.601562 L 2004.515625 793.734375 L 2001.386719 778.546875 C 1994.675781 746.074219 1966.035156 723.484375 1933.976562 723.195312 Z M 2037.835938 793.734375 L 2053.027344 790.601562 C 2085.5 783.894531 2108.085938 755.25 2108.375 723.195312 C 2076.328125 723.480469 2047.675781 746.074219 2040.976562 778.550781 Z M 1616.914062 370.195312 C 1626.441406 324.015625 1672.117188 290.308594 1722.539062 300.5 C 1732.730469 350.921875 1699.027344 396.597656 1652.851562 406.128906 C 1699.027344 415.664062 1732.730469 461.335938 1722.539062 511.757812 C 1672.121094 521.949219 1626.441406 488.242188 1616.914062 442.070312 C 1607.382812 488.246094 1561.707031 521.953125 1511.285156 511.757812 C 1501.09375 461.339844 1534.804688 415.667969 1580.980469 406.136719 C 1534.804688 396.601562 1501.09375 350.929688 1511.285156 300.507812 C 1561.703125 290.316406 1607.375 324.023438 1616.914062 370.195312 Z M 1704.105469 318.933594 C 1672.058594 319.214844 1643.40625 341.808594 1636.707031 374.285156 L 1633.578125 389.472656 L 1648.761719 386.335938 C 1681.234375 379.632812 1703.816406 350.980469 1704.105469 318.933594 Z M 1633.578125 422.789062 L 1636.707031 437.972656 C 1643.40625 470.449219 1672.066406 493.035156 1704.105469 493.324219 C 1703.828125 461.277344 1681.234375 432.632812 1648.757812 425.925781 Z M 2108.375 89.0625 C 2108.09375 57.007812 2085.5 28.363281 2053.023438 21.664062 L 2037.835938 18.523438 L 2040.972656 33.707031 C 2047.675781 66.183594 2076.328125 88.773438 2108.375 89.0625 Z M 2004.515625 18.523438 L 1989.332031 21.664062 C 1956.851562 28.363281 1934.273438 57.007812 1933.984375 89.0625 C 1966.03125 88.777344 1994.679688 66.183594 2001.382812 33.703125 Z M 1646.5625 1.863281 C 1646.5625 18.238281 1633.285156 31.519531 1616.914062 31.519531 C 1600.527344 31.515625 1587.261719 18.238281 1587.253906 1.859375 L 1587.261719 1.859375 C 1587.261719 -14.515625 1600.539062 -27.796875 1616.914062 -27.796875 L 1616.914062 -27.789062 C 1633.296875 -27.785156 1646.5625 -14.507812 1646.5625 1.863281 Z M 1755.207031 140.160156 C 1725.660156 138.140625 1702.132812 114.605469 1700.109375 85.058594 C 1729.65625 87.078125 1753.191406 110.617188 1755.207031 140.160156 Z M 1616.914062 780.738281 C 1633.296875 780.746094 1646.570312 794.019531 1646.570312 810.398438 L 1616.914062 810.398438 L 1616.914062 810.394531 L 1587.261719 810.394531 C 1587.261719 794.019531 1600.539062 780.738281 1616.914062 780.738281 Z M 1755.207031 672.09375 C 1753.183594 701.640625 1729.65625 725.179688 1700.109375 727.199219 C 1702.132812 697.644531 1725.660156 674.117188 1755.207031 672.09375 Z M 2395.792969 810.394531 C 2395.792969 794.019531 2409.070312 780.738281 2425.449219 780.738281 L 2425.449219 810.394531 Z M 2287.144531 672.101562 C 2316.691406 674.125 2340.226562 697.652344 2342.242188 727.199219 C 2312.703125 725.179688 2289.167969 701.648438 2287.144531 672.101562 Z M 2287.144531 140.164062 C 2289.167969 110.617188 2312.703125 87.078125 2342.242188 85.058594 C 2340.230469 114.613281 2316.691406 138.140625 2287.144531 140.164062 Z M 1350.949219 544.429688 C 1321.402344 542.410156 1297.871094 518.878906 1295.847656 489.328125 C 1325.386719 491.34375 1348.925781 514.882812 1350.949219 544.429688 Z M 1182.996094 406.128906 C 1182.996094 389.753906 1196.269531 376.472656 1212.644531 376.472656 C 1229.027344 376.472656 1242.300781 389.753906 1242.300781 406.128906 C 1242.300781 422.511719 1229.027344 435.789062 1212.644531 435.789062 C 1196.265625 435.785156 1182.996094 422.511719 1182.996094 406.128906 Z M 1074.351562 544.433594 C 1076.371094 514.886719 1099.902344 491.347656 1129.449219 489.328125 C 1127.425781 518.878906 1103.898438 542.410156 1074.351562 544.433594 Z M 1074.347656 267.832031 C 1103.894531 269.855469 1127.425781 293.382812 1129.449219 322.929688 C 1099.902344 320.917969 1076.363281 297.378906 1074.347656 267.832031 Z M 1350.945312 267.832031 C 1348.925781 297.378906 1325.386719 320.910156 1295.839844 322.929688 C 1297.871094 293.382812 1321.398438 269.855469 1350.945312 267.832031 Z M 1248.582031 1.863281 C 1294.757812 11.398438 1328.460938 57.066406 1318.269531 107.488281 C 1267.855469 117.683594 1222.179688 83.972656 1212.644531 37.800781 C 1203.113281 83.976562 1157.445312 117.683594 1107.023438 107.488281 C 1096.832031 57.070312 1130.53125 11.398438 1176.710938 1.863281 C 1130.53125 -7.667969 1096.832031 -53.339844 1107.023438 -103.765625 C 1157.4375 -113.953125 1203.113281 -80.246094 1212.644531 -34.070312 C 1222.179688 -80.246094 1267.847656 -113.953125 1318.269531 -103.765625 C 1328.460938 -53.347656 1294.757812 -7.667969 1248.582031 1.863281 Z M 1529.71875 493.324219 C 1561.765625 493.042969 1590.417969 470.449219 1597.117188 437.972656 L 1600.246094 422.789062 L 1585.066406 425.921875 C 1552.589844 432.632812 1530.003906 461.277344 1529.71875 493.324219 Z M 1600.246094 389.472656 L 1597.117188 374.285156 C 1590.417969 341.808594 1561.765625 319.222656 1529.71875 318.933594 C 1530.003906 350.980469 1552.582031 379.632812 1585.066406 386.332031 Z M 1176.710938 810.394531 C 1130.53125 800.867188 1096.832031 755.191406 1107.023438 704.769531 C 1157.4375 694.578125 1203.113281 728.285156 1212.644531 774.464844 C 1222.179688 728.28125 1267.847656 694.578125 1318.269531 704.769531 C 1328.464844 755.1875 1294.757812 800.867188 1248.582031 810.394531 Z M 1125.449219 723.195312 C 1125.730469 755.25 1148.3125 783.894531 1180.796875 790.601562 L 1195.980469 793.734375 L 1192.851562 778.546875 C 1186.148438 746.074219 1157.496094 723.484375 1125.449219 723.195312 Z M 1229.308594 793.734375 L 1244.492188 790.601562 C 1276.972656 783.894531 1299.550781 755.25 1299.839844 723.195312 C 1267.796875 723.480469 1239.144531 746.074219 1232.445312 778.550781 Z M 808.382812 370.195312 C 817.910156 324.015625 863.585938 290.308594 914.003906 300.5 C 924.195312 350.921875 890.492188 396.597656 844.308594 406.128906 C 890.492188 415.664062 924.195312 461.335938 914.003906 511.757812 C 863.59375 521.949219 817.914062 488.242188 808.382812 442.070312 C 798.847656 488.246094 753.175781 521.953125 702.753906 511.757812 C 692.5625 461.339844 726.269531 415.667969 772.445312 406.136719 C 726.269531 396.601562 692.5625 350.929688 702.753906 300.507812 C 753.175781 290.316406 798.847656 324.023438 808.382812 370.195312 Z M 895.578125 318.933594 C 863.523438 319.214844 834.878906 341.808594 828.179688 374.285156 L 825.046875 389.472656 L 840.230469 386.335938 C 872.707031 379.632812 895.289062 350.980469 895.578125 318.933594 Z M 825.046875 422.789062 L 828.171875 437.972656 C 834.878906 470.449219 863.523438 493.035156 895.570312 493.324219 C 895.289062 461.277344 872.707031 432.632812 840.222656 425.925781 Z M 1299.839844 89.0625 C 1299.558594 57.007812 1276.976562 28.363281 1244.492188 21.664062 L 1229.308594 18.523438 L 1232.4375 33.707031 C 1239.148438 66.183594 1267.796875 88.773438 1299.839844 89.0625 Z M 1195.988281 18.523438 L 1180.800781 21.664062 C 1148.332031 28.363281 1125.742188 57.007812 1125.453125 89.0625 C 1157.507812 88.777344 1186.152344 66.183594 1192.851562 33.703125 Z M 838.035156 1.863281 C 838.035156 18.238281 824.757812 31.519531 808.382812 31.519531 C 792 31.515625 778.726562 18.238281 778.726562 1.859375 C 778.726562 -14.515625 792.007812 -27.796875 808.382812 -27.796875 L 808.382812 -27.789062 C 824.765625 -27.785156 838.035156 -14.507812 838.035156 1.863281 Z M 946.679688 140.160156 C 917.132812 138.140625 893.597656 114.605469 891.574219 85.058594 C 921.125 87.078125 944.664062 110.617188 946.679688 140.160156 Z M 808.382812 780.738281 C 824.765625 780.746094 838.035156 794.019531 838.035156 810.398438 L 808.382812 810.398438 L 808.382812 810.394531 L 778.726562 810.394531 C 778.726562 794.019531 792.007812 780.738281 808.382812 780.738281 Z M 946.679688 672.09375 C 944.664062 701.640625 921.128906 725.179688 891.582031 727.199219 C 893.597656 697.644531 917.132812 674.117188 946.679688 672.09375 Z M 1478.617188 672.101562 C 1508.164062 674.125 1531.695312 697.652344 1533.714844 727.199219 C 1504.167969 725.179688 1480.628906 701.648438 1478.617188 672.101562 Z M 1478.617188 140.164062 C 1480.632812 110.617188 1504.171875 87.078125 1533.71875 85.058594 C 1531.695312 114.613281 1508.164062 138.140625 1478.617188 140.164062 Z M 542.414062 544.429688 C 512.867188 542.410156 489.335938 518.878906 487.316406 489.328125 C 516.859375 491.34375 540.394531 514.882812 542.414062 544.429688 Z M 374.457031 406.128906 C 374.457031 389.753906 387.734375 376.472656 404.113281 376.472656 C 420.492188 376.472656 433.769531 389.753906 433.769531 406.128906 C 433.769531 422.511719 420.492188 435.789062 404.113281 435.789062 C 387.734375 435.785156 374.457031 422.511719 374.457031 406.128906 Z M 265.816406 544.433594 C 267.835938 514.886719 291.371094 491.347656 320.917969 489.328125 C 318.898438 518.878906 295.363281 542.410156 265.816406 544.433594 Z M 265.816406 267.832031 C 295.363281 269.855469 318.898438 293.382812 320.917969 322.929688 C 291.371094 320.917969 267.835938 297.378906 265.816406 267.832031 Z M 542.410156 267.832031 C 540.390625 297.378906 516.859375 320.910156 487.3125 322.929688 C 489.332031 293.382812 512.867188 269.855469 542.410156 267.832031 Z M 440.046875 1.863281 C 486.226562 11.398438 519.929688 57.066406 509.738281 107.488281 C 459.320312 117.683594 413.648438 83.972656 404.117188 37.800781 C 394.585938 83.976562 348.910156 117.683594 298.488281 107.488281 C 288.296875 57.070312 322.003906 11.398438 368.175781 1.863281 C 322 -7.667969 288.292969 -53.339844 298.484375 -103.765625 C 348.902344 -113.953125 394.574219 -80.246094 404.109375 -34.070312 C 413.640625 -80.246094 459.3125 -113.953125 509.734375 -103.765625 C 519.925781 -53.347656 486.226562 -7.667969 440.046875 1.863281 Z M 721.183594 493.324219 C 753.238281 493.042969 781.882812 470.449219 788.589844 437.972656 L 791.722656 422.789062 L 776.539062 425.921875 C 744.0625 432.632812 721.472656 461.277344 721.183594 493.324219 Z M 791.71875 389.472656 L 788.582031 374.285156 C 781.882812 341.808594 753.230469 319.222656 721.183594 318.933594 C 721.46875 350.980469 744.054688 379.632812 776.53125 386.332031 Z M 368.183594 810.394531 C 322.003906 800.867188 288.296875 755.191406 298.488281 704.769531 C 348.90625 694.578125 394.578125 728.285156 404.113281 774.464844 C 413.644531 728.28125 459.316406 694.578125 509.738281 704.769531 C 519.929688 755.1875 486.226562 800.867188 440.046875 810.394531 Z M 316.917969 723.195312 C 317.203125 755.25 339.785156 783.894531 372.269531 790.601562 L 387.453125 793.734375 L 384.320312 778.546875 C 377.617188 746.074219 348.96875 723.484375 316.917969 723.195312 Z M 420.777344 793.734375 L 435.960938 790.601562 C 468.441406 783.894531 491.023438 755.25 491.3125 723.195312 C 459.261719 723.480469 430.613281 746.074219 423.914062 778.550781 Z M -0.152344 370.195312 C 9.378906 324.015625 55.050781 290.308594 105.472656 300.5 C 115.664062 350.921875 81.960938 396.597656 35.78125 406.128906 C 81.960938 415.664062 115.664062 461.335938 105.472656 511.757812 C 55.054688 521.949219 9.382812 488.242188 -0.152344 442.0625 Z M 87.046875 318.933594 C 54.996094 319.214844 26.347656 341.808594 19.648438 374.285156 L 16.515625 389.472656 L 31.699219 386.335938 C 64.175781 379.632812 86.757812 350.980469 87.046875 318.933594 Z M 16.511719 422.789062 L 19.644531 437.972656 C 26.347656 470.449219 54.996094 493.035156 87.042969 493.324219 C 86.757812 461.277344 64.167969 432.632812 31.691406 425.925781 Z M 491.3125 89.0625 C 491.023438 57.007812 468.445312 28.363281 435.960938 21.664062 L 420.777344 18.523438 L 423.910156 33.707031 C 430.613281 66.183594 459.261719 88.773438 491.3125 89.0625 Z M 387.457031 18.523438 L 372.273438 21.664062 C 339.796875 28.363281 317.207031 57.007812 316.921875 89.0625 C 348.972656 88.777344 377.621094 66.183594 384.320312 33.703125 Z M 29.5 1.863281 C 29.5 18.238281 16.226562 31.519531 -0.152344 31.519531 L -0.152344 -27.789062 C 16.230469 -27.785156 29.5 -14.507812 29.5 1.863281 Z M 138.148438 140.160156 C 108.601562 138.140625 85.070312 114.605469 83.050781 85.058594 C 112.59375 87.078125 136.125 110.617188 138.148438 140.160156 Z M -0.152344 780.738281 C 16.230469 780.738281 29.5 794.019531 29.503906 810.398438 L -0.152344 810.398438 Z M 138.148438 672.09375 C 136.128906 701.640625 112.59375 725.179688 83.050781 727.199219 C 85.066406 697.644531 108.601562 674.117188 138.148438 672.09375 Z M 670.082031 672.101562 C 699.628906 674.125 723.164062 697.652344 725.179688 727.199219 C 695.632812 725.179688 672.101562 701.648438 670.082031 672.101562 Z M 670.082031 140.164062 C 672.105469 110.617188 695.632812 87.078125 725.179688 85.058594 C 723.164062 114.613281 699.628906 138.140625 670.082031 140.164062 Z M 2425.449219 -777.015625 C 2409.070312 -777.015625 2395.789062 -790.300781 2395.789062 -806.667969 L 2395.792969 -806.667969 C 2395.792969 -823.054688 2409.070312 -836.324219 2425.449219 -836.328125 Z M 2159.480469 -264.105469 C 2129.929688 -266.128906 2106.398438 -289.65625 2104.375 -319.203125 C 2133.925781 -317.1875 2157.460938 -293.652344 2159.480469 -264.105469 Z M 1991.523438 -402.398438 C 1991.523438 -418.785156 2004.800781 -432.058594 2021.179688 -432.058594 C 2037.554688 -432.058594 2050.835938 -418.785156 2050.835938 -402.398438 C 2050.835938 -386.03125 2037.554688 -372.75 2021.179688 -372.75 C 2004.800781 -372.75 1991.523438 -386.03125 1991.523438 -402.398438 Z M 1882.878906 -264.105469 C 1884.898438 -293.648438 1908.4375 -317.179688 1937.984375 -319.203125 C 1935.960938 -289.65625 1912.421875 -266.125 1882.878906 -264.105469 Z M 1882.878906 -540.699219 C 1912.421875 -538.679688 1935.960938 -515.140625 1937.980469 -485.59375 C 1908.4375 -487.617188 1884.898438 -511.152344 1882.878906 -540.699219 Z M 2159.480469 -540.703125 C 2157.453125 -511.15625 2133.925781 -487.617188 2104.378906 -485.601562 C 2106.390625 -515.148438 2129.929688 -538.6875 2159.480469 -540.703125 Z M 2057.113281 -806.667969 C 2103.292969 -797.136719 2137 -751.460938 2126.808594 -701.039062 C 2076.386719 -690.847656 2030.710938 -724.558594 2021.179688 -770.734375 C 2011.644531 -724.558594 1965.972656 -690.847656 1915.550781 -701.039062 C 1905.359375 -751.453125 1939.066406 -797.128906 1985.246094 -806.667969 C 1939.0625 -816.195312 1905.355469 -861.871094 1915.550781 -912.292969 C 1965.96875 -922.484375 2011.640625 -888.78125 2021.171875 -842.605469 C 2030.710938 -888.78125 2076.378906 -922.484375 2126.800781 -912.292969 C 2137 -861.882812 2103.285156 -816.195312 2057.113281 -806.667969 Z M 2425.449219 -366.46875 C 2415.914062 -320.292969 2370.242188 -286.585938 2319.820312 -296.777344 C 2309.628906 -347.199219 2343.335938 -392.871094 2389.515625 -402.40625 C 2343.335938 -411.9375 2309.625 -457.609375 2319.820312 -508.035156 C 2370.230469 -518.226562 2415.910156 -484.515625 2425.449219 -438.339844 Z M 2338.246094 -315.207031 C 2370.300781 -315.484375 2398.945312 -338.074219 2405.652344 -370.554688 L 2408.785156 -385.742188 L 2393.601562 -382.605469 C 2361.125 -375.902344 2338.535156 -347.25 2338.246094 -315.207031 Z M 2408.785156 -419.0625 L 2405.652344 -434.253906 C 2398.945312 -466.730469 2370.300781 -489.3125 2338.246094 -489.601562 C 2338.535156 -457.546875 2361.125 -428.902344 2393.601562 -422.203125 Z M 1933.976562 -85.332031 C 1934.265625 -53.285156 1956.851562 -24.636719 1989.332031 -17.933594 L 2004.515625 -14.796875 L 2001.386719 -29.984375 C 1994.675781 -62.460938 1966.035156 -85.042969 1933.976562 -85.332031 Z M 2037.835938 -14.796875 L 2053.027344 -17.925781 C 2085.5 -24.632812 2108.085938 -53.277344 2108.375 -85.324219 C 2076.328125 -85.042969 2047.675781 -62.460938 2040.976562 -29.976562 Z M 1616.914062 -438.335938 C 1626.441406 -484.511719 1672.117188 -518.226562 1722.539062 -508.027344 C 1732.730469 -457.617188 1699.027344 -411.9375 1652.851562 -402.398438 C 1699.027344 -392.871094 1732.730469 -347.199219 1722.539062 -296.777344 C 1672.121094 -286.585938 1626.441406 -320.285156 1616.914062 -366.464844 C 1607.382812 -320.285156 1561.707031 -286.585938 1511.285156 -296.777344 C 1501.09375 -347.191406 1534.804688 -392.871094 1580.980469 -402.398438 C 1534.804688 -411.933594 1501.09375 -457.605469 1511.285156 -508.027344 C 1561.703125 -518.214844 1607.375 -484.511719 1616.914062 -438.335938 Z M 1704.105469 -489.59375 C 1672.058594 -489.3125 1643.40625 -466.726562 1636.707031 -434.246094 L 1633.578125 -419.0625 L 1648.761719 -422.191406 C 1681.234375 -428.902344 1703.816406 -457.546875 1704.105469 -489.59375 Z M 1633.578125 -385.742188 L 1636.707031 -370.554688 C 1643.40625 -338.085938 1672.066406 -315.496094 1704.105469 -315.207031 C 1703.828125 -347.253906 1681.234375 -375.90625 1648.757812 -382.605469 Z M 2108.375 -719.472656 C 2108.09375 -751.519531 2085.5 -780.171875 2053.023438 -786.871094 L 2037.835938 -790 L 2040.972656 -774.820312 C 2047.675781 -742.34375 2076.328125 -719.761719 2108.375 -719.472656 Z M 2004.515625 -790.003906 L 1989.332031 -786.875 C 1956.851562 -780.175781 1934.273438 -751.519531 1933.984375 -719.476562 C 1966.03125 -719.757812 1994.679688 -742.34375 2001.382812 -774.828125 Z M 1646.5625 -806.667969 C 1646.5625 -790.28125 1633.285156 -777.015625 1616.914062 -777.007812 L 1616.914062 -777.015625 C 1600.527344 -777.015625 1587.261719 -790.292969 1587.253906 -806.667969 L 1587.261719 -806.667969 C 1587.261719 -823.050781 1600.539062 -836.316406 1616.914062 -836.324219 L 1616.914062 -836.316406 C 1633.296875 -836.316406 1646.5625 -823.039062 1646.5625 -806.667969 Z M 1755.207031 -668.371094 C 1725.660156 -670.386719 1702.132812 -693.925781 1700.109375 -723.472656 C 1729.65625 -721.445312 1753.191406 -697.917969 1755.207031 -668.371094 Z M 1755.207031 -136.433594 C 1753.183594 -106.890625 1729.65625 -83.351562 1700.109375 -81.335938 C 1702.132812 -110.878906 1725.660156 -134.417969 1755.207031 -136.433594 Z M 2287.144531 -136.433594 C 2316.691406 -134.417969 2340.226562 -110.878906 2342.242188 -81.328125 C 2312.703125 -83.351562 2289.167969 -106.890625 2287.144531 -136.433594 Z M 2287.144531 -668.371094 C 2289.167969 -697.917969 2312.703125 -721.445312 2342.242188 -723.472656 C 2340.230469 -693.925781 2316.691406 -670.386719 2287.144531 -668.371094 Z M 1350.949219 -264.105469 C 1321.402344 -266.128906 1297.871094 -289.65625 1295.847656 -319.203125 C 1325.386719 -317.1875 1348.925781 -293.652344 1350.949219 -264.105469 Z M 1182.996094 -402.398438 C 1182.996094 -418.785156 1196.269531 -432.058594 1212.644531 -432.058594 C 1229.027344 -432.058594 1242.300781 -418.785156 1242.300781 -402.398438 C 1242.300781 -386.03125 1229.027344 -372.75 1212.644531 -372.75 C 1196.265625 -372.75 1182.996094 -386.03125 1182.996094 -402.398438 Z M 1074.351562 -264.105469 C 1076.371094 -293.648438 1099.902344 -317.179688 1129.449219 -319.203125 C 1127.425781 -289.65625 1103.898438 -266.125 1074.351562 -264.105469 Z M 1074.347656 -540.699219 C 1103.894531 -538.679688 1127.425781 -515.140625 1129.449219 -485.59375 C 1099.902344 -487.617188 1076.363281 -511.152344 1074.347656 -540.699219 Z M 1350.945312 -540.703125 C 1348.925781 -511.15625 1325.386719 -487.617188 1295.839844 -485.601562 C 1297.871094 -515.148438 1321.398438 -538.6875 1350.945312 -540.703125 Z M 1248.582031 -806.667969 C 1294.757812 -797.136719 1328.460938 -751.460938 1318.269531 -701.039062 C 1267.855469 -690.847656 1222.179688 -724.558594 1212.644531 -770.734375 C 1203.113281 -724.558594 1157.445312 -690.847656 1107.023438 -701.039062 C 1096.832031 -751.453125 1130.53125 -797.128906 1176.710938 -806.667969 C 1130.53125 -816.195312 1096.832031 -861.871094 1107.023438 -912.292969 C 1157.4375 -922.484375 1203.113281 -888.78125 1212.644531 -842.605469 C 1222.179688 -888.78125 1267.847656 -922.484375 1318.269531 -912.292969 C 1328.460938 -861.882812 1294.757812 -816.195312 1248.582031 -806.667969 Z M 1529.71875 -315.207031 C 1561.765625 -315.484375 1590.417969 -338.074219 1597.117188 -370.554688 L 1600.246094 -385.742188 L 1585.066406 -382.605469 C 1552.589844 -375.902344 1530.003906 -347.25 1529.71875 -315.207031 Z M 1600.246094 -419.0625 L 1597.117188 -434.253906 C 1590.417969 -466.730469 1561.765625 -489.3125 1529.71875 -489.601562 C 1530.003906 -457.546875 1552.582031 -428.902344 1585.066406 -422.203125 Z M 1125.449219 -85.332031 C 1125.730469 -53.285156 1148.3125 -24.636719 1180.796875 -17.933594 L 1195.980469 -14.796875 L 1192.851562 -29.984375 C 1186.148438 -62.460938 1157.496094 -85.042969 1125.449219 -85.332031 Z M 1229.308594 -14.796875 L 1244.492188 -17.925781 C 1276.972656 -24.632812 1299.550781 -53.277344 1299.839844 -85.324219 C 1267.796875 -85.042969 1239.144531 -62.460938 1232.445312 -29.976562 Z M 808.382812 -438.335938 C 817.910156 -484.511719 863.585938 -518.226562 914.003906 -508.027344 C 924.195312 -457.617188 890.492188 -411.9375 844.308594 -402.398438 C 890.492188 -392.871094 924.195312 -347.199219 914.003906 -296.777344 C 863.59375 -286.585938 817.914062 -320.285156 808.382812 -366.464844 C 798.847656 -320.285156 753.175781 -286.585938 702.753906 -296.777344 C 692.5625 -347.191406 726.269531 -392.871094 772.445312 -402.398438 C 726.269531 -411.933594 692.5625 -457.605469 702.753906 -508.027344 C 753.175781 -518.214844 798.847656 -484.511719 808.382812 -438.335938 Z M 895.578125 -489.59375 C 863.523438 -489.3125 834.878906 -466.726562 828.179688 -434.246094 L 825.046875 -419.0625 L 840.230469 -422.191406 C 872.707031 -428.902344 895.289062 -457.546875 895.578125 -489.59375 Z M 825.046875 -385.742188 L 828.171875 -370.554688 C 834.878906 -338.085938 863.523438 -315.496094 895.570312 -315.207031 C 895.289062 -347.253906 872.707031 -375.90625 840.222656 -382.605469 Z M 1299.839844 -719.472656 C 1299.558594 -751.519531 1276.976562 -780.171875 1244.492188 -786.871094 L 1229.308594 -790 L 1232.4375 -774.820312 C 1239.148438 -742.34375 1267.796875 -719.761719 1299.839844 -719.472656 Z M 1195.988281 -790.003906 L 1180.800781 -786.875 C 1148.332031 -780.175781 1125.742188 -751.519531 1125.453125 -719.476562 C 1157.507812 -719.757812 1186.152344 -742.34375 1192.851562 -774.828125 Z M 838.035156 -806.667969 C 838.035156 -790.28125 824.757812 -777.015625 808.382812 -777.007812 L 808.382812 -777.015625 C 792 -777.015625 778.726562 -790.292969 778.726562 -806.667969 C 778.726562 -823.050781 792.007812 -836.316406 808.382812 -836.324219 L 808.382812 -836.316406 C 824.765625 -836.316406 838.035156 -823.039062 838.035156 -806.667969 Z M 946.679688 -668.371094 C 917.132812 -670.386719 893.597656 -693.925781 891.574219 -723.472656 C 921.125 -721.445312 944.664062 -697.917969 946.679688 -668.371094 Z M 946.679688 -136.433594 C 944.664062 -106.890625 921.128906 -83.351562 891.582031 -81.335938 C 893.597656 -110.878906 917.132812 -134.417969 946.679688 -136.433594 Z M 1478.617188 -136.433594 C 1508.164062 -134.417969 1531.695312 -110.878906 1533.714844 -81.328125 C 1504.167969 -83.351562 1480.628906 -106.890625 1478.617188 -136.433594 Z M 1478.617188 -668.371094 C 1480.632812 -697.917969 1504.171875 -721.445312 1533.71875 -723.472656 C 1531.695312 -693.925781 1508.164062 -670.386719 1478.617188 -668.371094 Z M 542.414062 -264.105469 C 512.867188 -266.128906 489.335938 -289.65625 487.316406 -319.203125 C 516.859375 -317.1875 540.394531 -293.652344 542.414062 -264.105469 Z M 374.457031 -402.398438 C 374.457031 -418.785156 387.734375 -432.058594 404.113281 -432.058594 C 420.492188 -432.058594 433.769531 -418.785156 433.769531 -402.398438 C 433.769531 -386.03125 420.492188 -372.75 404.113281 -372.75 C 387.734375 -372.75 374.457031 -386.03125 374.457031 -402.398438 Z M 265.816406 -264.105469 C 267.835938 -293.648438 291.371094 -317.179688 320.917969 -319.203125 C 318.898438 -289.65625 295.363281 -266.125 265.816406 -264.105469 Z M 265.816406 -540.699219 C 295.363281 -538.679688 318.898438 -515.140625 320.917969 -485.59375 C 291.371094 -487.617188 267.835938 -511.152344 265.816406 -540.699219 Z M 542.410156 -540.703125 C 540.390625 -511.15625 516.859375 -487.617188 487.3125 -485.601562 C 489.332031 -515.148438 512.867188 -538.6875 542.410156 -540.703125 Z M 440.046875 -806.667969 C 486.226562 -797.136719 519.929688 -751.460938 509.738281 -701.039062 C 459.320312 -690.847656 413.648438 -724.558594 404.117188 -770.734375 C 394.585938 -724.558594 348.910156 -690.847656 298.488281 -701.039062 C 288.296875 -751.453125 322.003906 -797.128906 368.175781 -806.667969 C 322 -816.195312 288.292969 -861.871094 298.484375 -912.292969 C 348.902344 -922.484375 394.574219 -888.78125 404.109375 -842.605469 C 413.640625 -888.78125 459.3125 -922.484375 509.734375 -912.292969 C 519.925781 -861.882812 486.226562 -816.195312 440.046875 -806.667969 Z M 721.183594 -315.207031 C 753.238281 -315.484375 781.882812 -338.074219 788.589844 -370.554688 L 791.722656 -385.742188 L 776.539062 -382.605469 C 744.0625 -375.902344 721.472656 -347.25 721.183594 -315.207031 Z M 791.71875 -419.0625 L 788.582031 -434.253906 C 781.882812 -466.730469 753.230469 -489.3125 721.183594 -489.601562 C 721.46875 -457.546875 744.054688 -428.902344 776.53125 -422.203125 Z M 316.917969 -85.332031 C 317.203125 -53.285156 339.785156 -24.636719 372.269531 -17.933594 L 387.453125 -14.796875 L 384.320312 -29.984375 C 377.617188 -62.460938 348.96875 -85.042969 316.917969 -85.332031 Z M 420.777344 -14.796875 L 435.960938 -17.925781 C 468.441406 -24.632812 491.023438 -53.277344 491.3125 -85.324219 C 459.261719 -85.042969 430.613281 -62.460938 423.914062 -29.976562 Z M -0.152344 -438.335938 C 9.378906 -484.511719 55.050781 -518.226562 105.472656 -508.027344 C 115.664062 -457.617188 81.960938 -411.9375 35.78125 -402.398438 C 81.960938 -392.871094 115.664062 -347.199219 105.472656 -296.777344 C 55.054688 -286.585938 9.382812 -320.292969 -0.152344 -366.464844 Z M 87.046875 -489.59375 C 54.996094 -489.3125 26.347656 -466.726562 19.648438 -434.246094 L 16.515625 -419.0625 L 31.699219 -422.191406 C 64.175781 -428.902344 86.757812 -457.546875 87.046875 -489.59375 Z M 16.511719 -385.742188 L 19.644531 -370.554688 C 26.347656 -338.085938 54.996094 -315.496094 87.042969 -315.207031 C 86.757812 -347.253906 64.167969 -375.90625 31.691406 -382.605469 Z M 491.3125 -719.472656 C 491.023438 -751.519531 468.445312 -780.171875 435.960938 -786.871094 L 420.777344 -790 L 423.910156 -774.820312 C 430.613281 -742.34375 459.261719 -719.761719 491.3125 -719.472656 Z M 387.457031 -790.003906 L 372.273438 -786.875 C 339.796875 -780.175781 317.207031 -751.519531 316.921875 -719.476562 C 348.972656 -719.757812 377.621094 -742.34375 384.320312 -774.828125 Z M 29.5 -806.667969 C 29.5 -790.28125 16.226562 -777.015625 -0.152344 -777.007812 L -0.152344 -836.316406 C 16.230469 -836.316406 29.5 -823.039062 29.5 -806.667969 Z M 138.148438 -668.371094 C 108.601562 -670.386719 85.070312 -693.925781 83.050781 -723.472656 C 112.59375 -721.445312 136.125 -697.917969 138.148438 -668.371094 Z M 138.148438 -136.433594 C 136.128906 -106.890625 112.59375 -83.351562 83.050781 -81.335938 C 85.066406 -110.878906 108.601562 -134.417969 138.148438 -136.433594 Z M 670.082031 -136.433594 C 699.628906 -134.417969 723.164062 -110.878906 725.179688 -81.328125 C 695.632812 -83.351562 672.101562 -106.890625 670.082031 -136.433594 Z M 670.082031 -668.371094 C 672.105469 -697.917969 695.632812 -721.445312 725.179688 -723.472656 C 723.164062 -693.925781 699.628906 -670.386719 670.082031 -668.371094 Z M 1616.914062 -1585.546875 C 1600.527344 -1585.546875 1587.261719 -1598.824219 1587.253906 -1615.203125 L 1646.5625 -1615.203125 C 1646.5625 -1598.820312 1633.285156 -1585.542969 1616.914062 -1585.546875 Z M 2159.480469 -1072.632812 C 2129.929688 -1074.652344 2106.398438 -1098.191406 2104.375 -1127.738281 C 2133.925781 -1125.71875 2157.460938 -1102.183594 2159.480469 -1072.632812 Z M 1991.523438 -1210.9375 C 1991.523438 -1227.3125 2004.800781 -1240.589844 2021.179688 -1240.589844 C 2037.554688 -1240.589844 2050.835938 -1227.3125 2050.835938 -1210.9375 C 2050.835938 -1194.5625 2037.554688 -1181.277344 2021.179688 -1181.277344 C 2004.800781 -1181.277344 1991.523438 -1194.558594 1991.523438 -1210.9375 Z M 1882.878906 -1072.632812 C 1884.898438 -1102.175781 1908.4375 -1125.714844 1937.984375 -1127.734375 C 1935.960938 -1098.191406 1912.421875 -1074.652344 1882.878906 -1072.632812 Z M 1882.878906 -1349.234375 C 1912.421875 -1347.210938 1935.960938 -1323.679688 1937.980469 -1294.132812 C 1908.4375 -1296.152344 1884.898438 -1319.6875 1882.878906 -1349.234375 Z M 2159.480469 -1349.234375 C 2157.453125 -1319.6875 2133.925781 -1296.15625 2104.378906 -1294.132812 C 2106.390625 -1323.679688 2129.929688 -1347.214844 2159.480469 -1349.234375 Z M 2057.113281 -1615.203125 C 2103.292969 -1605.667969 2137 -1559.996094 2126.808594 -1509.574219 C 2076.386719 -1499.382812 2030.710938 -1533.089844 2021.179688 -1579.265625 C 2011.644531 -1533.089844 1965.972656 -1499.378906 1915.550781 -1509.574219 C 1905.359375 -1559.988281 1939.066406 -1605.664062 1985.246094 -1615.203125 Z M 2425.449219 -1175 C 2415.914062 -1128.820312 2370.242188 -1095.113281 2319.820312 -1105.308594 C 2309.628906 -1155.722656 2343.335938 -1201.398438 2389.515625 -1210.933594 C 2343.335938 -1220.46875 2309.625 -1266.136719 2319.820312 -1316.558594 C 2370.230469 -1326.753906 2415.910156 -1293.046875 2425.449219 -1246.871094 Z M 2338.246094 -1123.738281 C 2370.300781 -1124.023438 2398.945312 -1146.609375 2405.652344 -1179.089844 L 2408.785156 -1194.277344 L 2393.601562 -1191.144531 C 2361.125 -1184.429688 2338.535156 -1155.785156 2338.246094 -1123.738281 Z M 2408.785156 -1227.59375 L 2405.652344 -1242.78125 C 2398.945312 -1275.253906 2370.300781 -1297.839844 2338.246094 -1298.132812 C 2338.535156 -1266.082031 2361.125 -1237.433594 2393.601562 -1230.734375 Z M 1933.976562 -893.859375 C 1934.265625 -861.8125 1956.851562 -833.160156 1989.332031 -826.460938 L 2004.515625 -823.332031 L 2001.386719 -838.515625 C 1994.675781 -870.996094 1966.035156 -893.578125 1933.976562 -893.859375 Z M 2037.835938 -823.332031 L 2053.027344 -826.460938 C 2085.5 -833.160156 2108.085938 -861.820312 2108.375 -893.859375 C 2076.328125 -893.582031 2047.675781 -870.988281 2040.976562 -838.511719 Z M 1616.914062 -1246.867188 C 1626.441406 -1293.046875 1672.117188 -1326.75 1722.539062 -1316.558594 C 1732.730469 -1266.140625 1699.027344 -1220.464844 1652.851562 -1210.933594 C 1699.027344 -1201.398438 1732.730469 -1155.726562 1722.539062 -1105.304688 C 1672.121094 -1095.113281 1626.441406 -1128.820312 1616.914062 -1174.996094 C 1607.382812 -1128.816406 1561.707031 -1095.109375 1511.285156 -1105.304688 C 1501.09375 -1155.71875 1534.804688 -1201.394531 1580.980469 -1210.929688 C 1534.804688 -1220.464844 1501.09375 -1266.132812 1511.285156 -1316.554688 C 1561.703125 -1326.75 1607.375 -1293.039062 1616.914062 -1246.867188 Z M 1704.105469 -1298.132812 C 1672.058594 -1297.851562 1643.40625 -1275.257812 1636.707031 -1242.78125 L 1633.578125 -1227.597656 L 1648.761719 -1230.730469 C 1681.234375 -1237.433594 1703.816406 -1266.082031 1704.105469 -1298.132812 Z M 1633.578125 -1194.273438 L 1636.707031 -1179.085938 C 1643.40625 -1146.609375 1672.066406 -1124.027344 1704.105469 -1123.738281 C 1703.828125 -1155.785156 1681.234375 -1184.4375 1648.757812 -1191.136719 Z M 2108.375 -1528.003906 C 2108.09375 -1560.050781 2085.5 -1588.703125 2053.023438 -1595.40625 L 2037.835938 -1598.539062 L 2040.972656 -1583.351562 C 2047.675781 -1550.878906 2076.328125 -1528.289062 2108.375 -1528.003906 Z M 2004.515625 -1598.539062 L 1989.332031 -1595.40625 C 1956.851562 -1588.703125 1934.273438 -1560.050781 1933.984375 -1528.003906 C 1966.03125 -1528.289062 1994.679688 -1550.875 2001.382812 -1583.355469 Z M 1755.207031 -1476.90625 C 1725.660156 -1478.921875 1702.132812 -1502.460938 1700.109375 -1532.003906 C 1729.65625 -1529.984375 1753.191406 -1506.449219 1755.207031 -1476.90625 Z M 1755.207031 -944.96875 C 1753.183594 -915.421875 1729.65625 -891.886719 1700.109375 -889.863281 C 1702.132812 -919.410156 1725.660156 -942.949219 1755.207031 -944.96875 Z M 2287.144531 -944.96875 C 2316.691406 -942.949219 2340.226562 -919.410156 2342.242188 -889.863281 C 2312.703125 -891.886719 2289.167969 -915.414062 2287.144531 -944.96875 Z M 2287.144531 -1476.898438 C 2289.167969 -1506.449219 2312.703125 -1529.984375 2342.242188 -1532.003906 C 2340.230469 -1502.457031 2316.691406 -1478.917969 2287.144531 -1476.898438 Z M 808.375 -1585.546875 C 791.996094 -1585.546875 778.726562 -1598.824219 778.726562 -1615.203125 L 838.035156 -1615.203125 C 838.035156 -1598.820312 824.757812 -1585.542969 808.375 -1585.546875 Z M 1350.949219 -1072.632812 C 1321.402344 -1074.652344 1297.871094 -1098.191406 1295.847656 -1127.738281 C 1325.386719 -1125.71875 1348.925781 -1102.183594 1350.949219 -1072.632812 Z M 1182.996094 -1210.9375 C 1182.996094 -1227.3125 1196.269531 -1240.589844 1212.644531 -1240.589844 C 1229.027344 -1240.589844 1242.300781 -1227.3125 1242.300781 -1210.9375 C 1242.300781 -1194.5625 1229.027344 -1181.277344 1212.644531 -1181.277344 C 1196.265625 -1181.277344 1182.996094 -1194.558594 1182.996094 -1210.9375 Z M 1074.351562 -1072.632812 C 1076.371094 -1102.175781 1099.902344 -1125.714844 1129.449219 -1127.734375 C 1127.425781 -1098.191406 1103.898438 -1074.652344 1074.351562 -1072.632812 Z M 1074.347656 -1349.234375 C 1103.894531 -1347.210938 1127.425781 -1323.679688 1129.449219 -1294.132812 C 1099.902344 -1296.152344 1076.363281 -1319.6875 1074.347656 -1349.234375 Z M 1350.945312 -1349.234375 C 1348.925781 -1319.6875 1325.386719 -1296.15625 1295.839844 -1294.132812 C 1297.871094 -1323.679688 1321.398438 -1347.214844 1350.945312 -1349.234375 Z M 1248.582031 -1615.203125 C 1294.757812 -1605.667969 1328.460938 -1559.996094 1318.269531 -1509.574219 C 1267.855469 -1499.382812 1222.179688 -1533.089844 1212.644531 -1579.265625 C 1203.113281 -1533.089844 1157.445312 -1499.378906 1107.023438 -1509.574219 C 1096.832031 -1559.988281 1130.53125 -1605.664062 1176.710938 -1615.203125 Z M 1529.71875 -1123.738281 C 1561.765625 -1124.023438 1590.417969 -1146.609375 1597.117188 -1179.089844 L 1600.246094 -1194.277344 L 1585.066406 -1191.144531 C 1552.589844 -1184.429688 1530.003906 -1155.785156 1529.71875 -1123.738281 Z M 1600.246094 -1227.59375 L 1597.117188 -1242.78125 C 1590.417969 -1275.253906 1561.765625 -1297.839844 1529.71875 -1298.132812 C 1530.003906 -1266.082031 1552.582031 -1237.433594 1585.066406 -1230.734375 Z M 1125.449219 -893.859375 C 1125.730469 -861.8125 1148.3125 -833.160156 1180.796875 -826.460938 L 1195.980469 -823.332031 L 1192.851562 -838.515625 C 1186.148438 -870.996094 1157.496094 -893.578125 1125.449219 -893.859375 Z M 1229.308594 -823.332031 L 1244.492188 -826.460938 C 1276.972656 -833.160156 1299.550781 -861.820312 1299.839844 -893.859375 C 1267.796875 -893.582031 1239.144531 -870.988281 1232.445312 -838.511719 Z M 808.382812 -1246.867188 C 817.910156 -1293.046875 863.585938 -1326.75 914.003906 -1316.558594 C 924.195312 -1266.140625 890.492188 -1220.464844 844.308594 -1210.933594 C 890.492188 -1201.398438 924.195312 -1155.726562 914.003906 -1105.304688 C 863.59375 -1095.113281 817.914062 -1128.820312 808.382812 -1174.996094 C 798.847656 -1128.816406 753.175781 -1095.109375 702.753906 -1105.304688 C 692.5625 -1155.71875 726.269531 -1201.394531 772.445312 -1210.929688 C 726.269531 -1220.464844 692.5625 -1266.132812 702.753906 -1316.554688 C 753.175781 -1326.75 798.847656 -1293.039062 808.382812 -1246.867188 Z M 895.578125 -1298.132812 C 863.523438 -1297.851562 834.878906 -1275.257812 828.179688 -1242.78125 L 825.046875 -1227.597656 L 840.230469 -1230.730469 C 872.707031 -1237.433594 895.289062 -1266.082031 895.578125 -1298.132812 Z M 825.046875 -1194.273438 L 828.171875 -1179.085938 C 834.878906 -1146.609375 863.523438 -1124.027344 895.570312 -1123.738281 C 895.289062 -1155.785156 872.707031 -1184.4375 840.222656 -1191.136719 Z M 1299.839844 -1528.003906 C 1299.558594 -1560.050781 1276.976562 -1588.703125 1244.492188 -1595.40625 L 1229.308594 -1598.539062 L 1232.4375 -1583.351562 C 1239.148438 -1550.878906 1267.796875 -1528.289062 1299.839844 -1528.003906 Z M 1195.988281 -1598.539062 L 1180.800781 -1595.40625 C 1148.332031 -1588.703125 1125.742188 -1560.050781 1125.453125 -1528.003906 C 1157.507812 -1528.289062 1186.152344 -1550.875 1192.851562 -1583.355469 Z M 946.679688 -1476.90625 C 917.132812 -1478.921875 893.597656 -1502.460938 891.574219 -1532.003906 C 921.125 -1529.984375 944.664062 -1506.449219 946.679688 -1476.90625 Z M 946.679688 -944.96875 C 944.664062 -915.421875 921.128906 -891.886719 891.582031 -889.863281 C 893.597656 -919.410156 917.132812 -942.949219 946.679688 -944.96875 Z M 1478.617188 -944.96875 C 1508.164062 -942.949219 1531.695312 -919.410156 1533.714844 -889.863281 C 1504.167969 -891.886719 1480.628906 -915.414062 1478.617188 -944.96875 Z M 1478.617188 -1476.898438 C 1480.632812 -1506.449219 1504.171875 -1529.984375 1533.71875 -1532.003906 C 1531.695312 -1502.457031 1508.164062 -1478.917969 1478.617188 -1476.898438 Z M 542.414062 -1072.632812 C 512.867188 -1074.652344 489.335938 -1098.191406 487.316406 -1127.738281 C 516.859375 -1125.71875 540.394531 -1102.183594 542.414062 -1072.632812 Z M 374.457031 -1210.9375 C 374.457031 -1227.3125 387.734375 -1240.589844 404.113281 -1240.589844 C 420.492188 -1240.589844 433.769531 -1227.3125 433.769531 -1210.9375 C 433.769531 -1194.5625 420.492188 -1181.277344 404.113281 -1181.277344 C 387.734375 -1181.277344 374.457031 -1194.558594 374.457031 -1210.9375 Z M 265.816406 -1072.632812 C 267.835938 -1102.175781 291.371094 -1125.714844 320.917969 -1127.734375 C 318.898438 -1098.191406 295.363281 -1074.652344 265.816406 -1072.632812 Z M 265.816406 -1349.234375 C 295.363281 -1347.210938 318.898438 -1323.679688 320.917969 -1294.132812 C 291.371094 -1296.152344 267.835938 -1319.6875 265.816406 -1349.234375 Z M 542.410156 -1349.234375 C 540.390625 -1319.6875 516.859375 -1296.15625 487.3125 -1294.132812 C 489.332031 -1323.679688 512.867188 -1347.214844 542.410156 -1349.234375 Z M 440.046875 -1615.203125 C 486.226562 -1605.667969 519.929688 -1559.996094 509.738281 -1509.574219 C 459.320312 -1499.382812 413.648438 -1533.089844 404.117188 -1579.265625 C 394.585938 -1533.089844 348.910156 -1499.378906 298.488281 -1509.574219 C 288.296875 -1559.988281 322.003906 -1605.664062 368.183594 -1615.203125 Z M 721.183594 -1123.738281 C 753.238281 -1124.023438 781.882812 -1146.609375 788.589844 -1179.089844 L 791.722656 -1194.277344 L 776.539062 -1191.144531 C 744.0625 -1184.429688 721.472656 -1155.785156 721.183594 -1123.738281 Z M 791.71875 -1227.59375 L 788.582031 -1242.78125 C 781.882812 -1275.253906 753.230469 -1297.839844 721.183594 -1298.132812 C 721.46875 -1266.082031 744.054688 -1237.433594 776.53125 -1230.734375 Z M 316.917969 -893.859375 C 317.203125 -861.8125 339.785156 -833.160156 372.269531 -826.460938 L 387.453125 -823.332031 L 384.320312 -838.515625 C 377.617188 -870.996094 348.96875 -893.578125 316.917969 -893.859375 Z M 420.777344 -823.332031 L 435.960938 -826.460938 C 468.441406 -833.160156 491.023438 -861.820312 491.3125 -893.859375 C 459.261719 -893.582031 430.613281 -870.988281 423.914062 -838.511719 Z M -0.152344 -1246.867188 C 9.378906 -1293.046875 55.050781 -1326.75 105.472656 -1316.558594 C 115.664062 -1266.140625 81.960938 -1220.464844 35.78125 -1210.933594 C 81.960938 -1201.398438 115.664062 -1155.726562 105.472656 -1105.304688 C 55.054688 -1095.113281 9.382812 -1128.820312 -0.152344 -1174.996094 Z M 87.046875 -1298.132812 C 54.996094 -1297.851562 26.347656 -1275.257812 19.648438 -1242.78125 L 16.515625 -1227.597656 L 31.699219 -1230.730469 C 64.175781 -1237.433594 86.757812 -1266.082031 87.046875 -1298.132812 Z M 16.511719 -1194.273438 L 19.644531 -1179.085938 C 26.347656 -1146.609375 54.996094 -1124.027344 87.042969 -1123.738281 C 86.757812 -1155.785156 64.167969 -1184.4375 31.691406 -1191.136719 Z M 491.3125 -1528.003906 C 491.023438 -1560.050781 468.445312 -1588.703125 435.960938 -1595.40625 L 420.777344 -1598.539062 L 423.910156 -1583.351562 C 430.613281 -1550.878906 459.261719 -1528.289062 491.3125 -1528.003906 Z M 387.457031 -1598.539062 L 372.273438 -1595.40625 C 339.796875 -1588.703125 317.207031 -1560.050781 316.921875 -1528.003906 C 348.972656 -1528.289062 377.621094 -1550.875 384.320312 -1583.355469 Z M 29.5 -1615.203125 C 29.5 -1598.820312 16.226562 -1585.542969 -0.152344 -1585.542969 L -0.152344 -1615.203125 Z M 138.148438 -1476.90625 C 108.601562 -1478.921875 85.070312 -1502.460938 83.050781 -1532.003906 C 112.59375 -1529.984375 136.125 -1506.449219 138.148438 -1476.90625 Z M 138.148438 -944.96875 C 136.128906 -915.421875 112.59375 -891.886719 83.050781 -889.863281 C 85.066406 -919.410156 108.601562 -942.949219 138.148438 -944.96875 Z M 670.082031 -944.96875 C 699.628906 -942.949219 723.164062 -919.410156 725.179688 -889.863281 C 695.632812 -891.886719 672.101562 -915.414062 670.082031 -944.96875 Z M 670.082031 -1476.898438 C 672.105469 -1506.449219 695.632812 -1529.984375 725.179688 -1532.003906 C 723.164062 -1502.457031 699.628906 -1478.917969 670.082031 -1476.898438 Z M 670.082031 -1476.898438 " fill-opacity="1" fill-rule="evenodd"/><path fill="#092b70" d="M 157.628906 -1615.203125 C 157.628906 -1592.039062 138.851562 -1573.261719 115.691406 -1573.261719 C 92.53125 -1573.261719 73.753906 -1592.039062 73.753906 -1615.203125 L 56.382812 -1615.203125 C 56.382812 -1582.445312 82.933594 -1555.894531 115.6875 -1555.894531 C 148.441406 -1555.894531 174.996094 -1582.445312 174.996094 -1615.203125 Z M 1774.695312 1.863281 C 1774.695312 25.023438 1755.917969 43.800781 1732.757812 43.800781 C 1709.59375 43.800781 1690.820312 25.023438 1690.820312 1.863281 C 1690.820312 -21.300781 1709.597656 -40.074219 1732.761719 -40.074219 C 1755.921875 -40.074219 1774.695312 -21.300781 1774.695312 1.863281 Z M 1673.453125 1.863281 C 1673.449219 34.613281 1700.003906 61.167969 1732.757812 61.167969 C 1765.507812 61.167969 1792.0625 34.621094 1792.0625 1.863281 L 1792.066406 1.863281 C 1792.066406 -30.890625 1765.511719 -57.4375 1732.761719 -57.445312 C 1700.007812 -57.445312 1673.453125 -30.890625 1673.453125 1.863281 Z M 2021.171875 230.972656 C 2053.929688 230.972656 2080.484375 257.527344 2080.484375 290.28125 C 2080.484375 323.035156 2053.929688 349.589844 2021.171875 349.589844 C 1988.425781 349.589844 1961.863281 323.035156 1961.871094 290.28125 C 1961.871094 257.527344 1988.425781 230.972656 2021.171875 230.972656 Z M 2178.960938 406.128906 C 2178.960938 429.289062 2160.179688 448.066406 2137.023438 448.066406 C 2113.855469 448.066406 2095.078125 429.289062 2095.078125 406.128906 C 2095.078125 382.96875 2113.855469 364.1875 2137.023438 364.1875 C 2160.1875 364.1875 2178.960938 382.964844 2178.960938 406.128906 Z M 2021.171875 248.347656 C 1998.015625 248.347656 1979.234375 267.128906 1979.234375 290.285156 C 1979.234375 313.445312 1998.015625 332.222656 2021.171875 332.222656 C 2044.332031 332.222656 2063.109375 313.445312 2063.109375 290.285156 C 2063.109375 267.128906 2044.332031 248.347656 2021.171875 248.347656 Z M 2021.179688 563.910156 C 1998.019531 563.910156 1979.242188 545.132812 1979.242188 521.972656 C 1979.242188 498.8125 1998.019531 480.035156 2021.179688 480.035156 C 2044.339844 480.035156 2063.117188 498.8125 2063.117188 521.972656 C 2063.117188 545.136719 2044.339844 563.910156 2021.179688 563.910156 Z M 1863.394531 406.128906 C 1863.394531 382.96875 1882.171875 364.191406 1905.332031 364.191406 C 1928.496094 364.191406 1947.273438 382.96875 1947.273438 406.128906 C 1947.273438 429.292969 1928.496094 448.074219 1905.332031 448.074219 C 1882.171875 448.066406 1863.394531 429.292969 1863.394531 406.128906 Z M 2196.332031 406.128906 C 2196.332031 373.375 2169.777344 346.824219 2137.027344 346.824219 C 2104.273438 346.820312 2077.71875 373.375 2077.71875 406.128906 C 2077.71875 438.878906 2104.273438 465.4375 2137.027344 465.4375 C 2169.777344 465.4375 2196.335938 438.878906 2196.332031 406.128906 Z M 2021.179688 581.28125 C 2053.933594 581.28125 2080.484375 554.734375 2080.484375 521.972656 C 2080.488281 489.222656 2053.933594 462.667969 2021.179688 462.667969 C 1988.425781 462.667969 1961.871094 489.222656 1961.871094 521.972656 C 1961.871094 554.734375 1988.425781 581.289062 2021.179688 581.28125 Z M 1846.027344 406.128906 C 1846.027344 438.878906 1872.574219 465.433594 1905.332031 465.433594 C 1938.085938 465.4375 1964.640625 438.878906 1964.640625 406.125 C 1964.640625 373.375 1938.085938 346.820312 1905.335938 346.820312 C 1872.574219 346.820312 1846.019531 373.375 1846.027344 406.128906 Z M 2425.449219 159.640625 C 2402.285156 159.640625 2383.507812 140.867188 2383.507812 117.703125 C 2383.507812 94.542969 2402.285156 75.765625 2425.449219 75.765625 L 2425.449219 58.398438 C 2392.695312 58.398438 2366.140625 84.945312 2366.140625 117.703125 C 2366.140625 150.457031 2392.695312 177.007812 2425.449219 177.007812 Z M 2351.53125 1.859375 C 2351.53125 25.023438 2332.753906 43.800781 2309.59375 43.800781 C 2286.4375 43.800781 2267.65625 25.023438 2267.65625 1.863281 L 2267.664062 1.863281 C 2267.664062 -21.300781 2286.441406 -40.074219 2309.601562 -40.074219 C 2332.761719 -40.074219 2351.539062 -21.300781 2351.53125 1.859375 Z M 2250.292969 1.859375 C 2250.292969 -30.890625 2276.847656 -57.445312 2309.601562 -57.445312 C 2342.355469 -57.445312 2368.90625 -30.890625 2368.90625 1.863281 C 2368.90625 34.613281 2342.351562 61.175781 2309.59375 61.167969 C 2276.839844 61.175781 2250.292969 34.613281 2250.292969 1.859375 Z M 2267.664062 810.394531 C 2267.664062 787.234375 2286.449219 768.457031 2309.605469 768.457031 C 2332.765625 768.457031 2351.542969 787.234375 2351.542969 810.394531 L 2368.910156 810.394531 C 2368.910156 777.644531 2342.363281 751.089844 2309.605469 751.089844 C 2276.851562 751.089844 2250.300781 777.636719 2250.300781 810.394531 Z M 2425.449219 736.484375 L 2425.449219 753.859375 C 2392.695312 753.859375 2366.140625 727.304688 2366.140625 694.550781 C 2366.140625 661.796875 2392.695312 635.242188 2425.449219 635.242188 L 2425.449219 652.613281 C 2402.285156 652.613281 2383.511719 671.390625 2383.511719 694.558594 C 2383.511719 717.710938 2402.277344 736.484375 2425.449219 736.484375 Z M 1616.914062 652.617188 C 1640.074219 652.617188 1658.851562 671.390625 1658.851562 694.558594 C 1658.851562 717.714844 1640.074219 736.492188 1616.914062 736.492188 L 1616.914062 736.488281 C 1593.753906 736.488281 1574.976562 717.710938 1574.976562 694.550781 C 1574.976562 671.386719 1593.753906 652.613281 1616.914062 652.609375 Z M 1616.914062 753.859375 C 1649.664062 753.859375 1676.21875 727.304688 1676.21875 694.558594 C 1676.21875 661.800781 1649.671875 635.246094 1616.914062 635.246094 L 1616.914062 635.242188 C 1584.160156 635.242188 1557.609375 661.796875 1557.609375 694.550781 C 1557.605469 727.304688 1584.160156 753.859375 1616.914062 753.859375 Z M 1690.820312 810.398438 L 1673.449219 810.398438 C 1673.449219 777.644531 1700.003906 751.089844 1732.757812 751.089844 C 1765.507812 751.089844 1792.0625 777.644531 1792.0625 810.398438 L 1774.691406 810.398438 C 1774.691406 787.234375 1755.910156 768.457031 1732.75 768.457031 C 1709.597656 768.457031 1690.820312 787.234375 1690.820312 810.398438 Z M 1616.914062 75.777344 C 1640.074219 75.777344 1658.851562 94.554688 1658.851562 117.714844 C 1658.851562 140.878906 1640.074219 159.652344 1616.914062 159.652344 L 1616.914062 159.644531 C 1593.753906 159.644531 1574.976562 140.871094 1574.976562 117.707031 C 1574.976562 94.542969 1593.75 75.769531 1616.914062 75.777344 Z M 1616.914062 177.015625 C 1584.160156 177.015625 1557.605469 150.464844 1557.609375 117.707031 C 1557.609375 84.957031 1584.160156 58.402344 1616.914062 58.402344 C 1649.664062 58.402344 1676.21875 84.964844 1676.21875 117.714844 C 1676.21875 150.46875 1649.664062 177.023438 1616.914062 177.015625 Z M 966.160156 1.863281 C 966.160156 25.023438 947.390625 43.800781 924.222656 43.800781 C 901.058594 43.800781 882.285156 25.023438 882.285156 1.863281 C 882.285156 -21.300781 901.0625 -40.074219 924.222656 -40.074219 C 947.390625 -40.074219 966.167969 -21.300781 966.160156 1.863281 Z M 864.917969 1.863281 C 864.917969 34.613281 891.46875 61.167969 924.222656 61.167969 C 956.972656 61.167969 983.527344 34.621094 983.527344 1.863281 L 983.535156 1.863281 C 983.535156 -30.890625 956.984375 -57.4375 924.222656 -57.445312 C 891.472656 -57.445312 864.917969 -30.890625 864.917969 1.863281 Z M 1212.644531 230.972656 C 1245.402344 230.972656 1271.949219 257.527344 1271.949219 290.28125 C 1271.949219 323.035156 1245.402344 349.589844 1212.644531 349.589844 C 1179.890625 349.589844 1153.339844 323.035156 1153.339844 290.28125 C 1153.339844 257.527344 1179.890625 230.972656 1212.644531 230.972656 Z M 1370.429688 406.128906 C 1370.429688 429.289062 1351.652344 448.066406 1328.492188 448.066406 C 1305.332031 448.066406 1286.554688 429.289062 1286.554688 406.128906 C 1286.554688 382.96875 1305.332031 364.1875 1328.492188 364.1875 C 1351.652344 364.1875 1370.429688 382.964844 1370.429688 406.128906 Z M 1212.644531 248.347656 C 1189.484375 248.347656 1170.707031 267.128906 1170.707031 290.285156 C 1170.707031 313.445312 1189.484375 332.222656 1212.644531 332.222656 C 1235.804688 332.222656 1254.582031 313.445312 1254.582031 290.285156 C 1254.582031 267.128906 1235.804688 248.347656 1212.644531 248.347656 Z M 1212.644531 563.910156 C 1189.484375 563.910156 1170.707031 545.132812 1170.707031 521.972656 C 1170.707031 498.8125 1189.484375 480.035156 1212.644531 480.035156 C 1235.808594 480.035156 1254.582031 498.8125 1254.582031 521.972656 C 1254.582031 545.136719 1235.808594 563.910156 1212.644531 563.910156 Z M 1054.859375 406.128906 C 1054.859375 382.96875 1073.636719 364.191406 1096.796875 364.191406 C 1119.960938 364.191406 1138.734375 382.96875 1138.734375 406.128906 C 1138.734375 429.292969 1119.957031 448.074219 1096.796875 448.074219 C 1073.636719 448.074219 1054.859375 429.292969 1054.859375 406.128906 Z M 1387.796875 406.128906 C 1387.796875 373.375 1361.25 346.824219 1328.492188 346.824219 C 1295.738281 346.820312 1269.1875 373.375 1269.1875 406.128906 C 1269.1875 438.878906 1295.738281 465.4375 1328.492188 465.4375 C 1361.25 465.4375 1387.796875 438.878906 1387.796875 406.128906 Z M 1212.644531 581.28125 C 1245.40625 581.28125 1271.957031 554.734375 1271.957031 521.972656 C 1271.957031 489.222656 1245.40625 462.667969 1212.644531 462.667969 C 1179.890625 462.667969 1153.339844 489.222656 1153.339844 521.972656 C 1153.339844 554.734375 1179.890625 581.289062 1212.644531 581.28125 Z M 1037.492188 406.128906 C 1037.492188 438.878906 1064.042969 465.433594 1096.796875 465.433594 C 1129.550781 465.4375 1156.105469 438.878906 1156.105469 406.125 C 1156.105469 373.375 1129.550781 346.820312 1096.796875 346.820312 C 1064.042969 346.820312 1037.492188 373.375 1037.492188 406.128906 Z M 1543.003906 1.859375 C 1543.003906 25.023438 1524.226562 43.800781 1501.066406 43.800781 C 1477.90625 43.800781 1459.128906 25.023438 1459.128906 1.863281 C 1459.128906 -21.300781 1477.90625 -40.074219 1501.066406 -40.074219 C 1524.230469 -40.074219 1543.003906 -21.300781 1543.003906 1.859375 Z M 1441.761719 1.859375 C 1441.757812 34.613281 1468.304688 61.167969 1501.0625 61.167969 C 1533.816406 61.175781 1560.371094 34.613281 1560.371094 1.863281 C 1560.371094 -30.890625 1533.824219 -57.445312 1501.066406 -57.445312 C 1468.316406 -57.445312 1441.761719 -30.890625 1441.761719 1.859375 Z M 1459.128906 810.394531 L 1441.761719 810.394531 C 1441.757812 777.636719 1468.3125 751.089844 1501.066406 751.089844 C 1533.824219 751.089844 1560.371094 777.644531 1560.371094 810.394531 L 1543.003906 810.394531 C 1543.003906 787.234375 1524.226562 768.457031 1501.0625 768.457031 C 1477.90625 768.457031 1459.128906 787.234375 1459.128906 810.394531 Z M 808.382812 652.617188 C 831.539062 652.617188 850.320312 671.390625 850.320312 694.558594 C 850.320312 717.714844 831.546875 736.492188 808.382812 736.492188 L 808.382812 736.488281 C 785.214844 736.488281 766.445312 717.710938 766.445312 694.550781 C 766.445312 671.386719 785.214844 652.613281 808.382812 652.609375 Z M 808.382812 753.859375 C 841.136719 753.859375 867.683594 727.304688 867.683594 694.558594 C 867.683594 661.800781 841.136719 635.246094 808.382812 635.246094 L 808.382812 635.242188 C 775.625 635.242188 749.070312 661.796875 749.070312 694.550781 C 749.070312 727.304688 775.625 753.859375 808.382812 753.859375 Z M 882.285156 810.398438 L 864.917969 810.398438 C 864.917969 777.644531 891.472656 751.089844 924.222656 751.089844 C 956.984375 751.089844 983.535156 777.644531 983.535156 810.398438 L 966.167969 810.398438 C 966.167969 787.234375 947.382812 768.457031 924.222656 768.457031 C 901.0625 768.457031 882.285156 787.234375 882.285156 810.398438 Z M 808.375 75.777344 C 831.539062 75.777344 850.3125 94.554688 850.3125 117.714844 C 850.3125 140.878906 831.539062 159.652344 808.382812 159.652344 L 808.382812 159.644531 C 785.214844 159.644531 766.445312 140.871094 766.445312 117.707031 C 766.445312 94.542969 785.214844 75.769531 808.375 75.777344 Z M 808.375 177.015625 C 775.621094 177.015625 749.070312 150.464844 749.070312 117.707031 C 749.070312 84.957031 775.625 58.402344 808.382812 58.402344 C 841.136719 58.402344 867.691406 84.964844 867.683594 117.714844 C 867.683594 150.46875 841.136719 177.023438 808.375 177.015625 Z M 157.628906 1.863281 C 157.628906 25.023438 138.851562 43.800781 115.691406 43.800781 C 92.53125 43.800781 73.757812 25.023438 73.753906 1.863281 L 73.757812 1.863281 C 73.757812 -21.300781 92.535156 -40.074219 115.695312 -40.074219 C 138.859375 -40.074219 157.632812 -21.300781 157.628906 1.863281 Z M 56.386719 1.863281 C 56.386719 34.613281 82.933594 61.167969 115.691406 61.167969 C 148.445312 61.167969 175 34.621094 175 1.863281 C 175 -30.890625 148.445312 -57.4375 115.695312 -57.445312 C 82.9375 -57.445312 56.386719 -30.890625 56.386719 1.863281 Z M 404.113281 230.972656 C 436.867188 230.972656 463.425781 257.527344 463.421875 290.28125 C 463.421875 323.035156 436.867188 349.589844 404.113281 349.589844 C 371.355469 349.589844 344.804688 323.035156 344.804688 290.28125 C 344.804688 257.527344 371.355469 230.972656 404.113281 230.972656 Z M 561.898438 406.128906 C 561.898438 429.289062 543.125 448.066406 519.960938 448.066406 C 496.796875 448.066406 478.023438 429.289062 478.023438 406.128906 C 478.023438 382.96875 496.800781 364.1875 519.960938 364.1875 C 543.121094 364.1875 561.898438 382.964844 561.898438 406.128906 Z M 404.113281 248.347656 C 380.953125 248.347656 362.175781 267.128906 362.175781 290.285156 C 362.175781 313.445312 380.953125 332.222656 404.113281 332.222656 C 427.277344 332.222656 446.050781 313.445312 446.050781 290.285156 C 446.050781 267.128906 427.273438 248.347656 404.113281 248.347656 Z M 404.117188 563.910156 C 380.953125 563.910156 362.179688 545.132812 362.179688 521.972656 C 362.179688 498.8125 380.953125 480.035156 404.117188 480.035156 C 427.277344 480.035156 446.054688 498.8125 446.054688 521.972656 C 446.050781 545.136719 427.277344 563.910156 404.117188 563.910156 Z M 246.332031 406.128906 C 246.332031 382.96875 265.109375 364.191406 288.269531 364.191406 C 311.425781 364.191406 330.207031 382.96875 330.207031 406.128906 C 330.207031 429.292969 311.425781 448.074219 288.269531 448.074219 C 265.105469 448.066406 246.332031 429.292969 246.332031 406.128906 Z M 579.269531 406.128906 C 579.269531 373.375 552.71875 346.824219 519.960938 346.824219 C 487.207031 346.820312 460.652344 373.375 460.652344 406.128906 C 460.652344 438.878906 487.207031 465.4375 519.960938 465.4375 C 552.71875 465.4375 579.269531 438.878906 579.269531 406.128906 Z M 404.117188 581.28125 C 436.867188 581.28125 463.421875 554.734375 463.421875 521.972656 C 463.421875 489.222656 436.867188 462.667969 404.113281 462.667969 C 371.355469 462.667969 344.804688 489.222656 344.804688 521.972656 C 344.808594 554.734375 371.355469 581.289062 404.117188 581.28125 Z M 228.960938 406.128906 C 228.960938 438.878906 255.511719 465.433594 288.269531 465.433594 C 321.023438 465.4375 347.578125 438.878906 347.578125 406.125 C 347.578125 373.375 321.023438 346.820312 288.273438 346.820312 C 255.511719 346.820312 228.960938 373.375 228.960938 406.128906 Z M 734.46875 1.859375 C 734.46875 25.023438 715.691406 43.800781 692.53125 43.800781 C 669.375 43.800781 650.59375 25.023438 650.59375 1.863281 L 650.601562 1.863281 C 650.601562 -21.300781 669.375 -40.074219 692.539062 -40.074219 C 715.703125 -40.074219 734.46875 -21.300781 734.46875 1.859375 Z M 633.230469 1.859375 C 633.230469 34.613281 659.777344 61.167969 692.53125 61.167969 C 725.289062 61.175781 751.84375 34.613281 751.84375 1.863281 C 751.84375 -30.890625 725.289062 -57.445312 692.53125 -57.445312 C 659.78125 -57.445312 633.230469 -30.890625 633.230469 1.859375 Z M 650.601562 810.394531 L 633.230469 810.394531 C 633.230469 777.636719 659.78125 751.089844 692.539062 751.089844 C 725.292969 751.089844 751.847656 777.644531 751.847656 810.394531 L 734.476562 810.394531 C 734.476562 787.234375 715.703125 768.457031 692.539062 768.457031 C 669.375 768.457031 650.601562 787.234375 650.601562 810.394531 Z M -0.152344 652.617188 C 23.011719 652.617188 41.785156 671.390625 41.785156 694.558594 C 41.785156 717.714844 23.007812 736.492188 -0.152344 736.492188 L -0.152344 753.859375 C 32.601562 753.859375 59.15625 727.3125 59.15625 694.558594 C 59.15625 661.800781 32.601562 635.253906 -0.152344 635.253906 Z M 73.757812 810.398438 L 56.386719 810.398438 C 56.386719 777.644531 82.9375 751.089844 115.695312 751.089844 C 148.453125 751.089844 175 777.644531 175 810.398438 L 157.628906 810.398438 C 157.628906 787.234375 138.851562 768.457031 115.691406 768.457031 C 92.535156 768.457031 73.757812 787.234375 73.757812 810.398438 Z M -0.152344 75.777344 L -0.152344 58.398438 C 32.601562 58.398438 59.15625 84.957031 59.15625 117.707031 C 59.15625 150.464844 32.601562 177.015625 -0.152344 177.015625 L -0.152344 159.640625 C 23.011719 159.640625 41.785156 140.867188 41.785156 117.703125 C 41.785156 94.546875 23.011719 75.777344 -0.152344 75.777344 Z M 1774.695312 -806.667969 C 1774.695312 -783.507812 1755.917969 -764.730469 1732.757812 -764.730469 C 1709.59375 -764.730469 1690.820312 -783.503906 1690.820312 -806.667969 C 1690.820312 -829.828125 1709.597656 -848.605469 1732.761719 -848.605469 C 1755.921875 -848.605469 1774.695312 -829.828125 1774.695312 -806.667969 Z M 1673.453125 -806.667969 C 1673.449219 -773.90625 1700.003906 -747.363281 1732.757812 -747.363281 C 1765.507812 -747.359375 1792.0625 -773.90625 1792.0625 -806.667969 L 1792.066406 -806.667969 C 1792.066406 -839.417969 1765.511719 -865.972656 1732.761719 -865.972656 C 1700.007812 -865.980469 1673.453125 -839.425781 1673.453125 -806.667969 Z M 2021.171875 -577.558594 C 2053.929688 -577.558594 2080.484375 -551.007812 2080.484375 -518.246094 C 2080.484375 -485.496094 2053.929688 -458.941406 2021.171875 -458.941406 C 1988.425781 -458.941406 1961.863281 -485.496094 1961.871094 -518.253906 C 1961.871094 -551.003906 1988.425781 -577.558594 2021.171875 -577.558594 Z M 2178.960938 -402.40625 C 2178.960938 -379.238281 2160.179688 -360.460938 2137.023438 -360.460938 C 2113.855469 -360.460938 2095.078125 -379.238281 2095.078125 -402.40625 C 2095.078125 -425.5625 2113.855469 -444.34375 2137.023438 -444.34375 C 2160.1875 -444.34375 2178.960938 -425.5625 2178.960938 -402.40625 Z M 2021.171875 -560.183594 C 1998.015625 -560.183594 1979.234375 -541.40625 1979.234375 -518.246094 C 1979.234375 -495.089844 1998.015625 -476.308594 2021.171875 -476.308594 C 2044.332031 -476.308594 2063.109375 -495.089844 2063.109375 -518.246094 C 2063.109375 -541.40625 2044.332031 -560.183594 2021.171875 -560.183594 Z M 2021.179688 -244.617188 C 1998.019531 -244.617188 1979.242188 -263.398438 1979.242188 -286.554688 C 1979.242188 -309.722656 1998.019531 -328.492188 2021.179688 -328.492188 C 2044.339844 -328.492188 2063.117188 -309.722656 2063.117188 -286.554688 C 2063.117188 -263.398438 2044.339844 -244.617188 2021.179688 -244.617188 Z M 1863.394531 -402.398438 C 1863.394531 -425.5625 1882.171875 -444.335938 1905.332031 -444.335938 C 1928.496094 -444.335938 1947.273438 -425.5625 1947.273438 -402.398438 C 1947.273438 -379.238281 1928.496094 -360.460938 1905.332031 -360.460938 C 1882.171875 -360.460938 1863.394531 -379.238281 1863.394531 -402.398438 Z M 2196.332031 -402.40625 C 2196.332031 -435.160156 2169.777344 -461.710938 2137.027344 -461.710938 C 2104.273438 -461.710938 2077.71875 -435.15625 2077.71875 -402.398438 C 2077.71875 -369.648438 2104.273438 -343.09375 2137.027344 -343.09375 C 2169.777344 -343.09375 2196.335938 -369.648438 2196.332031 -402.40625 Z M 2021.179688 -227.253906 C 2053.933594 -227.253906 2080.484375 -253.800781 2080.484375 -286.554688 C 2080.488281 -319.3125 2053.933594 -345.867188 2021.179688 -345.859375 C 1988.425781 -345.859375 1961.871094 -319.3125 1961.871094 -286.554688 C 1961.871094 -253.800781 1988.425781 -227.246094 2021.179688 -227.253906 Z M 1846.027344 -402.398438 C 1846.027344 -369.648438 1872.574219 -343.09375 1905.332031 -343.09375 C 1938.085938 -343.09375 1964.640625 -369.648438 1964.640625 -402.398438 C 1964.640625 -435.15625 1938.085938 -461.710938 1905.335938 -461.710938 C 1872.574219 -461.710938 1846.019531 -435.15625 1846.027344 -402.398438 Z M 2425.449219 -648.882812 C 2402.285156 -648.882812 2383.507812 -667.660156 2383.507812 -690.820312 C 2383.507812 -713.984375 2402.285156 -732.765625 2425.449219 -732.765625 L 2425.449219 -750.136719 C 2392.695312 -750.136719 2366.140625 -723.582031 2366.140625 -690.828125 C 2366.140625 -658.078125 2392.695312 -631.515625 2425.449219 -631.523438 Z M 2351.53125 -806.667969 C 2351.53125 -783.507812 2332.753906 -764.730469 2309.59375 -764.730469 C 2286.4375 -764.730469 2267.65625 -783.507812 2267.65625 -806.667969 L 2267.664062 -806.667969 C 2267.664062 -829.828125 2286.441406 -848.605469 2309.601562 -848.605469 C 2332.761719 -848.605469 2351.539062 -829.828125 2351.53125 -806.667969 Z M 2250.292969 -806.667969 C 2250.292969 -839.425781 2276.847656 -865.972656 2309.601562 -865.972656 C 2342.355469 -865.972656 2368.90625 -839.417969 2368.90625 -806.667969 C 2368.90625 -773.90625 2342.351562 -747.359375 2309.59375 -747.363281 C 2276.839844 -747.363281 2250.292969 -773.914062 2250.292969 -806.667969 Z M 2425.449219 -72.046875 C 2402.285156 -72.046875 2383.511719 -90.824219 2383.511719 -113.984375 C 2383.511719 -137.144531 2402.285156 -155.921875 2425.449219 -155.921875 L 2425.449219 -173.292969 C 2392.695312 -173.292969 2366.140625 -146.746094 2366.140625 -113.988281 C 2366.140625 -81.234375 2392.695312 -54.679688 2425.449219 -54.679688 Z M 1616.914062 -155.914062 C 1640.074219 -155.914062 1658.851562 -137.136719 1658.851562 -113.976562 C 1658.851562 -90.816406 1640.074219 -72.039062 1616.914062 -72.039062 L 1616.914062 -72.046875 C 1593.753906 -72.046875 1574.976562 -90.824219 1574.976562 -113.984375 C 1574.976562 -137.144531 1593.753906 -155.921875 1616.914062 -155.914062 Z M 1616.914062 -54.671875 C 1584.160156 -54.671875 1557.605469 -81.226562 1557.609375 -113.984375 C 1557.609375 -146.738281 1584.160156 -173.289062 1616.914062 -173.289062 C 1649.671875 -173.289062 1676.21875 -146.738281 1676.21875 -113.976562 C 1676.21875 -81.222656 1649.664062 -54.671875 1616.914062 -54.671875 Z M 1616.914062 -732.757812 C 1640.074219 -732.757812 1658.851562 -713.980469 1658.851562 -690.820312 C 1658.851562 -667.660156 1640.074219 -648.882812 1616.914062 -648.882812 C 1593.753906 -648.882812 1574.976562 -667.660156 1574.976562 -690.820312 C 1574.976562 -713.984375 1593.75 -732.757812 1616.914062 -732.757812 Z M 1616.914062 -631.515625 C 1584.160156 -631.515625 1557.605469 -658.070312 1557.609375 -690.820312 C 1557.609375 -723.578125 1584.160156 -750.128906 1616.914062 -750.128906 L 1616.914062 -750.125 C 1649.664062 -750.125 1676.21875 -723.578125 1676.21875 -690.820312 C 1676.21875 -658.058594 1649.664062 -631.515625 1616.914062 -631.515625 Z M 966.160156 -806.667969 C 966.160156 -783.507812 947.390625 -764.730469 924.222656 -764.730469 C 901.058594 -764.730469 882.285156 -783.503906 882.285156 -806.667969 C 882.285156 -829.828125 901.0625 -848.605469 924.222656 -848.605469 C 947.390625 -848.605469 966.167969 -829.828125 966.160156 -806.667969 Z M 864.917969 -806.667969 C 864.917969 -773.90625 891.46875 -747.363281 924.222656 -747.363281 C 956.980469 -747.359375 983.527344 -773.90625 983.527344 -806.667969 L 983.535156 -806.667969 C 983.535156 -839.417969 956.984375 -865.972656 924.222656 -865.972656 C 891.472656 -865.980469 864.917969 -839.425781 864.917969 -806.667969 Z M 1212.644531 -577.558594 C 1245.402344 -577.558594 1271.949219 -551.007812 1271.949219 -518.246094 C 1271.949219 -485.496094 1245.402344 -458.941406 1212.644531 -458.941406 C 1179.890625 -458.941406 1153.339844 -485.496094 1153.339844 -518.253906 C 1153.335938 -551.003906 1179.890625 -577.558594 1212.644531 -577.558594 Z M 1370.429688 -402.40625 C 1370.429688 -379.238281 1351.652344 -360.460938 1328.492188 -360.460938 C 1305.332031 -360.460938 1286.554688 -379.238281 1286.554688 -402.40625 C 1286.554688 -425.5625 1305.332031 -444.34375 1328.492188 -444.34375 C 1351.652344 -444.34375 1370.429688 -425.5625 1370.429688 -402.40625 Z M 1212.644531 -560.183594 C 1189.484375 -560.183594 1170.707031 -541.40625 1170.707031 -518.246094 C 1170.707031 -495.089844 1189.484375 -476.308594 1212.644531 -476.308594 C 1235.804688 -476.308594 1254.582031 -495.089844 1254.582031 -518.246094 C 1254.582031 -541.40625 1235.804688 -560.183594 1212.644531 -560.183594 Z M 1212.644531 -244.617188 C 1189.484375 -244.617188 1170.707031 -263.398438 1170.707031 -286.554688 C 1170.707031 -309.722656 1189.484375 -328.492188 1212.644531 -328.492188 C 1235.808594 -328.492188 1254.582031 -309.722656 1254.582031 -286.554688 C 1254.582031 -263.398438 1235.808594 -244.617188 1212.644531 -244.617188 Z M 1054.859375 -402.398438 C 1054.859375 -425.5625 1073.636719 -444.335938 1096.796875 -444.335938 C 1119.960938 -444.335938 1138.734375 -425.5625 1138.734375 -402.398438 C 1138.734375 -379.238281 1119.957031 -360.460938 1096.796875 -360.460938 C 1073.636719 -360.460938 1054.859375 -379.238281 1054.859375 -402.398438 Z M 1387.796875 -402.40625 C 1387.796875 -435.160156 1361.25 -461.710938 1328.492188 -461.710938 C 1295.738281 -461.710938 1269.1875 -435.15625 1269.1875 -402.398438 C 1269.1875 -369.648438 1295.738281 -343.09375 1328.492188 -343.09375 C 1361.25 -343.09375 1387.796875 -369.648438 1387.796875 -402.40625 Z M 1212.644531 -227.253906 C 1245.40625 -227.253906 1271.957031 -253.800781 1271.957031 -286.554688 C 1271.957031 -319.3125 1245.40625 -345.867188 1212.644531 -345.859375 C 1179.890625 -345.859375 1153.339844 -319.3125 1153.339844 -286.554688 C 1153.339844 -253.800781 1179.890625 -227.246094 1212.644531 -227.253906 Z M 1037.492188 -402.398438 C 1037.492188 -369.648438 1064.042969 -343.09375 1096.796875 -343.09375 C 1129.550781 -343.09375 1156.105469 -369.648438 1156.105469 -402.398438 C 1156.105469 -435.15625 1129.550781 -461.710938 1096.796875 -461.710938 C 1064.042969 -461.710938 1037.492188 -435.15625 1037.492188 -402.398438 Z M 1543.003906 -806.667969 C 1543.003906 -783.507812 1524.226562 -764.730469 1501.066406 -764.730469 C 1477.90625 -764.730469 1459.128906 -783.507812 1459.128906 -806.667969 C 1459.128906 -829.828125 1477.90625 -848.605469 1501.066406 -848.605469 C 1524.230469 -848.605469 1543.003906 -829.828125 1543.003906 -806.667969 Z M 1441.761719 -806.667969 C 1441.757812 -773.914062 1468.304688 -747.363281 1501.0625 -747.363281 C 1533.816406 -747.359375 1560.371094 -773.90625 1560.371094 -806.667969 C 1560.371094 -839.417969 1533.824219 -865.972656 1501.066406 -865.972656 C 1468.316406 -865.980469 1441.761719 -839.425781 1441.761719 -806.667969 Z M 808.382812 -155.914062 C 831.539062 -155.914062 850.320312 -137.136719 850.320312 -113.976562 C 850.320312 -90.816406 831.546875 -72.039062 808.382812 -72.039062 L 808.382812 -72.046875 C 785.214844 -72.046875 766.445312 -90.824219 766.445312 -113.984375 C 766.445312 -137.144531 785.214844 -155.921875 808.382812 -155.914062 Z M 808.382812 -54.671875 C 775.625 -54.671875 749.070312 -81.226562 749.070312 -113.984375 C 749.070312 -146.738281 775.625 -173.289062 808.382812 -173.289062 C 841.136719 -173.289062 867.691406 -146.738281 867.683594 -113.976562 C 867.683594 -81.222656 841.136719 -54.671875 808.382812 -54.671875 Z M 808.375 -732.757812 C 831.539062 -732.757812 850.3125 -713.980469 850.3125 -690.820312 C 850.3125 -667.660156 831.539062 -648.882812 808.382812 -648.882812 C 785.214844 -648.882812 766.445312 -667.660156 766.445312 -690.820312 C 766.445312 -713.984375 785.214844 -732.757812 808.375 -732.757812 Z M 808.375 -631.515625 C 775.621094 -631.515625 749.070312 -658.070312 749.070312 -690.820312 C 749.070312 -723.578125 775.625 -750.128906 808.382812 -750.128906 L 808.382812 -750.125 C 841.136719 -750.125 867.691406 -723.578125 867.683594 -690.820312 C 867.683594 -658.058594 841.136719 -631.515625 808.375 -631.515625 Z M 157.628906 -806.667969 C 157.628906 -783.507812 138.851562 -764.730469 115.691406 -764.730469 C 92.53125 -764.730469 73.757812 -783.503906 73.753906 -806.667969 L 73.757812 -806.667969 C 73.757812 -829.828125 92.535156 -848.605469 115.695312 -848.605469 C 138.859375 -848.605469 157.632812 -829.828125 157.628906 -806.667969 Z M 56.386719 -806.667969 C 56.386719 -773.90625 82.933594 -747.363281 115.691406 -747.363281 C 148.445312 -747.359375 175 -773.90625 175 -806.667969 C 175 -839.417969 148.445312 -865.972656 115.695312 -865.972656 C 82.9375 -865.980469 56.386719 -839.425781 56.386719 -806.667969 Z M 404.113281 -577.558594 C 436.867188 -577.558594 463.425781 -551.007812 463.421875 -518.246094 C 463.421875 -485.496094 436.867188 -458.941406 404.113281 -458.941406 C 371.355469 -458.941406 344.804688 -485.496094 344.804688 -518.253906 C 344.804688 -551.003906 371.355469 -577.558594 404.113281 -577.558594 Z M 561.898438 -402.40625 C 561.898438 -379.238281 543.125 -360.460938 519.960938 -360.460938 C 496.796875 -360.460938 478.023438 -379.238281 478.023438 -402.40625 C 478.023438 -425.5625 496.800781 -444.34375 519.960938 -444.34375 C 543.121094 -444.34375 561.898438 -425.5625 561.898438 -402.40625 Z M 404.113281 -560.183594 C 380.953125 -560.183594 362.175781 -541.40625 362.175781 -518.246094 C 362.175781 -495.089844 380.953125 -476.308594 404.113281 -476.308594 C 427.277344 -476.308594 446.050781 -495.089844 446.050781 -518.246094 C 446.050781 -541.40625 427.273438 -560.183594 404.113281 -560.183594 Z M 404.117188 -244.617188 C 380.953125 -244.617188 362.179688 -263.398438 362.179688 -286.554688 C 362.179688 -309.722656 380.953125 -328.492188 404.117188 -328.492188 C 427.277344 -328.492188 446.054688 -309.722656 446.054688 -286.554688 C 446.050781 -263.398438 427.277344 -244.617188 404.117188 -244.617188 Z M 246.332031 -402.398438 C 246.332031 -425.5625 265.109375 -444.335938 288.269531 -444.335938 C 311.425781 -444.335938 330.207031 -425.5625 330.207031 -402.398438 C 330.207031 -379.238281 311.425781 -360.460938 288.269531 -360.460938 C 265.105469 -360.460938 246.332031 -379.238281 246.332031 -402.398438 Z M 579.269531 -402.40625 C 579.269531 -435.160156 552.71875 -461.710938 519.960938 -461.710938 C 487.207031 -461.710938 460.652344 -435.15625 460.652344 -402.398438 C 460.652344 -369.648438 487.207031 -343.09375 519.960938 -343.09375 C 552.71875 -343.09375 579.269531 -369.648438 579.269531 -402.40625 Z M 404.117188 -227.253906 C 436.867188 -227.253906 463.421875 -253.800781 463.421875 -286.554688 C 463.421875 -319.3125 436.867188 -345.867188 404.113281 -345.859375 C 371.355469 -345.859375 344.804688 -319.3125 344.804688 -286.554688 C 344.804688 -253.800781 371.355469 -227.246094 404.117188 -227.253906 Z M 228.960938 -402.398438 C 228.960938 -369.648438 255.511719 -343.09375 288.269531 -343.09375 C 321.023438 -343.09375 347.578125 -369.648438 347.578125 -402.398438 C 347.578125 -435.15625 321.023438 -461.710938 288.273438 -461.710938 C 255.511719 -461.710938 228.960938 -435.15625 228.960938 -402.398438 Z M 734.46875 -806.667969 C 734.46875 -783.507812 715.691406 -764.730469 692.53125 -764.730469 C 669.375 -764.730469 650.59375 -783.507812 650.59375 -806.667969 L 650.601562 -806.667969 C 650.601562 -829.828125 669.375 -848.605469 692.539062 -848.605469 C 715.703125 -848.605469 734.46875 -829.828125 734.46875 -806.667969 Z M 633.230469 -806.667969 C 633.230469 -773.914062 659.777344 -747.363281 692.53125 -747.363281 C 725.289062 -747.359375 751.84375 -773.90625 751.84375 -806.667969 C 751.84375 -839.417969 725.289062 -865.972656 692.53125 -865.972656 C 659.78125 -865.980469 633.230469 -839.425781 633.230469 -806.667969 Z M -0.152344 -155.914062 L -0.152344 -173.292969 C 32.601562 -173.292969 59.15625 -146.738281 59.15625 -113.984375 C 59.15625 -81.226562 32.601562 -54.679688 -0.152344 -54.679688 L -0.152344 -72.050781 C 23.011719 -72.050781 41.785156 -90.828125 41.785156 -113.988281 C 41.785156 -137.148438 23.011719 -155.914062 -0.152344 -155.914062 Z M -0.152344 -732.757812 L -0.152344 -750.128906 C 32.601562 -750.128906 59.15625 -723.578125 59.15625 -690.820312 C 59.15625 -658.066406 32.601562 -631.515625 -0.152344 -631.515625 L -0.152344 -648.890625 C 23.011719 -648.890625 41.785156 -667.667969 41.785156 -690.828125 C 41.785156 -713.980469 23.011719 -732.757812 -0.152344 -732.757812 Z M 1774.695312 -1615.203125 C 1774.695312 -1592.039062 1755.917969 -1573.261719 1732.757812 -1573.261719 C 1709.59375 -1573.261719 1690.820312 -1592.039062 1690.820312 -1615.203125 L 1673.441406 -1615.203125 C 1673.441406 -1582.445312 1699.996094 -1555.894531 1732.75 -1555.894531 C 1765.507812 -1555.894531 1792.054688 -1582.445312 1792.054688 -1615.203125 Z M 2021.171875 -1386.089844 C 2053.929688 -1386.089844 2080.484375 -1359.535156 2080.484375 -1326.78125 C 2080.484375 -1294.027344 2053.929688 -1267.476562 2021.171875 -1267.476562 C 1988.425781 -1267.472656 1961.863281 -1294.027344 1961.871094 -1326.78125 C 1961.871094 -1359.535156 1988.425781 -1386.089844 2021.171875 -1386.089844 Z M 2178.960938 -1210.941406 C 2178.960938 -1187.777344 2160.179688 -1169 2137.023438 -1169 C 2113.855469 -1169 2095.078125 -1187.777344 2095.078125 -1210.941406 C 2095.078125 -1234.101562 2113.855469 -1252.878906 2137.023438 -1252.878906 C 2160.1875 -1252.875 2178.960938 -1234.101562 2178.960938 -1210.941406 Z M 2021.171875 -1368.722656 C 1998.015625 -1368.722656 1979.234375 -1349.945312 1979.234375 -1326.78125 C 1979.234375 -1303.621094 1998.015625 -1284.84375 2021.171875 -1284.84375 C 2044.332031 -1284.84375 2063.109375 -1303.621094 2063.109375 -1326.78125 C 2063.109375 -1349.945312 2044.332031 -1368.722656 2021.171875 -1368.722656 Z M 2021.179688 -1053.15625 C 1998.019531 -1053.15625 1979.242188 -1071.929688 1979.242188 -1095.09375 C 1979.242188 -1118.25 1998.019531 -1137.03125 2021.179688 -1137.03125 C 2044.339844 -1137.03125 2063.117188 -1118.25 2063.117188 -1095.09375 C 2063.117188 -1071.925781 2044.339844 -1053.15625 2021.179688 -1053.15625 Z M 1863.394531 -1210.9375 C 1863.394531 -1234.097656 1882.171875 -1252.875 1905.332031 -1252.875 C 1928.496094 -1252.875 1947.273438 -1234.097656 1947.273438 -1210.9375 C 1947.273438 -1187.777344 1928.496094 -1169 1905.332031 -1169 C 1882.171875 -1169 1863.394531 -1187.777344 1863.394531 -1210.9375 Z M 2196.332031 -1210.941406 C 2196.332031 -1243.691406 2169.777344 -1270.246094 2137.027344 -1270.246094 C 2104.273438 -1270.246094 2077.71875 -1243.691406 2077.71875 -1210.9375 C 2077.71875 -1178.183594 2104.273438 -1151.632812 2137.027344 -1151.632812 C 2169.777344 -1151.625 2196.335938 -1178.179688 2196.332031 -1210.941406 Z M 2021.179688 -1035.78125 C 2053.933594 -1035.78125 2080.484375 -1062.332031 2080.484375 -1095.085938 C 2080.488281 -1127.839844 2053.933594 -1154.390625 2021.179688 -1154.390625 C 1988.425781 -1154.390625 1961.871094 -1127.839844 1961.871094 -1095.085938 C 1961.871094 -1062.332031 1988.425781 -1035.78125 2021.179688 -1035.78125 Z M 1846.027344 -1210.933594 C 1846.027344 -1178.179688 1872.574219 -1151.628906 1905.332031 -1151.628906 C 1938.085938 -1151.628906 1964.640625 -1178.179688 1964.640625 -1210.9375 C 1964.640625 -1243.691406 1938.085938 -1270.242188 1905.335938 -1270.242188 C 1872.574219 -1270.242188 1846.019531 -1243.691406 1846.027344 -1210.933594 Z M 2425.449219 -1457.421875 C 2402.285156 -1457.421875 2383.507812 -1476.199219 2383.507812 -1499.359375 C 2383.507812 -1522.515625 2402.285156 -1541.296875 2425.449219 -1541.296875 L 2425.449219 -1558.664062 C 2392.695312 -1558.664062 2366.140625 -1532.117188 2366.140625 -1499.363281 C 2366.140625 -1466.605469 2392.695312 -1440.054688 2425.449219 -1440.054688 Z M 2351.53125 -1615.203125 L 2368.910156 -1615.203125 C 2368.910156 -1582.445312 2342.355469 -1555.894531 2309.601562 -1555.894531 C 2276.847656 -1555.894531 2250.296875 -1582.445312 2250.296875 -1615.203125 L 2267.664062 -1615.203125 C 2267.664062 -1592.039062 2286.449219 -1573.265625 2309.605469 -1573.265625 C 2332.765625 -1573.265625 2351.53125 -1592.039062 2351.53125 -1615.203125 Z M 2425.449219 -880.578125 C 2402.285156 -880.578125 2383.511719 -899.359375 2383.511719 -922.515625 C 2383.511719 -945.675781 2402.285156 -964.453125 2425.449219 -964.453125 L 2425.449219 -981.828125 C 2392.695312 -981.828125 2366.140625 -955.277344 2366.140625 -922.523438 C 2366.140625 -889.765625 2392.695312 -863.214844 2425.449219 -863.214844 Z M 1616.914062 -964.449219 C 1640.074219 -964.449219 1658.851562 -945.671875 1658.851562 -922.511719 C 1658.851562 -899.347656 1640.074219 -880.574219 1616.914062 -880.574219 C 1593.753906 -880.574219 1574.976562 -899.351562 1574.976562 -922.515625 C 1574.976562 -945.675781 1593.753906 -964.449219 1616.914062 -964.449219 Z M 1616.914062 -863.207031 C 1584.160156 -863.207031 1557.605469 -889.761719 1557.609375 -922.515625 C 1557.609375 -955.265625 1584.160156 -981.820312 1616.914062 -981.820312 L 1616.914062 -981.816406 C 1649.671875 -981.816406 1676.21875 -955.261719 1676.21875 -922.511719 C 1676.21875 -889.757812 1649.664062 -863.203125 1616.914062 -863.207031 Z M 1616.914062 -1541.292969 C 1640.074219 -1541.292969 1658.851562 -1522.511719 1658.851562 -1499.355469 C 1658.851562 -1476.195312 1640.074219 -1457.414062 1616.914062 -1457.414062 L 1616.914062 -1457.421875 C 1593.753906 -1457.421875 1574.976562 -1476.199219 1574.976562 -1499.359375 C 1574.976562 -1522.515625 1593.75 -1541.292969 1616.914062 -1541.292969 Z M 1616.914062 -1440.046875 C 1584.160156 -1440.046875 1557.605469 -1466.597656 1557.609375 -1499.355469 C 1557.609375 -1532.109375 1584.160156 -1558.65625 1616.914062 -1558.65625 C 1649.664062 -1558.65625 1676.21875 -1532.105469 1676.21875 -1499.347656 C 1676.21875 -1466.597656 1649.664062 -1440.046875 1616.914062 -1440.046875 Z M 966.160156 -1615.203125 C 966.160156 -1592.039062 947.390625 -1573.261719 924.222656 -1573.261719 C 901.058594 -1573.261719 882.285156 -1592.039062 882.285156 -1615.203125 L 864.914062 -1615.203125 C 864.914062 -1582.445312 891.46875 -1555.894531 924.222656 -1555.894531 C 956.980469 -1555.894531 983.527344 -1582.445312 983.527344 -1615.203125 Z M 1212.644531 -1386.089844 C 1245.402344 -1386.089844 1271.949219 -1359.535156 1271.949219 -1326.78125 C 1271.949219 -1294.027344 1245.402344 -1267.476562 1212.644531 -1267.476562 C 1179.890625 -1267.472656 1153.339844 -1294.027344 1153.339844 -1326.78125 C 1153.335938 -1359.535156 1179.890625 -1386.089844 1212.644531 -1386.089844 Z M 1370.429688 -1210.941406 C 1370.429688 -1187.777344 1351.652344 -1169 1328.492188 -1169 C 1305.332031 -1169 1286.554688 -1187.777344 1286.554688 -1210.941406 C 1286.554688 -1234.101562 1305.332031 -1252.878906 1328.492188 -1252.878906 C 1351.652344 -1252.878906 1370.429688 -1234.101562 1370.429688 -1210.941406 Z M 1212.644531 -1368.722656 C 1189.484375 -1368.722656 1170.707031 -1349.945312 1170.707031 -1326.78125 C 1170.707031 -1303.621094 1189.484375 -1284.84375 1212.644531 -1284.84375 C 1235.804688 -1284.84375 1254.582031 -1303.621094 1254.582031 -1326.78125 C 1254.582031 -1349.945312 1235.804688 -1368.722656 1212.644531 -1368.722656 Z M 1212.644531 -1053.15625 C 1189.484375 -1053.15625 1170.707031 -1071.929688 1170.707031 -1095.09375 C 1170.707031 -1118.25 1189.484375 -1137.03125 1212.644531 -1137.03125 C 1235.808594 -1137.03125 1254.582031 -1118.25 1254.582031 -1095.09375 C 1254.582031 -1071.925781 1235.808594 -1053.15625 1212.644531 -1053.15625 Z M 1054.859375 -1210.9375 C 1054.859375 -1234.097656 1073.636719 -1252.875 1096.796875 -1252.875 C 1119.960938 -1252.875 1138.734375 -1234.097656 1138.734375 -1210.9375 C 1138.734375 -1187.777344 1119.957031 -1169 1096.796875 -1169 C 1073.636719 -1169 1054.859375 -1187.777344 1054.859375 -1210.9375 Z M 1387.796875 -1210.941406 C 1387.796875 -1243.691406 1361.25 -1270.246094 1328.492188 -1270.246094 C 1295.738281 -1270.246094 1269.1875 -1243.691406 1269.1875 -1210.9375 C 1269.1875 -1178.183594 1295.738281 -1151.632812 1328.492188 -1151.632812 C 1361.25 -1151.625 1387.796875 -1178.179688 1387.796875 -1210.941406 Z M 1212.644531 -1035.78125 C 1245.40625 -1035.78125 1271.957031 -1062.332031 1271.957031 -1095.085938 C 1271.957031 -1127.839844 1245.40625 -1154.390625 1212.644531 -1154.390625 C 1179.890625 -1154.390625 1153.339844 -1127.839844 1153.339844 -1095.085938 C 1153.339844 -1062.332031 1179.890625 -1035.78125 1212.644531 -1035.78125 Z M 1037.492188 -1210.933594 C 1037.492188 -1178.179688 1064.042969 -1151.628906 1096.796875 -1151.628906 C 1129.550781 -1151.628906 1156.105469 -1178.179688 1156.105469 -1210.9375 C 1156.105469 -1243.691406 1129.550781 -1270.242188 1096.796875 -1270.242188 C 1064.042969 -1270.242188 1037.492188 -1243.691406 1037.492188 -1210.933594 Z M 1543.003906 -1615.203125 C 1543.003906 -1592.039062 1524.226562 -1573.265625 1501.066406 -1573.265625 C 1477.90625 -1573.265625 1459.128906 -1592.039062 1459.128906 -1615.203125 L 1441.757812 -1615.203125 C 1441.757812 -1582.445312 1468.304688 -1555.894531 1501.0625 -1555.894531 C 1533.816406 -1555.894531 1560.371094 -1582.445312 1560.371094 -1615.203125 Z M 808.382812 -964.449219 C 831.539062 -964.449219 850.320312 -945.671875 850.320312 -922.511719 C 850.320312 -899.347656 831.546875 -880.574219 808.382812 -880.574219 C 785.214844 -880.574219 766.445312 -899.351562 766.445312 -922.515625 C 766.445312 -945.675781 785.214844 -964.449219 808.382812 -964.449219 Z M 808.382812 -863.207031 C 775.625 -863.207031 749.070312 -889.761719 749.070312 -922.515625 C 749.070312 -955.265625 775.625 -981.820312 808.382812 -981.820312 L 808.382812 -981.816406 C 841.136719 -981.816406 867.691406 -955.261719 867.683594 -922.511719 C 867.683594 -889.757812 841.136719 -863.203125 808.382812 -863.207031 Z M 808.375 -1541.292969 C 831.539062 -1541.292969 850.3125 -1522.511719 850.3125 -1499.355469 C 850.3125 -1476.195312 831.539062 -1457.414062 808.382812 -1457.414062 L 808.382812 -1457.421875 C 785.214844 -1457.421875 766.445312 -1476.199219 766.445312 -1499.359375 C 766.445312 -1522.515625 785.214844 -1541.292969 808.375 -1541.292969 Z M 808.375 -1440.046875 C 775.621094 -1440.046875 749.070312 -1466.597656 749.070312 -1499.355469 C 749.070312 -1532.109375 775.625 -1558.65625 808.382812 -1558.65625 C 841.136719 -1558.65625 867.691406 -1532.105469 867.683594 -1499.347656 C 867.683594 -1466.597656 841.136719 -1440.046875 808.375 -1440.046875 Z M 404.113281 -1386.089844 C 436.867188 -1386.089844 463.425781 -1359.535156 463.421875 -1326.78125 C 463.421875 -1294.027344 436.867188 -1267.476562 404.113281 -1267.476562 C 371.355469 -1267.472656 344.804688 -1294.027344 344.804688 -1326.78125 C 344.804688 -1359.535156 371.355469 -1386.089844 404.113281 -1386.089844 Z M 561.898438 -1210.941406 C 561.898438 -1187.777344 543.125 -1169 519.960938 -1169 C 496.796875 -1169 478.023438 -1187.777344 478.023438 -1210.941406 C 478.023438 -1234.101562 496.800781 -1252.878906 519.960938 -1252.878906 C 543.121094 -1252.878906 561.898438 -1234.101562 561.898438 -1210.941406 Z M 404.113281 -1368.722656 C 380.953125 -1368.722656 362.175781 -1349.945312 362.175781 -1326.78125 C 362.175781 -1303.621094 380.953125 -1284.84375 404.113281 -1284.84375 C 427.277344 -1284.84375 446.050781 -1303.621094 446.050781 -1326.78125 C 446.050781 -1349.945312 427.273438 -1368.722656 404.113281 -1368.722656 Z M 404.117188 -1053.15625 C 380.953125 -1053.15625 362.179688 -1071.929688 362.179688 -1095.09375 C 362.179688 -1118.25 380.953125 -1137.03125 404.117188 -1137.03125 C 427.277344 -1137.03125 446.054688 -1118.25 446.054688 -1095.09375 C 446.050781 -1071.925781 427.277344 -1053.15625 404.117188 -1053.15625 Z M 246.332031 -1210.9375 C 246.332031 -1234.097656 265.109375 -1252.875 288.269531 -1252.875 C 311.425781 -1252.875 330.207031 -1234.097656 330.207031 -1210.9375 C 330.207031 -1187.777344 311.425781 -1169 288.269531 -1169 C 265.105469 -1169 246.332031 -1187.777344 246.332031 -1210.9375 Z M 579.269531 -1210.941406 C 579.269531 -1243.691406 552.71875 -1270.246094 519.960938 -1270.246094 C 487.207031 -1270.246094 460.652344 -1243.691406 460.652344 -1210.9375 C 460.652344 -1178.183594 487.207031 -1151.632812 519.960938 -1151.632812 C 552.71875 -1151.625 579.269531 -1178.179688 579.269531 -1210.941406 Z M 404.117188 -1035.78125 C 436.867188 -1035.78125 463.421875 -1062.332031 463.421875 -1095.085938 C 463.421875 -1127.839844 436.867188 -1154.390625 404.113281 -1154.390625 C 371.355469 -1154.390625 344.804688 -1127.839844 344.804688 -1095.085938 C 344.808594 -1062.332031 371.355469 -1035.78125 404.117188 -1035.78125 Z M 228.960938 -1210.933594 C 228.960938 -1178.179688 255.511719 -1151.628906 288.269531 -1151.628906 C 321.023438 -1151.628906 347.578125 -1178.179688 347.578125 -1210.9375 C 347.578125 -1243.691406 321.023438 -1270.242188 288.273438 -1270.242188 C 255.511719 -1270.242188 228.960938 -1243.691406 228.960938 -1210.933594 Z M 734.46875 -1615.203125 C 734.46875 -1592.039062 715.691406 -1573.265625 692.53125 -1573.265625 C 669.375 -1573.265625 650.59375 -1592.039062 650.59375 -1615.203125 L 633.222656 -1615.203125 C 633.222656 -1582.445312 659.777344 -1555.894531 692.527344 -1555.894531 C 725.28125 -1555.894531 751.835938 -1582.445312 751.835938 -1615.203125 Z M -0.152344 -964.449219 L -0.152344 -981.820312 C 32.601562 -981.820312 59.15625 -955.265625 59.15625 -922.515625 C 59.15625 -889.761719 32.601562 -863.207031 -0.152344 -863.207031 L -0.152344 -880.578125 C 23.011719 -880.578125 41.785156 -899.359375 41.785156 -922.515625 C 41.789062 -945.675781 23.011719 -964.449219 -0.152344 -964.449219 Z M -0.152344 -1541.292969 L -0.152344 -1558.664062 C 32.601562 -1558.664062 59.15625 -1532.113281 59.15625 -1499.359375 C 59.15625 -1466.601562 32.601562 -1440.054688 -0.152344 -1440.054688 L -0.152344 -1457.425781 C 23.011719 -1457.425781 41.785156 -1476.203125 41.785156 -1499.363281 C 41.785156 -1522.523438 23.011719 -1541.292969 -0.152344 -1541.292969 Z M -0.152344 -1541.292969 " fill-opacity="1" fill-rule="evenodd"/></svg>