<svg id="Layer_1" data-name="Layer 1" xmlns="http://www.w3.org/2000/svg" viewBox="0 0 374.37 323.01"><defs><style>.cls-1{fill:#263474;}.cls-2{fill:#4870b7;}</style></defs><path class="cls-1" d="M223.68,91.06l.4-.43a51.32,51.32,0,0,0,4-4.87c1.64-2.28,3.47-4.39,5.32-6.5,2.56-2.92,5-6,7.49-9,5.77-6.93,11.54-13.87,17.44-20.69C268.45,37.84,276.72,26,289,16.24A50.11,50.11,0,0,1,310.59,5.72c16.79-3.32,29.57,3,34.53,19.08,1.6-.7.65-2.41,1.37-3.44,1.08,3.62.43,7.25-.09,10.86-1.82,12.77-6.33,24.69-12.46,35.89-11.18,20.43-22.88,40.57-34.19,60.92S278.06,169.9,268.45,191c-5.21,11.42-9.85,23.11-11.4,35.7-1.5,12.14-.54,24,6,34.7,3.32,5.43,7.56,10.28,15.12,9.14a25.14,25.14,0,0,0,2.67,3.78A24.72,24.72,0,0,0,288,280l-4.35,3.35c-20,15.32-22.06,16.39-23.7,17.06-4.36,1.77-12.36,3.49-25.12-1.46,0,0-9-2.12-15.43-6.56-1.5-1-2.82-2.17-2.82-2.17-.95-.82-1.71-1.57-2.25-2.13-8.38-14.32-7.68-29.42-3.79-44.77,5.34-21.11,15.46-40.26,24.64-59.78,7.52-16,15.26-31.83,22.88-47.75.58-1.2,1.18-2.52-.27-3.63,2.42-5.07,5.94-9.47,8.82-14.26C277.44,99.78,286.46,80.8,295,61.58a186.57,186.57,0,0,0,7.49-19.42c.94-2.95,1.58-7-2.16-8.8-3.5-1.72-5.76,1.27-7.78,3.51-5.05,5.59-9.94,11.31-14.85,17-20.66,24-40.39,48.79-57.42,75.56-26.44,41.55-51.47,84-74.57,127.43-5.7,10.74-11.5,17.61-24.39,14.67a5.76,5.76,0,0,0-1.73.16c2.4-10.89,8.06-20.44,12.67-30.4,12.39-26.79,25-53.47,37.72-80.12a150.21,150.21,0,0,0,14.19-51.59c.91-19.7-1.71-38.67-11.54-57.45C167.51,70.6,159,86.15,151,101.91c-28.24,55.89-53.9,112.9-74.67,172C73,283.36,69.42,289,58.62,289c-10.54,0-21,2.86-31.61,2.34,2-13.11,7.37-25.17,12-37.39,9-23.66,19.82-46.54,30-69.71,1-2.19,3.61-3.63,3-6.54,7.21-8,10.52-18.08,14.87-27.6,4.44-6.54,7.05-14.06,11.09-20.79,11.62-19.32,22.86-38.89,35.42-57.63A375,375,0,0,1,165,31a5.38,5.38,0,0,0,1.43-2.29A5,5,0,0,0,166,26a7,7,0,0,0-1.38-2.62,6.84,6.84,0,0,0-2.88-1.58c-10.25-3.47-20.6-1.47-30.76,1.2a117.45,117.45,0,0,0-25.79,10A114.1,114.1,0,0,0,68.14,65.33c-15.14,20.19-23,50.5-1.75,75.21,3,3.52.17,4.2-2.28,4.76-14.56,3.29-28.62,2.7-42-4.89C17.15,137.62,14,132.83,9,130.29c-3.94-4.1-5.5-9.58-6.23-14.68C.09,97.15,4.27,80.25,15.67,65.12,29.94,46.19,48.32,32.58,69.49,22.55,94.92,10.51,119.62,3,148.13,4.76c17.79,1.09,35.68,6.4,47.24,20.85,9.61,12,14,26.37,16.95,41.19,1.11,5.57,2.15,11.16,3.18,16.75.42,2.23.19,4.53.73,6.75.36,1.47,1.35,3.62,3.23,3.38A7.6,7.6,0,0,0,223.68,91.06Z"/><path class="cls-2" d="M27,291.32c10.64.51,21.07-2.34,31.61-2.35,10.8,0,14.39-5.61,17.72-15.08,20.77-59.08,46.43-116.09,74.67-172,8-15.76,16.5-31.31,21.62-49.76,9.83,18.78,12.45,37.75,11.54,57.45-5.11,7.5-8.23,16-12.29,24.07A1351.83,1351.83,0,0,0,115.69,260.3c-3.83,10-7.7,20-11.34,30.08-2.22,6.15-4.65,12.36-5.67,18.75-1.06,6.63-8,8.22-12.39,8.49-11.58.71-23,3.8-34.7,2.73a8.19,8.19,0,0,1-6.44-3.29C39.46,310.32,35,304,28.26,298.32,25.13,295.7,25.3,294,27,291.32Z"/><path class="cls-2" d="M119.59,271.71a5.76,5.76,0,0,1,1.73-.16c12.89,2.94,18.69-3.93,24.39-14.67,23.1-43.47,48.13-85.88,74.57-127.43,17-26.77,36.76-51.53,57.42-75.56,4.91-5.71,9.8-11.43,14.85-17,2-2.24,4.28-5.23,7.78-3.51,3.74,1.84,3.1,5.85,2.16,8.8A186.57,186.57,0,0,1,295,61.58c-8.54,19.22-17.56,38.2-28.41,56.29-2.88,4.79-6.4,9.19-8.82,14.26-7.38,8.87-12.33,19.32-18.62,28.9-14.59,22.27-27.88,45.35-41,68.51-12.49,22.05-24.94,44.13-36,67-1.69,3.49-4,4.66-7.83,5.49-8.46,1.86-14.21-1-19.24-7.56C130.9,289,126,284,121.35,278.85,119.45,276.75,117.79,274.68,119.59,271.71Z"/><path class="cls-2" d="M282.82,283.86a28.23,28.23,0,0,1-10.58-3,30.09,30.09,0,0,1-13.09-13.72,64,64,0,0,1-6-34.69c1.56-12.59,6.19-24.28,11.41-35.7q14.42-31.58,31.3-61.92c11.31-20.36,23-40.5,34.18-60.92,6.14-11.21,10.65-23.12,12.47-35.89.51-3.61,1.17-7.24.09-10.87-.63-5.62-4.51-10.81-6.92-15.87.44-.22.87-.61,1.08-.52,27.86,12.52,40.56,28.14,30.13,57.81-5,14.25-7.34,24.71-25.88,53.89-17.37,27.34-17.19,26.13-22.71,35.74A334.54,334.54,0,0,0,296.7,202.5c-10.82,27.71-16.44,41.48-11.06,51.06,3.37,6,8.89,8.69,8.76,15C294.26,275.32,287.77,280.63,282.82,283.86Z"/><path class="cls-2" d="M9,130.29c5,2.54,8.18,7.33,13.11,10.12,13.41,7.59,27.47,8.18,42,4.89,2.45-.56,5.31-1.24,2.28-4.76C45.1,115.83,53,85.52,68.14,65.33A119.62,119.62,0,0,1,87.8,44.71a113.62,113.62,0,0,1,23.67-15.08c10.69-5,19.15-6.83,26.91-8.5a70.45,70.45,0,0,1,12.85-1.23s10.62-.08,13.42,3.51c.3.38,1.22,1.57.86,2.53a1.53,1.53,0,0,1-.51.64c-7.91,6-14.59,12.38-22.68,17.86-16.76,11.37-45.2,43.05-45.2,43.05h0c0,.06-11.85,16.09-16.25,36.81-2.1,9.84-.57,18.22,5.95,25.77-4.35,9.52-7.66,19.61-14.87,27.6-15.53-.38-28.66-5.39-40.34-16.47a173.24,173.24,0,0,1-20.37-23.29A11.1,11.1,0,0,1,9,130.29Z"/><path class="cls-2" d="M216.85,98.61a3,3,0,0,1-1.47-.45c-.83-.55-1.55-1.72-1.73-8.64,0-1.56,0-1.53-.06-3.18q-.08-3.15-.32-6.3-.48-6.27-1.55-12.46T209,55.3q-1.69-6.15-4-12.12c-.63-1.66-1.29-3.3-2-4.94-.35-.82-.71-1.64-1.07-2.46l-.54-1.2c-.07-.15-.42-1.17-.55-1.2a16.91,16.91,0,0,1,9.21,4.93C220,47.6,226.68,59,231.38,71.67a7.09,7.09,0,0,1,.41,2.37,15.2,15.2,0,0,1-.54,5.24,20.5,20.5,0,0,1-2.56,5.4c-.89,1.51-1.46,2.27-3.06,4.51C220.17,96.85,218.87,98.71,216.85,98.61Z"/></svg>