<svg id="Layer_1" data-name="Layer 1" xmlns="http://www.w3.org/2000/svg" viewBox="0 0 577.42 355.87"><defs><style>.cls-1{fill:#ececec;}.cls-2{fill:#4870b7;}.cls-3{fill:#ececec;}.cls-4{fill:#ececec;}</style></defs><path class="cls-1" d="M165.1,252.88c-7-20.09,2-35.91,13.8-50.8,5.9-7.44,12.92-13.74,22-17.21a29.71,29.71,0,0,1,7.23-1.7c3.54-.4,5.67.42,10.9,4.09-.74-4.35,2-4.9,5.06-5.19,4.64-.43,9.27-1.06,13.91-1.5,1-.09,2.18-.57,3.05.5-1.37,1.25-1.22,3.08-1.72,4.64-4,12.43-9,24.51-13.32,36.84a33.94,33.94,0,0,0-2.33,9.18c-.2,3.26,1.09,4.41,4.43,4.19,1.21,1.4,2.36.48,3.43-.18a57,57,0,0,0,10.27-8.59,23.08,23.08,0,0,1,2.2-2c1.19-.9,1.95-.67,2.22.92s-.21,3.38.95,5.23c1.47-3.18,1.9-6.38,2.79-9.43,9.67-33.33,22.72-65.11,43.21-93.43,5.23-7.23,11.14-13.8,19.71-17.25,7.45-3,12.89-.25,15.12,7.47.79,2.73.59,5.69,2,8.28a56,56,0,0,1-3.56,14.36c-4.14,10.4-10.06,19.75-16.74,28.67-10.5,14-21.67,27.38-34.93,38.89-1.18,1-3.16,1.64-3.64,2.88-2.13,5.53-4.74,11-5,17a4.42,4.42,0,0,0,4.13,4.93c1.64,1.62,3.55.63,5.26.36,6.29-1,10.9-5.05,15.59-8.91.15-.12.28-.28.44-.4,6.36-4.72,10.32-10.71,13-18.42,5.4-15.37,15.82-27.18,29.79-35.71a24,24,0,0,1,8.69-3c4.34-.72,8.29,0,11.65,4.32.17-4.33,2.76-4.62,5.39-4.9,4.55-.48,9.09-1,13.64-1.48.82-.09,1.82-.55,2.32.64a6,6,0,0,0-.73,1.23c-3.06,9.61-6.54,19.08-9.82,28.62-2,5.77-4.51,11.43-5.34,17.56-.51,3.83.66,5.14,4.36,5.26,1.64,1.33,3.21.69,4.57-.37,2.35-1.83,4.54-3.85,6.86-5.71,1.72-1.39,2.93-3.41,5.53-3.7,1.11-.12,1.61-1.67,2-2.79q7.35-20.92,14.59-41.88a3.23,3.23,0,0,1,3.07-2.59c5.53-.55,11-1.28,16.56-1.89,3.17-.35,3.3-.11,2.17,3-.26.7-.9,1.33-.44,2.48a38.39,38.39,0,0,1,15.24-9.06,21.94,21.94,0,0,1,9.68-1.06c5.79.88,8.95,4,10,9.8.19,1-.18,2.25.88,3a5.51,5.51,0,0,1-.1,1.16c-2.75,8.9-6.16,17.56-9.29,26.33-1.29,3.62-3,7.17-3.06,11.11-.1,3.5,1,4.53,4.53,4.69,2.67,1.22,4.27-1,5.82-2.24,2.28-1.88,5-3.23,6.9-5.54,1.05-1.26,2-1.16,2.51,1.2a47,47,0,0,0,1.41-5.58c3.94-20.61,13.69-37.28,32.64-47.6a23.22,23.22,0,0,1,4.67-1.93c7.52-2.13,14.8-3,20.3,5.38,1.41-5.44,5.48-5.72,9.49-6.13,2.86-.29,5.72-.61,8.58-1a3.74,3.74,0,0,1,3.5,1.17c-.64,2.58-1.14,5.21-1.94,7.74-4.32,13.67-8.78,27.31-13.07,41-1.32,4.21-3.11,8.36-2.79,12.94.21.37-1.12,2.16.7,1a44.72,44.72,0,0,0,6.46-5.2C536.28,203,540,199.3,542.91,195a27.06,27.06,0,0,0,3.09-6.12,11,11,0,0,1,4-4.47,1.38,1.38,0,0,1,.4.15c.38.25,0,.69-.08,1a2.59,2.59,0,0,0,0,1,24,24,0,0,1-2.26,15.63,39,39,0,0,1-3.34,5.36A79.33,79.33,0,0,1,523.68,227c-1.22.79-2.77,1.38-3.1,3-1.52,7.51-4,14.75-6.19,22-3.71,12.26-7.51,24.52-13.65,35.84-6,11.09-14.36,19.71-26.49,24.06-10.46,3.74-20.75,4.26-30.61-1.95-1.23-.78-2.13-2.13-3.76-2.24-6.31-8.3-5.35-17-1.5-25.9a63.59,63.59,0,0,1,4.32-7.47c5-5.09,10.37-9.63,17-12.39,9.75-4.07,19.52-6.7,28.85,1.12,1.12.93,1.6.08,1.94-.81.66-1.77,1.3-3.55,1.88-5.34,1.57-4.85,3.12-9.71,4.88-15.22a251.63,251.63,0,0,1-23.38,10c-13.06,4.82-26.75,6.7-40.38,8.81-27.09,4.2-54.17,8.38-81.16,13.15-18.6,3.28-37,7.3-55.37,11.71q-24.76,6-49.06,13.72a488.65,488.65,0,0,0-52.4,19.7c-10,4.48-19.65,9.54-29.32,14.62-2.83,1.48-4.82,1.76-6.84-1.22a20.66,20.66,0,0,0-4.63-4.18c-13.83-10.71-29.33-16.36-47-15.76-4.27.15-8.45,1-12.7,1.16,6.81-5.55,15.26-7.73,23.13-11,23.47-9.76,47.94-16.37,72.64-22.14C226.62,272,263,266.64,299.41,261.68c29-4,58.19-7,87.39-9.57,21.11-1.86,42.23-3.82,63.23-6.59,16.53-2.19,32.69-6.33,47.14-15.26,1.25-.78,3.05-1.22,3-3.28.63-.59,1.64-.73,2-1.65a79.65,79.65,0,0,0,3.53-13.13c-1.22,0-1.55.66-2,1.13a40.84,40.84,0,0,1-13.1,9.14c-9,3.67-20.89,2.11-25.74-7-1.09-2.06-1.89-.75-2.84.13-6.42,5.88-13.12,11.37-22,12.92-6.25,1.1-12.63,2.38-17.76-3.13a3,3,0,0,0-.49.31c-2.22-7.66-.14-14.83,2.47-22,2.43-6.62,4.78-13.28,7.11-19.93a18.42,18.42,0,0,0,.54-2.89c.13-1.08.22-2.18.38-3.26.3-2,.86-4.14-1.23-5.41s-3.93.4-5.68,1.43a7.35,7.35,0,0,0-1.17.93c-8.31,7-13.79,16.07-18.15,25.87-4.21,9.44-7.28,19.31-10.9,29-.49,1.31-.57,3-2.58,3.21-5,.58-10.06,1.18-15.13,1.32-2,.05-2.14-.82-1.71-2.4.36-1.35,1.25-2.65.77-4.26a10.45,10.45,0,0,0-3.68,2.21,46,46,0,0,1-14.8,7.48c-10.55,2.85-15.59.42-19-9.36-1,.43-1.26,1.46-1.8,2.23-5.72,8.19-13.32,13-23.53,12.82-6-.09-10.44-2.78-13-8.38-1.43-3.19-1.4-3.12-4.17-.83-5.73,4.73-11.24,9.95-18.77,11.69a89.84,89.84,0,0,1-23.33,2.46c-4.25-.15-7.2-2.55-8.79-6.52-.33-.81-.64-1.63-1.05-2.69-4.36,4.21-8.62,8.17-13.59,11.28a31.9,31.9,0,0,1-16.58,5.06c-6.49.13-11.51-1.77-13-9.35-4.58,6.5-9.76,11.28-17.12,13C177.48,260,169,259.88,165.1,252.88Zm291.06,41.83c-.06,2.2,1.33,3.17,3.21,3.63a11.79,11.79,0,0,0,9.13-1.64c8-5,13.05-12.44,17.21-20.64l1.05-2.76c1.31-3.38.3-5.5-3.18-6.52a10.77,10.77,0,0,0-2.95-.32,25.26,25.26,0,0,0-18.55,8.18C456.7,280.17,452.13,286.26,456.16,294.71ZM328.82,222.85c1.35,1.31,2.68.38,3.76-.28a20.08,20.08,0,0,0,3.86-3.21c6.05-6.32,8.8-14.45,12.06-22.28.44-1.06,1.11-2.14.5-3.38,1.22-3.44,2.41-6.89,3.69-10.31.73-2,.05-2.76-2-2.81a14.07,14.07,0,0,0-9.69,3.11c-8.52,7-13.64,16.14-16.39,26.69-.8,3.08-1.49,6.2-.59,9.4C324.73,222.21,326.05,223.67,328.82,222.85ZM212.26,209.28c.37-3.32,2.38-6.07,3.27-9.21.79-2.82-.15-3.93-3.09-3.59a17.07,17.07,0,0,0-8.61,3.8c-8.39,6.54-13.49,15.26-16.34,25.34-1,3.42-1.84,6.94-.7,10.56.66,2.11,1.84,3.49,4.21,3.47,2.93,1.4,4.87-.54,6.55-2.3C205.13,229.42,209,219.48,212.26,209.28Zm302.59-33.9a17.81,17.81,0,0,0,.33-10.54c-.83-3.66-3.23-4.75-6.76-3.48a13.37,13.37,0,0,0-3,1.39c-12.29,8.3-17.63,20.4-18.12,34.7-.18,5.56,3.52,8.34,8.13,7.5,3.2.7,5-1.63,6.74-3.49C509.15,194.12,512.31,184.88,514.85,175.38Zm-201.7-37.21c0-.47-.3-1-.12-1.41a27.86,27.86,0,0,0,2.61-13.14c-.12-3.11-1.57-3.85-4.26-2.26a19.07,19.07,0,0,0-5.89,6.23c-9.05,13.56-15.37,28.47-21.34,43.54a158.37,158.37,0,0,0-7.5,23.35c1.08-1.3,2.79-2,3.29-3.73,1,.21,1.64-.43,2.25-1.13,11.12-12.93,21.18-26.59,28.31-42.19A24.68,24.68,0,0,0,313.15,138.17Z"/><path class="cls-1" d="M126.32,169.48l.2-.21a25.7,25.7,0,0,0,2-2.51c.85-1.18,1.79-2.26,2.74-3.35,1.32-1.5,2.57-3.07,3.85-4.61,3-3.57,5.95-7.14,9-10.66,5.23-6,10.44-12.15,16.73-17.17A25.76,25.76,0,0,1,172,125.56c8.64-1.71,14.26,1.54,16.82,9.82.82-.36.33-1.24.71-1.77a13,13,0,0,1,0,5.59,54.38,54.38,0,0,1-6.42,18.47c-5.75,10.52-11.77,20.88-17.59,31.36s-11.17,21-16.11,31.88c-2.69,5.87-5.07,11.89-5.87,18.37-.78,6.25-.28,12.36,3.08,17.86,1.71,2.8,3.89,5.29,7.78,4.7.35,2,2.16,2.23,3.48,3.06a5.57,5.57,0,0,1-1.31,3c-7.87,9.69-22.82,13.36-33.21,3.69-.46-.43-.79-1.65-1.82-.65-4.32-7.37-4-15.15-2-23,2.76-10.86,8-20.72,12.69-30.77,3.87-8.21,7.86-16.38,11.78-24.57.29-.62.6-1.3-.14-1.87,1.24-2.61,3-4.88,4.54-7.35a266.3,266.3,0,0,0,14.62-29,96.89,96.89,0,0,0,3.86-10c.48-1.51.81-3.58-1.12-4.52s-3,.65-4,1.8c-2.6,2.88-5.12,5.83-7.64,8.76-10.64,12.37-20.8,25.12-29.56,38.9C111,210.63,98.08,232.46,86.19,254.84c-2.94,5.53-5.93,9.06-12.56,7.55a3,3,0,0,0-.89.08c1.23-5.6,4.15-10.52,6.52-15.64C85.64,233,92.15,219.3,98.68,205.58A77.34,77.34,0,0,0,106,179c.47-10.14-.88-19.9-5.94-29.57C97.41,159,93,167,88.91,175.07c-14.53,28.77-27.74,58.11-38.43,88.53-1.71,4.87-3.57,7.75-9.12,7.76s-10.8,1.47-16.28,1.21c1-6.76,3.8-13,6.19-19.26,4.62-12.17,10.2-23.95,15.43-35.87.49-1.13,1.86-1.87,1.52-3.37,3.71-4.12,5.41-9.31,7.65-14.21,2.29-3.36,3.63-7.24,5.71-10.7,6-9.95,11.77-20,18.23-29.66A194.19,194.19,0,0,1,96.1,138.55a2.76,2.76,0,0,0,.73-1.18,2.57,2.57,0,0,0-.19-1.36,3.44,3.44,0,0,0-.71-1.35,3.52,3.52,0,0,0-1.48-.81c-5.27-1.79-10.6-.75-15.83.62a60.77,60.77,0,0,0-13.28,5.17,58.86,58.86,0,0,0-19.08,16.6c-7.79,10.39-11.86,26-.9,38.72,1.55,1.81.09,2.16-1.18,2.44-7.49,1.7-14.73,1.39-21.63-2.51-2.54-1.44-4.18-3.9-6.75-5.21a13.38,13.38,0,0,1-3.21-7.56,33.69,33.69,0,0,1,6.66-26c7.34-9.74,16.81-16.75,27.7-21.91C60,128,73.71,124.16,88.38,125.06c9.16.57,17.42,3.3,23.37,10.74,4.94,6.18,7.2,13.57,8.72,21.2.57,2.87,1.11,5.74,1.64,8.62.21,1.15.1,2.33.38,3.47.18.76.69,1.87,1.66,1.75A3.91,3.91,0,0,0,126.32,169.48Z"/><path class="cls-2" d="M95,313.5c4.25-.17,8.43-1,12.7-1.15,17.66-.6,33.16,5,47,15.76a20.66,20.66,0,0,1,4.63,4.18c2,3,4,2.7,6.84,1.22,9.67-5.08,19.35-10.14,29.32-14.62a488.65,488.65,0,0,1,52.4-19.7q24.3-7.72,49.06-13.72c18.34-4.41,36.77-8.43,55.37-11.71,27-4.77,54.07-8.95,81.16-13.15,13.63-2.11,27.32-4,40.38-8.81a251.63,251.63,0,0,0,23.38-10c-1.76,5.51-3.31,10.37-4.88,15.22-.58,1.79-1.22,3.57-1.88,5.34-.34.89-.82,1.74-1.94.81-9.33-7.82-19.1-5.19-28.85-1.12-6.62,2.76-12,7.3-17,12.39q-21.45,3.54-42.9,7.08c-26.16,4.29-52.24,9.08-78.09,15-41.3,9.43-81.8,21.41-120.33,39.35-7.14,3.32-14.17,6.87-21,10.78a71,71,0,0,0-6.46,3.85c-2.14,1.53-3.61,1.06-5.21-.79-3.55-4.1-7.38-8-12.23-10.51-5.88-3.07-11.7-6.1-18.48-7.32-4.14-.75-8.33-2.23-12.52-2.47a68.3,68.3,0,0,0-25.67,3c-2.25.75-3.43.12-4.73-1.56a106.51,106.51,0,0,1-7.34-10.53c-1.14-1.9-.77-3.11,1.18-4Z"/><path class="cls-2" d="M121.5,270.89c1-1,1.36.22,1.82.65,10.39,9.67,25.34,6,33.21-3.69a5.57,5.57,0,0,0,1.31-3c4.45-2,5.23-6.48,6.74-10.43.2-.52-.06-1.19.52-1.59,3.87,7,12.38,7.12,19.06,5.54,7.36-1.75,12.54-6.53,17.12-13,1.52,7.58,6.54,9.48,13,9.35a31.9,31.9,0,0,0,16.58-5.06c5-3.11,9.23-7.07,13.59-11.28.41,1.06.72,1.88,1.05,2.69,1.59,4,4.54,6.37,8.79,6.52a89.84,89.84,0,0,0,23.33-2.46c7.53-1.74,13-7,18.77-11.69,2.77-2.29,2.74-2.36,4.17.83,2.51,5.6,7,8.29,13,8.38,10.21.16,17.81-4.63,23.53-12.82.54-.77.8-1.8,1.8-2.23,3.43,9.78,8.47,12.21,19,9.36a46,46,0,0,0,14.8-7.48,10.45,10.45,0,0,1,3.68-2.21c.48,1.61-.41,2.91-.77,4.26-.43,1.58-.25,2.45,1.71,2.4,5.07-.14,10.1-.74,15.13-1.32,2-.23,2.09-1.9,2.58-3.21,3.62-9.67,6.69-19.54,10.9-29,4.36-9.8,9.84-18.83,18.15-25.87a7.35,7.35,0,0,1,1.17-.93c1.75-1,3.48-2.75,5.68-1.43s1.53,3.43,1.23,5.41c-.16,1.08-.25,2.18-.38,3.26-1.62,1.79-2.31,4.07-3.32,6.18-8.34,17.42-13.65,36-20.05,54.1-.73,2.08-1.69,3-3.87,3.25q-25.36,2.39-50.71,4.94c-2.29.23-4.34.21-5.68-2.09-.38-.66-1.25-1.46-1.93-.57-4.18,5.43-10.48,4.49-16.11,5.43-4.7.78-9.49,1-14.18,1.88-3.28.58-5.13-1.16-6.69-3.39-1.36-1.94-2.57-2.51-4.4-.68-7.09,7.05-16.29,8-25.53,8.89-4.46.42-8.94.72-13.33,1.51-4.72.85-8.74-.1-11.89-3.68-1.66-1.88-2.81-1.53-4.2.11-.51.6-1.23,1-1.78,1.59-6,6.29-14,7.5-22.07,8.19-1.48.13-3,.26-4.44.51-4.08.71-7.9.65-10.85-2.9-1.13-1.36-2.11-1-3.41.17a27,27,0,0,1-31.14,4.07c-1.6-.87-2-.28-2.58.95-1.41,3-2.89,5.87-4.35,8.8a6.11,6.11,0,0,1-4,3.3c-8.39,2.44-16.78,4.89-25.13,7.44a6.65,6.65,0,0,1-6.63-1.4A40.26,40.26,0,0,1,121.5,270.89Z"/><path class="cls-2" d="M439.88,307.81c1.63.11,2.53,1.46,3.76,2.24,9.86,6.21,20.15,5.69,30.61,1.95,12.13-4.35,20.48-13,26.49-24.06,6.14-11.32,9.94-23.58,13.65-35.84,2.21-7.3,4.67-14.54,6.19-22,.33-1.64,1.88-2.23,3.1-3,2.54-1.66,4.29-2.88,5.86-4.1a77.1,77.1,0,0,0,7-6.08c.93-.95,2.06-2.25,4.34-4.86s3.36-3.86,3.83-4.48c5.67-7.33,6.33-16.28,5.86-18.25-.21-.83-.15-1.7-.33-2.54a2.17,2.17,0,0,1,.11-1.56,1.58,1.58,0,0,1,.38-.44,112.8,112.8,0,0,1,14.49,10.82c2.77,2.3,2.1,5.86,1.26,8.92-2.91,10.69-9.76,18.8-17.77,26a91.8,91.8,0,0,1-14.33,10.75c-1.12.66-1.19,1.77-1.44,2.74-3.65,14.22-7.67,28.33-13.21,41.94-4.64,11.37-10.2,22.23-19.36,30.75a43.45,43.45,0,0,1-27.77,12c-14,.81-23.35-6.57-30.87-17.23A7.8,7.8,0,0,1,439.88,307.81Z"/><path class="cls-2" d="M25.08,272.57c5.48.26,10.85-1.2,16.28-1.21s7.41-2.89,9.12-7.76c10.69-30.42,23.9-59.76,38.43-88.53C93,167,97.41,159,100,149.46c5.06,9.67,6.41,19.43,5.94,29.57-2.63,3.86-4.23,8.25-6.33,12.39A699.21,699.21,0,0,0,70.73,256.6c-2,5.15-4,10.3-5.83,15.48A53.35,53.35,0,0,0,62,281.74c-.55,3.41-3.15,4.23-5.43,4.37-6,.36-11.83,1.95-17.86,1.4a4.21,4.21,0,0,1-3.32-1.69,78.46,78.46,0,0,0-9.64-9.65C24.12,274.82,24.2,274,25.08,272.57Z"/><path class="cls-2" d="M72.74,262.47a3,3,0,0,1,.89-.08c6.63,1.51,9.62-2,12.56-7.55,11.89-22.38,24.77-44.21,38.38-65.59,8.76-13.78,18.92-26.53,29.56-38.9,2.52-2.93,5-5.88,7.64-8.76,1-1.15,2.2-2.69,4-1.8s1.6,3,1.12,4.52a96.89,96.89,0,0,1-3.86,10,266.3,266.3,0,0,1-14.62,29c-1.49,2.47-3.3,4.74-4.54,7.35-3.8,4.56-6.35,9.94-9.59,14.87-7.51,11.46-14.35,23.35-21.1,35.27-6.43,11.35-12.83,22.71-18.52,34.46-.87,1.8-2.07,2.4-4,2.83-4.36,1-7.32-.51-9.91-3.89-2.16-2.82-4.68-5.37-7.07-8C72.67,265.07,71.81,264,72.74,262.47Z"/><path class="cls-2" d="M154.36,261.84c-3.89.59-6.07-1.9-7.78-4.7-3.36-5.5-3.86-11.61-3.08-17.86.8-6.48,3.18-12.5,5.87-18.37q7.41-16.26,16.11-31.88c5.82-10.48,11.84-20.84,17.59-31.36a54.38,54.38,0,0,0,6.42-18.47,13,13,0,0,0,0-5.59,25.66,25.66,0,0,0-2.61-8.18c.22-.11.44-.31.55-.26,12.15,5.46,20.53,15.47,15.51,29.75-3.49,9.92-8.89,18.82-14.27,27.75A167.4,167.4,0,0,1,176,200.6c-12.09,15.09-18.26,32.36-17.81,51.81C158.24,256.16,156.6,259.09,154.36,261.84Z"/><path class="cls-2" d="M270.27,233.7a4.42,4.42,0,0,1-4.13-4.93c.26-6.06,2.87-11.5,5-17,.48-1.24,2.46-1.85,3.64-2.88C288,197.35,299.21,184,309.71,170c6.68-8.92,12.6-18.27,16.74-28.67A56,56,0,0,0,330,126.94c1-4.79.12-9.45-1.16-14.25,1.42-.29,2.4.46,3.4,1A23.29,23.29,0,0,1,344.73,138c-1.3,9.94-5.25,18.88-10.7,27.2a20.75,20.75,0,0,1-5.25,5.24,73.43,73.43,0,0,0-26.53,35.11c-.86,2.38-2.58,3.95-4.27,5.62A191.45,191.45,0,0,1,270.27,233.7Z"/><path class="cls-2" d="M15.8,189.68c2.57,1.31,4.21,3.77,6.75,5.21,6.9,3.9,14.14,4.21,21.63,2.51,1.27-.28,2.73-.63,1.18-2.44-11-12.72-6.89-28.33.9-38.72a61.67,61.67,0,0,1,10.12-10.61,58.34,58.34,0,0,1,12.18-7.76,59,59,0,0,1,13.85-4.38,36.45,36.45,0,0,1,6.62-.63s5.46,0,6.9,1.8c.16.2.63.81.44,1.31a.75.75,0,0,1-.25.33c-4.08,3.08-7.52,6.37-11.68,9.19-8.63,5.85-23.27,22.16-23.27,22.16h0a55,55,0,0,0-8.36,18.94c-1.08,5.07-.29,9.39,3.06,13.27-2.24,4.9-3.94,10.09-7.65,14.21a29.82,29.82,0,0,1-20.77-8.48A89.41,89.41,0,0,1,17,193.6,5.67,5.67,0,0,1,15.8,189.68Z"/><path class="cls-2" d="M421.65,225.66a3,3,0,0,1,.49-.31c5.13,5.51,11.51,4.23,17.76,3.13,8.92-1.55,15.62-7,22-12.92.95-.88,1.75-2.19,2.84-.13,4.85,9.15,16.73,10.71,25.74,7a40.84,40.84,0,0,0,13.1-9.14c.48-.47.81-1.17,2-1.13a79.65,79.65,0,0,1-3.53,13.13c-.35.92-1.36,1.06-2,1.65-5,1.85-10.11,3.52-15,5.61-3.82,1.62-7.09,1.49-10-1.63-1.72-1.86-3.08-1.7-4.9,0-6.32,6.05-13.76,9.55-22.69,9.58a47.64,47.64,0,0,0-8,.67,10.54,10.54,0,0,1-10.38-3.7C426,234,422.62,230.6,421.65,225.66Z"/><path class="cls-2" d="M228.15,235.92c-3.34.22-4.63-.93-4.43-4.19a33.94,33.94,0,0,1,2.33-9.18c4.3-12.33,9.28-24.41,13.32-36.84.5-1.56.35-3.39,1.72-4.64a122.68,122.68,0,0,1,11.28,15,2.72,2.72,0,0,1,.3,2.77c-3,7.26-5.56,14.69-8.9,21.77-1.75,3.73-5.21,6.47-8.21,9.37A36.15,36.15,0,0,1,228.15,235.92Z"/><path class="cls-2" d="M548.54,182.87c-.5,1-1,2-1.59,2.95a90.61,90.61,0,0,1-8.86,12.52,100.29,100.29,0,0,1-7.64,8c-2,1.87-3.76,3.39-5.14,4.53a15.56,15.56,0,0,1,.13-3.42c0-.11,0-.34.1-.61,0,0,.2-1.09.43-2.1.44-1.87,1.22-4.09,1.29-4.3,2.62-8,.7-2.08,8.48-26.3,1.84-5.76,3.69-11.52,5.51-17.28.8-2.53,1.3-5.16,1.94-7.74,3.8,4.39,7.54,8.84,11.41,13.17,1.8,2,1.24,3.72.23,5.9C552.58,173.05,550.91,178.11,548.54,182.87Z"/><path class="cls-2" d="M364.54,218.85c-3.7-.12-4.87-1.43-4.36-5.26.83-6.13,3.35-11.79,5.34-17.56,3.28-9.54,6.76-19,9.82-28.62a6,6,0,0,1,.73-1.23c4.24,4.07,7.61,8.88,11.24,13.47a2.73,2.73,0,0,1,.27,3c-3,7.55-5.51,15.35-9.13,22.6C375.5,211.19,370.09,215.25,364.54,218.85Z"/><path class="cls-2" d="M447.37,211.39c-3.57-.16-4.63-1.19-4.53-4.69.1-3.94,1.77-7.49,3.06-11.11,3.13-8.77,6.54-17.43,9.29-26.33a5.51,5.51,0,0,0,.1-1.16,23.92,23.92,0,0,0-1.06-11.22,5.79,5.79,0,0,1,3.2,1.83c1.71,1.51,3.4,3.06,4.95,4.73,2.78,3,6.06,5.87,7.4,9.6,1.43,4-2.4,7.18-3.65,10.83-1.5,4.4-3.45,8.66-4.45,13.23a7.93,7.93,0,0,1-2.18,3.79A84.17,84.17,0,0,1,447.37,211.39Z"/><path class="cls-2" d="M123.81,170.37a1.39,1.39,0,0,1-.76-.23c-.43-.28-.8-.88-.89-4.45,0-.8,0-.78,0-1.63,0-1.08-.09-2.17-.17-3.25q-.24-3.23-.8-6.41t-1.42-6.32q-.87-3.17-2-6.24c-.32-.85-.66-1.7-1-2.54-.18-.42-.36-.85-.55-1.27-.09-.2-.19-.41-.28-.62a3.47,3.47,0,0,0-.28-.61,8.7,8.7,0,0,1,4.74,2.53,43.57,43.57,0,0,1,11,17.17,3.6,3.6,0,0,1,.21,1.23,7.61,7.61,0,0,1-.27,2.69,10.4,10.4,0,0,1-1.32,2.78,27.89,27.89,0,0,1-1.58,2.33C125.51,169.47,124.84,170.43,123.81,170.37Z"/><path class="cls-2" d="M279.94,190.75c-.5,1.74-2.21,2.43-3.29,3.73a158.37,158.37,0,0,1,7.5-23.35c6-15.07,12.29-30,21.34-43.54a19.07,19.07,0,0,1,5.89-6.23c2.69-1.59,4.14-.85,4.26,2.26A27.86,27.86,0,0,1,313,136.76c-.18.37.07.94.12,1.41a1,1,0,0,0-1.08.72c-3.13,8.17-7.48,15.72-12,23.17C294,172.06,286.4,181,279.94,190.75Z"/><path class="cls-2" d="M495.47,205c-4.61.84-8.31-1.94-8.13-7.5.49-14.3,5.83-26.4,18.12-34.7a13.37,13.37,0,0,1,3-1.39c3.53-1.27,5.93-.18,6.76,3.48a17.81,17.81,0,0,1-.33,10.54c-2.38.42-3.68,2.19-4.93,4a138.63,138.63,0,0,0-9.79,17.33C498.71,199.52,497.48,202.46,495.47,205Z"/><path class="cls-2" d="M191,239.65c-2.37,0-3.55-1.36-4.21-3.47-1.14-3.62-.27-7.14.7-10.56,2.85-10.08,7.95-18.8,16.34-25.34a17.07,17.07,0,0,1,8.61-3.8c2.94-.34,3.88.77,3.09,3.59-.89,3.14-2.9,5.89-3.27,9.21-2.37,1.84-3.29,4.64-4.63,7.13-3.37,6.27-6.49,12.69-10.73,18.45A12.88,12.88,0,0,1,191,239.65Z"/><path class="cls-2" d="M328.82,222.85c-2.77.82-4.09-.64-4.76-3.07-.9-3.2-.21-6.32.59-9.4,2.75-10.55,7.87-19.66,16.39-26.69a14.07,14.07,0,0,1,9.69-3.11c2,0,2.69.84,2,2.81-1.28,3.42-2.47,6.87-3.69,10.31-1.39,0-1.33,1.22-1.75,2-2.81,5.34-5.54,10.73-8.41,16A29.34,29.34,0,0,1,328.82,222.85Z"/><path class="cls-2" d="M456.16,294.71c-4-8.45.54-14.54,5.92-20.07a25.26,25.26,0,0,1,18.55-8.18,10.77,10.77,0,0,1,2.95.32c3.48,1,4.49,3.14,3.18,6.52l-1.05,2.76c-6,2.23-11.43,5.38-15,10.95-1.24,1.91-2.44,3.84-3.74,5.7C463.75,297.27,460.77,297.8,456.16,294.71Z"/><path class="cls-3" d="M546.67,187.21c.14-.13.27-.27.4-.41C546.76,186.77,546.61,186.89,546.67,187.21Z"/><path class="cls-4" d="M481.15,74.55c2,0,3,.92,3.09,2.94.08,2.75-1.28,5.13-3.33,5.36-2.73.29-5.48.37-8.23.5q-83.24,4-148.51,7.17Q275,92.88,225.85,95.17L125,100c-3,.14-4.22-.83-4.45-3.6s1.42-5,4.17-5.11c6.44-.35,12.87-.66,19.3-1q35.4-1.68,70.79-3.34Q254.57,85.13,321.32,82q54.32-2.58,108.61-5.24c16.47-.79,32.95-1.51,49.42-2.26C480,74.52,480.55,74.54,481.15,74.55Z"/><path class="cls-1" d="M123.21,24c.33-2.89,1.07-3.62,4.14-3.74q27.14-1.1,54.28-2.15,35.37-1.41,70.74-2.84,45.28-1.8,90.56-3.55c24.53-1,49.05-2,73.58-3,19-.74,38.07-1.41,57.11-2.12,2.74-.1,5.48-.28,8.23-.36,2-.07,4.21-.36,4.57,2.46.41,3.26-1.26,5.44-4.27,5.57-11.58.5-23.16.94-34.74,1.39q-26.88,1.06-53.76,2.11c-22.39.87-44.77,1.69-67.15,2.58-18.1.71-36.19,1.5-54.29,2.25L215.62,25Q181.78,26.37,148,27.7c-7.11.28-14.24.5-21.36.72C123.84,28.5,122.85,27.19,123.21,24Z"/><path class="cls-1" d="M156.82,64.81c-.6,4.77-2.24,9.26-6.68,12A18.31,18.31,0,0,1,139.25,79c-8.46-.6-14.28-7.69-13.78-16.78.66-11.76,8.26-20,19-20.56a17.12,17.12,0,0,1,10.1,2.47,4,4,0,0,1,2.2,2.9,4.89,4.89,0,0,1-.59,2.17,34.79,34.79,0,0,1-1.64,3.69,4,4,0,0,1-1.37,1.67c-1.38.77-3.26-.68-4.37-1.37l-.55-.35a6.77,6.77,0,0,0-6.62-.6c-4,1.65-6.18,6.46-5.57,10.59a7.53,7.53,0,0,0,1.59,3.8,5.91,5.91,0,0,0,7.63,1.24c.35-.21.72-.57.61-1s-.62-.51-1-.54l-2.15-.18a2.26,2.26,0,0,1-1.23-.34,2.3,2.3,0,0,1-.54-2.05l.23-3.54a4,4,0,0,1,.86-2.68,3.34,3.34,0,0,1,1.75-.76,22.49,22.49,0,0,1,4.49-.27c2.08,0,4.17,0,6.25.13a2.79,2.79,0,0,1,2.3.87,2.86,2.86,0,0,1,.3,1.56A52.07,52.07,0,0,1,156.82,64.81Z"/><path class="cls-1" d="M162.92,59.31c.54-5,1-10.09,1.47-15.12.18-2.08,1.08-2.77,3.09-2.84,6.08-.19,12.17-.51,18.25-.85,1.83-.11,2.62.28,2.42,2.41a54.14,54.14,0,0,1-.6,5.68,3,3,0,0,1-.47,1.23c-.59.76-1.81.64-2.68.67l-9,.38a1.89,1.89,0,0,0-1.22.32c-.65.56-.78,2.11.14,2.46a6.11,6.11,0,0,0,2.41,0l5.78-.27a2.28,2.28,0,0,1,1.59.33,1.55,1.55,0,0,1,.46,1.09,5.44,5.44,0,0,1-.13,1.2,56.14,56.14,0,0,1-.8,5.94,1.9,1.9,0,0,1-.52,1,2.06,2.06,0,0,1-1.09.4,51.83,51.83,0,0,1-7.58.41c-.58,0-1.37,0-1.79.45a2.63,2.63,0,0,0-.39,1.48c-.13,1.51.85,1.42,1.81,1.4,2.91-.06,5.83-.08,8.74-.23a2.57,2.57,0,0,1,1.86.39c.6.53.45,1.54.4,2.25a45,45,0,0,1-.58,5.19,2,2,0,0,1-1.71,1.83,30.9,30.9,0,0,1-3.6.19l-4.75.21-9.52.41-1.1,0c-2.23.13-3.09-.56-2.75-3C161.76,69.39,162.37,64.35,162.92,59.31Z"/><path class="cls-1" d="M198.83,62.64c.4-3.59.75-7.18,1.23-10.75.18-1.35-.14-2-1.55-1.81a1.13,1.13,0,0,1-.26,0c-1.7-.38-4.47,1-5-.6-.8-2.6.09-5.58.74-8.33.24-1,1.35-.95,2.18-1,6.86-.31,13.72-.57,20.58-.9,1.84-.09,2.53.69,2.25,2.46-.07.42-.08.86-.14,1.28-1,7.63,0,6.2-6.82,6.49-1.72.07-1.67,1.06-1.79,2.17Q209.14,61.89,208,72.14c-.39,3.55-.41,3.56-4.08,3.76-1.37.08-2.75,0-4.11.17-1.86.16-2.47-.63-2.25-2.43.47-3.66.84-7.33,1.25-11Z"/><path class="cls-1" d="M437.68,44.65c1.51-4,3.07-8,4.51-12,.74-2.08,1.79-3.13,4.27-3.11,7.23.06,5.69-1,7.09,5.6.67,3.13,1.08,6.31,2.1,9.52,1.38-4,2.91-8,4.09-12,.83-2.9,2.28-4.07,5.41-4.08,7.39,0,7.34-1.33,4.54,6.34-3.28,8.94-6.66,17.85-9.87,26.82a3.79,3.79,0,0,1-4.12,2.93c-6.89.07-6.89.17-8.14-6.72a41.24,41.24,0,0,0-1.9-7.54c-1.43,3.82-3,7.58-4.22,11.47-.85,2.82-2.44,3.63-5.22,3.58-6.11-.1-6.06,0-7.05-6.13-1.36-8.48-2.84-16.93-4.21-25.41-.49-3-.29-3.18,2.82-3.33,1.2-.06,2.4,0,3.6-.08,3.84-.11,3.85-.12,4.38,3.76q.71,5.2,1.39,10.42Z"/><path class="cls-1" d="M362.61,53.79c-.48,4.31-1,8.61-1.41,12.92-.16,1.78-.76,2.64-2.67,2.56s-3.94.11-5.91.18c-1.28,0-1.9-.45-1.74-1.84q1.9-16.12,3.75-32.24c.06-.51.08-1.14.62-1.34,2.56-.92,5.25-.54,7.88-.63,1.6-.06,2,1.42,2.61,2.51,2,3.76,4,7.55,6.46,11.36.31-2.81.62-5.62.95-8.42.84-7.28-.22-6,6.91-6.26.52,0,1,0,1.55,0,2-.28,2.82.46,2.56,2.59q-1.83,15.09-3.49,30.2c-.23,2.14-1.2,2.62-3.25,3-4.84.8-7.67-1-9.46-5.47-1.27-3.2-3.23-6.12-4.89-9.17Z"/><path class="cls-1" d="M420.59,49.06c-1.19,11.17-9.5,18.74-20,18.3a13.85,13.85,0,0,1-13.06-10.2c-2.86-9.68,3-25.48,18-26,9.31-.35,15.65,6.08,15.34,15.91C420.79,47.7,420.66,48.38,420.59,49.06Zm-23.07.28c-.55,4.86,1.67,7.82,5.5,7.58s7-4.3,7.09-8.81c.07-3.79-1.64-6.07-4.83-6.44-3.58-.42-6.72,2.4-7.63,6.85C397.58,48.85,397.54,49.19,397.52,49.34Z"/><path class="cls-1" d="M327.79,58.53l-1,9.38a3.12,3.12,0,0,1-.82,2.14,3.09,3.09,0,0,1-1.87.48l-5.54.2a1.84,1.84,0,0,1-2.22-2.53l3.2-28.44a15.06,15.06,0,0,1,.44-3.76c.36-.85,1.49-1.08,2.31-1.16a42.84,42.84,0,0,1,4.67-.25,3.21,3.21,0,0,1,2.5.76,2.64,2.64,0,0,1,.55,1.49c.33,2.84-1,5.8-.07,8.52l6.29-7.81a11.06,11.06,0,0,1,3-2.88,11,11,0,0,1,5.45-1l3.58,0a1.38,1.38,0,0,1,.83.18c.54.4.2,1.25-.17,1.8q-3.75,5.53-8,10.69a10.7,10.7,0,0,0-2.52,4.17c-.63,2.66.92,5.29,2.28,7.66a79.58,79.58,0,0,1,4.55,9.33,1.92,1.92,0,0,1,.15,1.56c-.3.56-1,.67-1.66.71q-3.52.24-7.05.18a2.89,2.89,0,0,1-3.25-2l-4.9-9.58Z"/><path class="cls-1" d="M299,54.23c-1.17,10.35-9.46,18.14-19.13,18-8.35-.14-14.26-5.82-14.63-14.16a22.06,22.06,0,0,1,6.51-17c5.07-5.15,13.31-6.65,19.25-3.79C296.76,40,299.89,46.62,299,54.23Zm-10.46-.73c.07-2.17.16-4.77-2.29-6.32a5.69,5.69,0,0,0-6.31.13c-2.82,1.74-4.69,6.23-4.07,9.66a5.4,5.4,0,0,0,8.78,3.58C287,58.91,288.12,56.59,288.56,53.5Z"/><path class="cls-1" d="M244.27,60c.39-3.5.73-7,1.2-10.5.21-1.53,0-2.11-1.81-2-5.25.29-5.26.19-4.7-5,.49-4.58.49-4.65,5-4.87,6.08-.3,12.18-.46,18.27-.72,1.87-.07,2.78.63,2.43,2.59-.07.43-.09.86-.14,1.28-.62,5.83-.61,5.91-6.51,6.21-1.66.09-1.91.82-2.06,2.18-.77,6.91-1.7,13.81-2.41,20.74-.23,2.2-1.21,3-3.29,2.89-.6,0-1.2-.06-1.8-.07-5.59-.12-5.59-.12-4.95-5.8C243.76,64.63,244,62.33,244.27,60Z"/></svg>