<svg width="1512" height="623" viewBox="0 0 1512 623" fill="none" xmlns="http://www.w3.org/2000/svg">
<g clip-path="url(#clip0_123_2361)">
<path fill-rule="evenodd" clip-rule="evenodd" d="M1512 19.6184C1463.51 352.132 1275.99 607 751.5 607C232.863 607 49.1139 357.787 0 30.7187V623H1512V19.6184Z" fill="#1E1E1E"/>
<path d="M1255.01 568.818C1258.75 564.013 1263.96 561.77 1269.78 560.781C1272.19 560.373 1274.66 560.219 1277.72 559.914L1257.91 551.076C1261.5 540.635 1270.22 539.149 1280.1 539.972C1280.04 539.625 1280.06 539.428 1279.97 539.343C1279.49 538.822 1278.96 538.323 1278.44 537.826C1272.81 532.444 1268.81 525.583 1266.9 518.03C1266.59 516.815 1266.39 515.816 1267.77 514.964C1270.89 513.118 1274.55 512.379 1278.14 512.865C1281.74 513.351 1285.06 515.034 1287.59 517.643C1288.23 518.332 1288.85 519.046 1289.47 519.744C1289.4 515.585 1289.02 511.679 1289.34 507.854C1289.68 503.917 1290.75 500.053 1293.71 497.252C1296.23 498.961 1298.39 500.74 1300.82 502.052C1310.36 507.184 1315.99 515.081 1318.55 525.528C1320.31 532.733 1322.58 539.791 1324.64 546.909C1324.88 547.572 1325.18 548.215 1325.52 548.832L1326.24 548.667C1326.3 547.948 1326.3 547.226 1326.24 546.508C1325.63 542.577 1324.95 538.651 1324.31 534.718C1323.11 527.335 1321.68 520.026 1321.82 512.434C1321.95 504.098 1326.5 497.067 1327.86 488.785C1336.15 495.567 1338.49 504.754 1339.09 514.378C1341.9 512.976 1344.34 511.471 1346.99 510.484C1353.21 508.171 1359.16 505.613 1362.55 499.042C1363.39 500.627 1363.96 502.34 1364.24 504.112C1365.09 511.756 1362.91 519.429 1358.18 525.493C1353.66 531.424 1348.35 536.771 1343.46 542.426C1341.16 545.061 1338.95 547.777 1336.82 550.574C1336.44 551.073 1336.66 552.079 1336.62 552.846L1337.34 552.956C1344.78 544.754 1353.88 538.741 1363.32 533.175C1369.45 529.557 1376 527.602 1383.14 527.751C1387.58 527.84 1392.02 527.994 1396.74 528.118C1396.67 528.812 1396.78 529.817 1396.44 530.628C1394.92 534.196 1393.78 538.081 1391.54 541.157C1386.22 548.494 1378.37 552.756 1370.15 555.86C1362.95 558.587 1355.32 560.221 1347.87 562.318C1347.02 562.562 1346.19 562.884 1345.34 563.166L1345.51 563.838L1389.85 555.595C1386.39 558.331 1382.26 559.48 1378.15 560.5C1374.04 561.52 1369.94 562.11 1365.83 562.887C1368.29 563.846 1370.7 564.398 1373.05 565.113C1381.03 567.537 1388.12 565.252 1394.45 560.586C1396.2 559.33 1397.67 557.716 1398.76 555.851C1399.77 554.08 1400.44 552.14 1400.76 550.126C1401.09 548.223 1401.43 546.138 1400.54 543.852C1400.49 543.7 1400.43 543.581 1400.39 543.496C1399.67 543.138 1398.89 542.889 1398.09 542.755C1396.88 542.57 1395.64 542.639 1394.45 542.956C1393.75 543.143 1393.07 543.375 1392.4 543.651C1390.39 544.419 1388.31 544.975 1386.29 545.7C1386.26 545.697 1386.19 545.738 1386.17 545.715C1386.07 545.579 1387.88 544.023 1390.24 542.093C1394.17 540.659 1396.86 540.724 1398.61 541.093C1399.36 541.249 1402.5 542.004 1402.5 542.004C1402.5 542.004 1403.08 545.725 1403.13 546.032C1403.61 549.28 1401.87 554.968 1398.69 559.336C1393.66 566.241 1386.27 568.154 1384.11 568.632L1398.58 584.269C1392.67 589.763 1385.84 586.455 1379.26 585.784C1380.37 587.251 1381.43 588.529 1382.36 589.891C1386.13 595.399 1388.9 601.216 1387.91 608.198C1387.68 609.793 1387.02 610.295 1385.53 609.726C1382.62 608.624 1379.64 607.686 1376.83 606.372C1376.5 606.213 1363.79 600.938 1360.4 597.112C1358.69 595.732 1360.62 596.24 1360.81 595.504C1363.32 598.178 1381.26 605.958 1385.8 607.606C1385.92 602.011 1384.75 597.525 1381.88 593.657C1377.51 587.767 1371.96 583.366 1364.86 581.106C1358.71 579.156 1352.6 577.103 1346.46 575.091C1345.5 574.778 1344.51 574.586 1343.53 574.342L1343.14 574.948C1343.8 575.567 1344.51 576.135 1345.26 576.647C1351.57 580.384 1358.03 583.872 1364.18 587.835C1368.22 590.456 1371.86 593.763 1375.64 596.778C1376.5 597.463 1377.3 598.217 1378.11 598.935L1377.33 599.489C1371.99 596.066 1366.73 592.554 1361.29 589.244C1355.85 585.935 1350.39 582.865 1344.92 579.688L1344.59 580.193C1345.17 580.796 1345.79 581.366 1346.44 581.901C1349.35 583.986 1352.09 586.297 1354.64 588.813C1358.69 592.952 1362.48 597.327 1366.22 601.763C1367.8 603.652 1369.44 605.511 1370.94 607.452C1372.26 609.253 1373.35 611.215 1374.17 613.29C1374.38 613.799 1374.6 614.308 1374.79 614.82C1375.84 617.367 1376.39 620.091 1376.41 622.845C1376.4 623.709 1375.67 625.309 1375.29 625.302C1372.99 625.252 1373.04 626.941 1372.71 628.352C1369.74 640.992 1378.91 659.845 1398.58 658.233C1406.34 657.601 1412.44 655.113 1415.16 646.996C1416.96 641.617 1420.93 637.705 1425.35 634.294C1426.45 633.449 1427.64 632.734 1429 631.815C1429.52 633.225 1429.97 634.245 1430.25 635.3C1433.34 646.425 1429.18 655.574 1418.75 660.388C1410.62 664.139 1402.13 664.381 1393.46 662.622C1376.5 659.2 1365.68 642.044 1369.98 625.277C1370.15 624.604 1370.23 623.906 1370.38 623.069C1366.85 621.943 1363.44 620.863 1360.04 619.767C1356.64 618.671 1353.19 617.549 1349.6 616.385C1351.53 621.021 1352.27 625.678 1350.74 630.471C1349.97 633.019 1348.58 635.336 1346.69 637.214C1345.21 638.727 1343.24 639.677 1341.14 639.9C1341.04 639.915 1340.95 639.905 1340.86 639.871C1340.8 639.838 1340.74 639.794 1340.7 639.74C1338.44 637.58 1336.36 635.239 1334.48 632.742C1333.46 631.301 1332.53 629.793 1331.72 628.227C1331.54 627.937 1331.43 627.612 1331.39 627.275C1331.4 626.968 1331.46 626.665 1331.58 626.382C1331.86 625.591 1332.13 624.821 1332.4 624.014C1332.52 624.483 1332.72 624.927 1333 625.324C1334.71 628.125 1336.6 630.812 1338.66 633.37C1339.35 634.25 1340.09 635.082 1340.9 635.859C1341.2 636.153 1341.53 636.409 1341.9 636.623C1342.02 636.707 1342.17 636.754 1342.32 636.761C1342.45 636.742 1342.57 636.698 1342.68 636.631C1343.88 636.074 1344.97 635.333 1345.93 634.435C1347.59 632.725 1348.8 630.625 1349.43 628.328C1349.57 627.808 1349.68 627.278 1349.74 626.742C1349.8 626.235 1349.76 625.719 1349.81 625.211C1349.62 620.106 1347.4 615.708 1344.95 611.335C1343.69 609.415 1342.64 607.365 1341.82 605.221L1334.68 589.007C1334.65 588.934 1334.44 588.938 1334.36 588.919C1334.69 590.94 1335.06 593.749 1335.3 597.116C1335.73 604.001 1335.47 610.912 1334.51 617.744C1334.51 617.744 1332.9 629.924 1328.98 635.164C1327.97 636.504 1326.67 637.589 1325.17 638.332C1324.6 638.582 1324 638.77 1323.38 638.893C1319.83 634.512 1317.28 629.407 1315.91 623.936C1314.54 618.465 1314.38 612.76 1315.45 607.222C1315.82 604.875 1316.22 603.012 1316.5 601.848C1318.14 594.833 1319.01 591.438 1320.37 585.316C1320.45 584.663 1320.47 584.004 1320.43 583.347L1319.82 583.158C1319.33 583.892 1318.88 584.663 1318.5 585.462C1316.29 591.019 1314.14 596.599 1311.95 602.164C1308.63 610.578 1304.04 617.97 1295.95 622.714C1292.62 624.659 1288.86 626.436 1289.04 631.555C1288.07 630.983 1287.19 630.484 1286.9 629.747C1286.16 627.833 1285.35 625.847 1285.18 623.841C1284.5 616.261 1286.99 609.551 1291.37 603.447C1292.81 601.441 1294.27 599.491 1295.73 597.514C1285.34 603.832 1274.13 605.351 1262.14 604.113C1262.31 603.343 1262.28 602.115 1262.84 601.283C1264.07 599.449 1265.48 597.733 1267.04 596.159C1271.48 591.681 1276.04 587.307 1280.9 582.518C1274.84 583.116 1269.63 582.481 1264.97 578.968C1262.18 576.869 1259.07 575.199 1256.02 573.488C1253.3 572.011 1253.06 571.3 1255.01 568.818ZM1275.23 541.042C1268.98 541.155 1264.33 544.061 1261.2 549.197C1267.85 552.652 1274.14 556.218 1280.7 559.226C1283.74 560.628 1287.23 561.189 1290.59 561.67C1296.29 562.492 1302.04 562.947 1307.77 563.556C1296.6 558.185 1283.93 556.535 1273.17 550.161L1273.41 549.453L1306.55 559.005L1306.77 558.564C1305.78 557.73 1304.74 556.88 1303.71 556.079C1299.61 552.793 1295.65 549.285 1291.36 546.292C1286.57 542.874 1281.16 540.933 1275.22 541.04L1275.23 541.042ZM1273.12 515.96C1269.75 516.621 1269.41 517.265 1270.67 520.73C1273.65 528.851 1279.1 535.832 1286.25 540.686C1291.41 544.198 1296.37 548.001 1301.45 551.629C1304.15 553.536 1306.92 555.379 1309.66 557.246L1309.99 556.742C1309.91 556.615 1309.86 556.436 1309.74 556.37C1302.13 551.782 1297.15 544.749 1292.27 537.623C1287.98 531.347 1282.85 525.971 1276.09 522.347C1275.97 522.303 1275.87 522.234 1275.78 522.143C1275.7 522.053 1275.64 521.944 1275.6 521.826C1276.97 521.545 1278.39 521.604 1279.73 521.999C1281.07 522.394 1282.29 523.112 1283.29 524.09C1286.76 527.474 1290 531.079 1293 534.882C1295.54 538.143 1297.54 541.842 1299.74 545.315C1302.91 550.386 1308.32 552.37 1312.93 555.467L1313.52 554.99C1313.06 554.277 1312.71 553.414 1312.09 552.874C1303.01 544.939 1297.52 534.391 1291.34 524.363C1286.9 517.257 1280.91 514.418 1273.1 515.958L1273.12 515.96ZM1320.73 543.222C1320.15 541.002 1319.61 538.784 1318.99 536.56C1317.71 531.878 1316.43 527.192 1315.05 522.533C1313.39 516.554 1309.71 511.337 1304.64 507.774C1301.12 505.306 1297.6 502.886 1293.81 500.27C1293.29 501.044 1292.84 501.864 1292.47 502.718C1290.09 509.914 1289.28 517.164 1293.45 523.961C1299.12 533.201 1304.83 542.445 1313.23 549.604C1316.8 552.682 1316.72 552.75 1320.9 549.567C1316.69 540.358 1312.52 531.273 1308.35 522.187C1313.92 528.312 1316.59 536.143 1320.73 543.222ZM1332.98 498.339C1332.67 497.567 1332 496.934 1331.18 495.794C1329.88 497.141 1328.64 498.223 1327.69 499.477C1324.76 503.43 1324.32 508.133 1323.83 512.837C1322.96 520.993 1325.06 528.768 1326.99 536.66C1328.18 527.875 1329.36 519.09 1330.56 510.303L1331.7 510.489C1331.65 512.853 1331.73 515.227 1331.49 517.575C1330.93 522.801 1330.04 527.997 1329.65 533.234C1329.29 538.054 1329.4 542.923 1329.31 547.773C1329.33 548.085 1329.42 548.388 1329.57 548.664C1329.61 548.76 1329.83 548.778 1330.3 548.958C1330.34 547.651 1330.43 546.446 1330.42 545.246C1330.37 538.801 1332.34 532.813 1334.86 527.029C1339.21 517.08 1336.73 507.682 1332.98 498.339ZM1338.1 543.19C1338.79 542.492 1339.45 541.763 1340.18 541.112C1344.13 537.532 1348.3 534.17 1352.02 530.365C1356.86 525.438 1360.08 519.145 1361.24 512.333C1361.59 510.357 1361.53 508.311 1361.66 506.23C1356.35 508.958 1351.42 511.457 1346.53 514.036C1345.7 514.51 1344.96 515.146 1344.37 515.906C1337.72 524.214 1332.73 533.238 1332.72 544.265C1332.75 545.763 1333.06 547.243 1333.63 548.631C1335.67 543.45 1336.19 537.778 1340.33 532.772L1337.3 542.706L1338.1 543.19ZM1346.11 571.81C1356.43 576.881 1367.42 580.455 1378.75 582.426C1382.6 583.078 1386.39 584.048 1390.25 584.636C1391.71 584.861 1393.28 584.418 1395.5 584.239C1394.29 582.966 1393.66 582.294 1393.01 581.632C1391.4 579.981 1389.57 578.47 1388.18 576.67C1380.57 567.035 1370.14 564.387 1358.63 564.551C1354.5 564.609 1350.38 565.397 1346.27 565.937C1345.68 566.015 1345.13 566.571 1344.59 566.909C1345.09 567.286 1345.57 567.86 1346.15 568.013C1352.06 569.608 1358.01 571.093 1363.92 572.72C1365.22 573.125 1366.39 573.868 1367.32 574.873L1344.3 569.528C1344.19 569.824 1344.08 570.114 1343.96 570.41C1344.65 570.923 1345.37 571.391 1346.11 571.81ZM1345.86 608.769C1347.49 612.825 1350.68 614.902 1354.76 615.999C1361.06 617.694 1367.3 619.491 1373.78 621.32C1373.7 620.619 1373.83 619.392 1373.39 618.422C1371.86 615.02 1370.72 611.223 1368.37 608.48C1361.17 600.076 1354.37 591.278 1345.72 584.227C1344.12 582.917 1342.41 581.715 1340.82 580.402C1339.68 579.428 1338.88 579.591 1338.05 581.111L1355.32 605.49C1347.65 598.936 1342.36 590.336 1335.52 583.116C1338.96 591.665 1342.41 600.216 1345.86 608.769ZM1345.64 559.986C1353.16 558.205 1360.87 556.963 1368.11 554.396C1375.77 551.67 1382.61 547.069 1388.45 541.261C1391.47 538.283 1393.03 534.459 1394.23 530.436C1383.41 528.914 1373.03 529.673 1364.02 536.008C1356.34 541.399 1349.2 547.555 1341.83 553.384C1341.49 553.604 1341.22 553.905 1341.03 554.26C1340.78 554.945 1340.58 555.644 1340.42 556.354C1341.09 556.389 1341.76 556.358 1342.42 556.264C1352.39 553.864 1362.02 550.634 1370.87 545.34C1371.19 545.186 1371.53 545.068 1371.87 544.988C1364.06 553.334 1353.31 555.662 1343.13 559.207L1343.29 559.979C1344.06 560.082 1344.85 560.093 1345.62 560.011L1345.64 559.986ZM1318.25 604.394C1317.23 610.941 1316.27 617.106 1318.46 624.319C1318.46 624.319 1319.01 626.121 1323.88 637.013C1324.03 636.817 1324.21 636.644 1324.41 636.497C1325.11 635.984 1325.85 635.15 1327.09 633.306C1328.26 631.54 1329.14 629.601 1329.71 627.56C1332.09 619.177 1332.19 610.512 1332.32 601.927C1332.39 597.206 1331.47 592.455 1330.83 587.734C1330.69 586.639 1329.92 585.58 1329.44 584.504C1327.21 592.094 1327.43 599.913 1324.29 607.006C1324.36 603.651 1324.8 600.356 1325.05 597.041C1325.34 593.153 1325.56 589.251 1325.62 585.351C1325.64 584.591 1324.82 583.813 1324.38 583.06L1323.65 583.376C1323.5 583.899 1323.32 584.42 1323.18 584.945C1321.64 590.989 1319.23 598.074 1318.25 604.393L1318.25 604.394ZM1325.23 581.508C1334.07 582.351 1340.08 577.359 1341.01 568.406C1341.94 559.609 1336.26 552.166 1328.03 551.372C1319.38 550.534 1312.21 556.254 1311.24 564.756C1310.33 572.778 1316.96 580.716 1325.22 581.508L1325.23 581.508ZM1287.47 620.269C1287.44 621.701 1287.55 623.138 1287.63 624.566C1287.69 624.919 1287.79 625.264 1287.94 625.592C1295.05 620.507 1302.47 615.802 1306.29 607.57C1310.1 599.338 1313.69 590.824 1317.32 582.417C1317.49 582.009 1317.09 581.356 1316.95 580.817C1316.4 580.964 1315.7 580.943 1315.35 581.284C1309.32 587.191 1303.18 592.995 1297.41 599.134C1291.86 605.037 1287.65 611.765 1287.47 620.268L1287.47 620.269ZM1277.23 588.951C1273.98 592.342 1270.53 595.537 1267.22 598.866C1266.24 599.843 1265.44 600.988 1264.56 602.055L1264.94 602.77C1268.55 602.479 1272.22 602.465 1275.76 601.837C1290.73 599.061 1303.72 592.733 1313.05 580.209C1313.5 579.449 1313.64 578.549 1313.46 577.688C1304.32 584.817 1294.29 590.731 1283.62 595.283C1292.41 588.319 1302.33 582.912 1310.98 575.778L1310.67 575.205C1310.16 575.269 1309.65 575.359 1309.15 575.475C1303.12 577.258 1297.11 579.135 1291.06 580.818C1285.78 582.205 1281 585.021 1277.22 588.956L1277.23 588.951ZM1266.2 577.577C1267.79 578.825 1270.04 580.047 1271.96 579.992C1283.98 579.65 1295.75 577.694 1306.91 572.954C1307.68 572.625 1308.39 572.161 1309.61 571.497C1287.56 572.392 1281.1 571.9 1276.72 568.978C1281.49 569.247 1286.03 569.741 1290.57 569.706C1295.97 569.67 1301.42 569.239 1306.79 568.833C1307.51 568.78 1308.15 567.899 1308.84 567.431C1308.14 566.942 1307.48 566.116 1306.74 566.02C1296.61 564.766 1286.51 563.331 1276.33 562.578C1272.55 562.295 1268.59 563.374 1264.82 564.226C1263.35 564.572 1261.97 565.235 1260.78 566.169C1259.59 567.102 1258.62 568.284 1257.94 569.632C1260.8 572.441 1263.3 575.255 1266.2 577.582L1266.2 577.577Z" fill="#092B70"/>
<path d="M1332.28 567.259C1332.37 566.566 1332.33 565.862 1332.14 565.188C1331.96 564.514 1331.64 563.885 1331.2 563.337C1330.77 562.79 1330.23 562.336 1329.61 562.003C1329 561.67 1328.32 561.464 1327.63 561.399C1324.84 561.102 1322.1 563.477 1321.69 566.5C1321.33 569.161 1323.35 571.589 1326.22 571.937C1329.4 572.313 1331.92 570.367 1332.28 567.259Z" fill="#092B70"/>
<path d="M199.198 668.614L168.08 659.969C183.48 647.402 200.059 638.112 221.646 640.576C217.342 633.784 213.018 627.508 209.292 620.912C205.295 613.838 201.198 607.021 194.718 601.784C191.497 599.174 192.213 596.437 196.291 595.441C202.614 593.898 208.933 595.051 215.133 597.242C225.448 600.853 234.229 607.149 242.357 614.505L243.211 613.834C239.879 608.546 236.691 603.164 233.158 598.01C231.06 595.066 228.72 592.298 226.165 589.737C224.315 587.83 222.09 587.377 220.112 589.463C216.806 592.95 212.649 593.151 207.931 592.873C177.805 591.235 152.508 601.222 132.299 622.317C116.824 638.474 108.351 658.953 101.005 679.977C99.1569 685.272 97.4115 690.601 95.5633 695.896C95.1433 696.903 94.6489 697.873 94.0841 698.799L92.9913 698.529C92.7871 697.603 92.7328 696.658 92.8306 695.731C101.111 664.169 112.47 634.29 136.87 611.93C151.194 598.758 168.08 590.167 187.914 587.945C194.645 587.199 201.632 588.082 208.542 588.409C213.795 588.679 215.145 588.088 216.674 583.992C214.869 583.42 213.117 582.748 211.356 582.315C206.091 581.212 201.227 578.449 197.489 574.435C195.278 572.03 195.396 570.519 198.628 569.562C207.889 566.898 215.976 569.344 223.051 576.291C232.354 585.436 240.984 595.071 245.869 607.387C246.216 608.114 246.6 608.825 247.019 609.516C250.777 594.585 252.961 580.028 248.587 564.477C266.75 573.737 277.557 589.162 286.316 606.726C282.855 587.686 282.111 568.397 284.107 549.449C296.057 556.122 303.959 565.713 308.73 577.813C313.377 589.569 317.299 601.558 314.958 614.397C321.871 599.802 328.909 585.475 341.492 575.97C343.7 583.171 346.136 590.699 348.307 598.292C350.316 605.37 348.61 612.04 346.505 618.63C342.175 632.112 334.303 643.316 325.038 653.596C322.39 656.541 319.635 659.38 316.962 662.297C316.209 663.25 315.521 664.254 314.901 665.302L315.655 666.228C316.825 665.611 318.058 665.076 319.158 664.358C331.939 655.96 344.858 647.713 357.475 639.019C367.213 632.309 373.852 623.449 373.318 609.556L344.565 635.997L343.549 635.298C344.174 634.01 344.582 632.487 345.448 631.461C349.389 626.855 353.172 622.063 357.59 617.949C363.277 612.644 370.516 608.83 372.322 600.118C381.513 607.963 379.053 623.754 366.444 637.402C381.334 635.441 395.198 636.17 408.627 644.518L380.462 670.417C390.424 673.945 399.995 677.232 409.473 680.719C414.954 682.744 415.304 683.977 411.726 688.415C406.172 695.307 398.5 698.728 389.928 700.529C387.353 701.073 384.754 701.46 381.903 701.966C390.435 709.422 398.63 716.589 407.117 724.022C396.075 729.722 383.543 732.243 370.835 731.322C379.726 738.919 389.115 745.549 396.564 755.276C382.559 762.251 369.074 768.059 352.479 760.583C359.208 773.305 354.266 782.62 346.755 791.082C346.08 791.843 343.399 791.617 342.21 790.914C337.105 787.867 332.192 784.453 327.284 781.24C326.867 781.534 326.471 781.668 326.482 781.811C326.793 790.884 322.635 797.654 316.718 803.745C312.064 808.535 307.92 813.851 303.034 819.529C304.005 815.651 304.121 811.561 303.377 807.538C302.632 803.515 301.043 799.652 298.717 796.21C293.333 798.854 293.333 798.854 287.749 789.936C285.227 793.186 282.581 796.499 280.037 799.91C277.821 802.891 275.96 802.231 273.584 799.569C265.176 790.189 260.618 779.882 263.379 767.486C264.006 764.653 264.24 761.721 264.755 758.162C263.581 758.934 262.359 759.633 261.094 760.253C255.969 762.275 250.962 764.699 245.628 766.072C239.303 767.693 232.681 768.388 226.591 769.41C231.04 751.611 237.545 733.949 252.195 720.541C235.145 731.654 216.35 736.646 195.843 736.235C194.753 727.036 199.129 718.09 212.252 703.205C196.025 707.186 180.617 704.739 164.828 699.136C172.675 684.6 183.34 674.321 199.154 669.93C199.243 669.568 199.217 669.081 199.198 668.614ZM310.608 666.483C300.851 655.741 284.563 654.869 274.107 664.483C263.906 673.864 263.85 688.401 273.972 699.394C283.667 709.937 300.272 711.653 309.584 703.103C319.949 693.521 320.424 677.158 310.64 666.453L310.608 666.483ZM254.901 571.397L253.649 571.923C256.895 583.769 253.921 594.804 251.996 606.062C251.32 610.293 251.807 614.692 253.404 618.794C258.723 631.459 265.971 643.303 274.875 653.882C275.755 654.77 276.714 655.575 277.738 656.286L278.817 655.638C278.229 653.935 277.73 652.2 277.025 650.541C273.96 643.273 270.706 636.114 267.699 628.844C267.1 627.406 267.227 625.708 267.063 624.086C268.324 624.913 269.303 626.12 269.846 627.52C273.638 635.841 277.56 644.106 281.106 652.513C282.392 655.538 284.084 655.398 286.535 654.994C288.985 654.589 290.447 653.831 290.464 650.755C290.634 627.213 284.002 605.692 268.839 586.672C264.542 581.277 259.558 576.461 254.901 571.397ZM307.908 709.911C307.618 711.72 307.259 712.484 307.424 713.148C310.572 726.015 314.516 738.633 321.573 750.162C325.268 756.213 329.314 762.056 332.983 768.118C333.847 769.543 333.826 771.488 334.202 773.195L333.006 773.376C317.906 755.854 309.021 735.385 303.11 713.494C301.495 719.187 302.161 732.895 304.982 741.93C310.986 761.3 321.338 777.003 342.022 783.614C345.618 784.757 347.584 783.944 349.429 781.176C354.483 773.557 352.383 762.801 344.769 755.623C339.001 750.19 333.059 744.79 328.185 738.598C322 730.757 316.838 722.127 311.2 713.858C310.397 712.722 309.392 711.695 307.908 709.911ZM264.01 669.242L264.8 667.622C256.559 662.359 248.478 656.771 240.019 651.9C219.46 640.036 200.048 642.113 181.768 654.459C180.238 655.484 178.846 656.725 177.033 658.137C182.384 659.733 187.204 660.529 191.498 662.561C202.097 667.53 213.104 669.598 224.337 670.835C229.058 671.352 233.806 671.309 238.514 671.825C245.662 672.686 252.792 673.844 259.938 674.873C261.85 675.155 263.832 675.488 263.547 672.83C251.919 668.055 240.561 663.363 229.28 658.741L229.652 657.48C235.341 659.377 241.03 661.236 246.692 663.17C252.354 665.104 258.252 667.217 264.01 669.242ZM261.667 680.322L261.832 679.189C259.111 678.617 256.387 677.819 253.676 677.52C239.766 675.876 225.825 674.618 211.938 672.711C193.487 670.181 177.064 685.372 171.063 697.942C185.511 703.44 201.15 703.719 215.205 698.73C230.287 693.583 245.123 687.591 261.484 686.522C261.606 686.511 261.677 686.102 262.476 684.27C258.752 684.443 255.676 684.416 252.646 684.741C238.491 686.281 224.355 687.918 210.212 689.51C202.976 690.333 195.717 691.155 188.433 691.979L188.077 690.7C188.424 690.381 188.638 689.827 189.033 689.693C212.35 681.539 237.438 683.207 261.687 680.316L261.667 680.322ZM399.5 645.91C397.647 645.063 396.45 644.392 395.245 643.906C389.008 641.647 382.403 640.913 375.994 641.767C353.529 644.381 337.237 658.049 320.423 670.77C319.602 671.385 319.762 673.277 319.186 675.733C338.326 667.313 354.396 655.685 374.492 652.737C356.36 659.643 339.67 669.036 323.865 680.165C337.767 677.429 351.531 674.302 365.157 670.784C379.671 667.026 388.59 655.674 399.519 645.905L399.5 645.91ZM320.125 697.07L319.283 698.252C319.565 699.058 319.972 699.82 320.489 700.509C338.426 717.628 359.117 727.472 383.498 726.627C388.693 726.44 393.726 724.49 398.832 723.353L398.729 721.93C397.66 720.885 396.617 719.804 395.509 718.795C375.283 700.262 350.578 694.748 325.246 691.149C324.151 690.995 322.965 691.895 321.83 692.301C322.766 693.187 323.599 694.5 324.664 694.885C335.2 698.879 345.776 702.721 356.32 706.58C358.193 707.306 360.086 708.052 362.018 708.75C347.1 709.027 333.262 704.601 320.125 697.07ZM317.228 713.199L316.488 714.008C316.562 714.534 316.709 715.051 316.924 715.544C326.09 731.152 336.672 745.611 352.057 755.731C362.462 762.574 381.599 761.718 390.948 754.244C390.367 753.481 389.716 752.773 389.004 752.13C378.222 744.064 367.95 735.058 356.467 728.276C344.184 721.017 331.271 714.975 320.428 705.309C319.339 704.334 317.83 703.873 316.498 703.159L315.63 704.327C322.845 715.137 332.654 723.522 342.437 731.958C352.415 740.638 363.557 747.828 375.487 753.287C373.154 754.004 370.726 754.668 368.821 753.908C363.152 751.572 357.118 749.47 352.273 745.815C344.882 740.23 338.307 733.486 331.475 727.132C326.656 722.573 321.975 717.85 317.228 713.199ZM220.516 620.409L221.615 618.876C225.35 621.128 229.263 623.141 232.814 625.664C245.792 634.911 257.019 646.137 267.867 657.789C268.788 658.791 270.441 659.107 271.761 659.742C271.381 658.332 271.392 656.639 270.575 655.554C260.571 642.195 251.349 628.245 238.866 616.835C229.001 607.812 218.349 600.622 205.278 598.054C203.19 597.767 201.092 597.633 199.001 597.654C204.403 606.152 209.285 614.53 214.967 622.362C219.683 628.801 224.56 635.601 230.71 640.492C241.554 649.124 253.417 656.437 264.886 664.266C265.647 664.614 266.451 664.843 267.269 664.943L268 663.876C261.43 655.419 253.251 648.518 245.151 641.532C237.05 634.546 228.732 627.455 220.516 620.409ZM298.177 654.119L299.734 654.409C300.336 652.886 300.989 651.38 301.54 649.815C303.429 644.406 304.946 638.816 307.186 633.58C315.676 613.774 313.469 594.075 303.669 574.447C299.873 566.843 294.057 560.741 287.202 555.084C287.14 570.978 287.423 586.696 288.647 602.402C289.855 617.868 292.019 633.31 293.782 648.763C293.817 649.062 294.103 649.347 294.644 650.29C295.303 647.925 295.844 646.178 296.269 644.397C298.864 633.671 296.353 622.809 295.615 611.947C294.974 602.475 295.41 593.008 295.485 583.502C295.503 581.752 296.276 580.047 296.693 578.324L298.348 578.562C298.496 603.801 305.249 629.152 298.177 654.119ZM266.396 700.061L265.832 698.897L233.81 710.49L233.085 708.862L265.399 694.36C263.472 693.301 261.983 691.826 260.584 691.826C255.881 691.84 251.063 691.833 246.553 692.818C232.331 695.924 220.603 703.38 210.687 713.634C206.33 718.047 203.26 723.591 201.778 729.719C225.595 735.565 255.527 717.541 266.396 700.061ZM331.09 620.372C331.614 620.719 332.138 621.079 332.687 621.454C330.778 625.161 329.073 628.999 326.926 632.554C321.82 641.074 316.402 649.359 311.239 657.831C310.71 658.699 311.039 660.131 310.971 661.303C311.981 660.999 313.316 661.008 313.964 660.349C324.722 649.423 334.811 637.927 341.248 623.681C346.84 611.309 346.61 598.795 339.106 585.559C337.048 587.452 334.791 588.801 333.556 590.803C328.989 598.204 324.133 605.475 320.583 613.419C314.962 626.009 310.251 639.051 305.38 651.971C304.797 653.502 305.465 655.578 305.555 657.408C306.784 656.278 308.332 655.352 309.19 653.977C314.436 645.569 319.433 636.996 324.718 628.604C326.481 625.695 328.929 623.112 331.09 620.372ZM307.451 804.055C313.805 800.526 318.749 794.974 321.554 788.217C323.863 782.753 323.496 778.079 318.757 773.371C306.815 761.603 300.604 747.269 299.208 730.969C298.669 724.77 297.988 718.573 297.35 712.147L292.882 712.43C292.665 716.824 292.091 721 292.348 725.175C293.088 737.692 295.086 750.252 294.885 762.691C294.602 777.794 303.579 789.942 307.432 804.034L307.451 804.055ZM232.96 763.707C238.918 762.92 243.891 762.479 248.697 761.579C258.547 759.713 265.345 754.24 267.808 744.222C269.37 737.685 270.81 731.158 272.257 724.613C273.263 720.028 274.262 715.436 275.114 710.814C275.17 709.633 275.068 708.441 274.809 707.269C273.873 708.007 273.046 708.871 272.348 709.839C270.586 713.104 269.132 716.545 267.376 719.817C264.628 724.895 261.758 729.918 258.933 734.964C258.747 734.867 258.562 734.757 258.376 734.66L271.911 705.561L270.612 704.856C254.942 721.968 240.794 740.079 232.928 763.698L232.96 763.707ZM322.735 683.869L322.717 685.16C324.994 685.947 327.306 686.605 329.643 687.131C343.491 689.521 357.325 691.987 371.203 694.016C379.864 695.341 388.601 694.648 396.73 691.991C401.694 690.508 405.884 687.29 408.572 682.9C396.966 678.449 385.761 674.304 373.807 675.823C359.17 677.691 344.605 680.029 330.028 682.225C327.534 682.568 325.156 683.275 322.703 683.86L322.735 683.869ZM282.246 711.461L280.18 711.103C279.857 711.464 279.591 711.872 279.389 712.315C278.789 714.64 278.143 716.968 277.704 719.336C274.662 735.701 274.204 752.686 268.102 768.268C267.859 769.034 267.709 769.831 267.656 770.642C266.324 780.998 269.877 789.78 277.371 797.694C282.162 793.722 286.429 790.244 284.955 783.146C280.399 760.641 279.11 737.769 281.128 715.256C281.362 713.948 281.726 712.674 282.214 711.452L282.246 711.461ZM286.264 711.515L284.304 712.348C283.114 737.849 283.854 763.246 293.999 788.129C294.53 786.02 294.677 783.813 294.433 781.609C293.772 775.369 292.763 769.118 292.257 762.901C290.908 746.863 289.741 730.786 288.404 714.788C288.278 713.667 286.978 712.58 286.232 711.507L286.264 711.515Z" fill="#02287A"/>
<path d="M99.1492 769.439L88.0282 771.773C92.9358 781.044 105.145 784.38 113.819 778.074C116.908 775.832 119.87 773.427 122.762 770.959C123.322 770.269 123.639 769.406 123.668 768.494C125.251 755.396 131.737 748.323 144.915 746.482C149.555 745.824 154.438 746.346 159.559 746.354C159.338 756.606 160.092 765.794 154.199 773.419C146.973 782.768 134.839 783.686 125.35 775.439C124.72 774.897 124.154 774.282 123.6 773.746L106.776 785.812L127.466 790.606L127.307 791.837C118.089 794.128 109.574 788.697 100.707 786.675C107.397 791.681 113.164 798.071 121.768 799.532C124.393 799.974 126.01 800.119 127.133 796.868C130.967 785.691 148.486 780.178 159.334 787.188C166.18 791.616 172.016 797.726 178.131 803.694C170.403 803.29 165.366 807.781 159.867 811.27C149.087 818.211 137.275 816.054 128.589 805.704C127.308 804.179 125.145 803.375 123.387 802.237L121.991 803.866C125.528 807.805 128.565 812.472 132.742 815.492C136.918 818.512 142.099 819.779 146.639 821.725C141.911 825.843 141.381 826.369 136.042 822.544C131.527 819.299 127.686 814.926 123.992 810.672C120.513 806.666 117.616 802.151 114.464 797.858L113.175 798.673C113.608 799.55 114.06 800.409 114.518 801.34C117.469 807.553 120.394 813.789 123.428 820.014C124.184 821.639 125.128 823.177 126.241 824.594C132.742 832.464 134.57 841.01 131.646 850.355C131.105 852.128 130.712 853.943 130.173 856.032C126.147 855.169 122.227 854.605 118.456 853.468C110.356 851.034 104.945 845.49 103.409 837.262C102.389 831.825 102.033 825.916 103.222 820.743C105.757 809.702 102.828 800.078 96.6243 790.774C94.7038 787.898 92.7832 785.023 91.046 782.412L86.67 800.055C87.7042 800.825 89.5323 802.013 91.1637 803.433C97.2112 808.698 99.2353 817.064 95.2241 823.43C88.9499 833.395 79.6114 839.241 68.2501 841.234C67.8887 832.972 67.1502 824.929 67.3073 816.955C67.2969 813.718 68.2155 810.599 69.9534 807.97C71.6912 805.341 74.1747 803.313 77.1072 802.128C82.4948 799.724 84.2955 795.518 84.1549 789.909C83.9726 783.599 82.8004 777.498 78.5699 770.996C77.8825 773.553 77.3623 775.23 76.99 776.937C73.6247 792.426 68.8109 807.258 58.7123 819.464C47.9639 832.472 34.2557 840.819 16.965 842.45C5.30011 843.549 -5.47319 840.411 -13.9396 831.007C-18.0426 826.453 -20.2577 821.12 -19.2184 815.089C-18.8749 813.141 -17.7925 811.393 -17.0245 809.527L-15.9897 809.786C-15.6557 810.615 -15.3766 811.461 -15.1544 812.321C-12.7443 824.897 -3.42061 834.341 9.19333 836.398C25.836 839.112 38.9525 832.483 50.007 821.565C62.9715 808.764 68.9959 792.245 72.1574 774.266C76.628 748.961 83.0306 724.342 94.9571 701.847C109.779 673.897 130.711 652.252 160.478 640.016C171.103 635.674 182.847 634.325 194.501 636.107C195.78 636.365 197.047 636.704 198.292 637.122L198.577 638.428C197.046 639.013 195.473 639.492 193.867 639.865C181.829 641.856 169.729 643.571 158.546 648.486C138.27 657.389 123.207 672.197 110.402 689.749C96.064 709.386 87.7416 731.996 81.4258 755.49C79.6567 762.039 87.0939 769.406 94.9651 769.283C96.365 769.271 97.7687 769.446 99.1737 769.532L99.1492 769.439ZM120.944 818.256C116.558 804.87 107.797 794.386 96.3616 784.678C96.6898 785.651 96.743 785.997 96.8993 786.351C100.353 794.435 103.781 802.53 107.312 810.58C107.786 811.504 108.545 812.26 109.469 812.729C113.209 814.645 117.003 816.384 120.956 818.27L120.944 818.256Z" fill="#02287A"/>
<path d="M1453.95 488.742C1454.43 484.331 1452.48 482.171 1448.74 481.921C1445.71 481.867 1442.67 481.977 1439.65 482.251L1429.23 482.716C1430.06 481.225 1430.24 480.573 1430.66 480.198C1437.58 474.002 1439.13 467.485 1435.61 458.906C1433.52 453.825 1429.76 449.608 1424.95 446.952C1421.44 445.083 1418.04 443.015 1414.76 440.757C1409.32 436.713 1407.62 428.99 1410.23 423.473C1416.84 427.482 1423.39 431.695 1430.16 435.49C1442.09 442.167 1453.1 441.141 1463.33 431.508C1464.72 430.171 1466.37 429.125 1468.18 428.431C1469.98 427.736 1471.91 427.407 1473.84 427.463C1475.77 427.519 1477.67 427.958 1479.44 428.755C1481.2 429.552 1482.78 430.691 1484.1 432.106C1485.77 433.847 1486.15 435.24 1484.23 437.114C1474.16 446.997 1472.02 458.54 1476.66 471.806C1480.23 482.019 1479.61 491.973 1473.08 501.017C1471.19 503.632 1472.77 505.427 1473.91 507.471C1478.32 515.336 1483.38 522.916 1486.95 531.138C1498.55 557.92 1497.45 585.193 1488.23 612.377C1481.09 633.357 1468.9 651.551 1456.02 669.325C1443.62 686.448 1432.37 704.195 1424.89 724.675C1435.53 725.13 1443.87 729.514 1449.5 738.45C1452.97 743.764 1455.19 749.795 1456 756.09C1450.19 755.01 1444.72 753.707 1439.18 753.019C1430.31 751.93 1422.53 749.404 1418.13 740.128L1412.24 760.929C1420.69 764.58 1428.05 770.367 1433.6 777.722C1426.3 776.775 1420.21 776.516 1416.14 782.114C1411.88 787.926 1410.96 797.192 1413.73 806.673C1417.94 798.924 1423.55 793.853 1432.25 792.987C1439.93 792.056 1447.7 793.776 1454.27 797.862C1450.47 803.111 1446.97 808.209 1443.18 813.092C1439.38 817.975 1434.37 820.162 1428.32 820.421C1426.62 820.502 1424.92 820.689 1421.74 820.948C1425.64 825.001 1428.4 828.777 1431.99 831.42C1437.63 835.375 1443.48 839.023 1449.51 842.347C1453.4 844.606 1457.54 846.373 1461.54 848.516C1473.33 854.881 1481.98 864.139 1486.54 876.807C1493.56 896.376 1499.76 916.319 1496.61 937.397C1494.79 948.775 1491.89 959.955 1487.96 970.786C1478.31 998.175 1467.42 1025.15 1457.94 1052.59C1450.4 1074.31 1445.2 1096.69 1443.94 1119.78C1442.87 1139.18 1446.33 1157.56 1456.55 1174.37C1456.91 1175.12 1457.21 1175.91 1457.44 1176.71L1450.51 1177.13C1461.97 1193.92 1472.32 1210.8 1486.85 1224.64C1475.06 1223.37 1464.34 1220.1 1456.51 1210.87C1454.14 1208.18 1451.97 1205.32 1450.02 1202.31C1444.47 1193.32 1437.37 1186.03 1428.06 1180.88C1425.22 1179.3 1422.63 1177.31 1418.88 1174.74L1443.81 1169.91C1438.45 1152.23 1438.12 1134.01 1438.56 1115.71C1439.1 1098.17 1441.88 1080.77 1446.84 1063.93C1448.71 1057.38 1447.26 1052.27 1443.63 1047.24C1441.53 1044.35 1439.05 1041.73 1436.87 1038.9C1430.72 1030.97 1429.06 1019.17 1432.99 1009.18C1435.54 1011.86 1437.76 1014.39 1440.22 1016.68C1442.54 1018.82 1445.11 1020.7 1447.57 1022.7L1448.9 1021.87C1448.76 1019.72 1449.11 1017.4 1448.38 1015.45C1444.75 1005.63 1441.48 995.648 1436.88 986.301C1427.34 967.228 1422.72 946.072 1423.43 924.756C1423.57 920.408 1424.51 916.078 1425.22 911.766C1425.47 910.489 1426.09 909.313 1427 908.383C1427 924.631 1426.11 940.87 1432.04 957.341C1437.11 944.244 1442.99 932.871 1457.77 930.559C1468.59 928.836 1474.37 937.21 1481.82 942.816C1475.57 952.538 1467.81 959.358 1455.57 958.626C1448.17 958.18 1442.18 960.849 1436.93 965.938C1434.87 967.929 1434.43 969.607 1435.62 972.187C1438.87 979.168 1441.87 986.239 1445.06 993.247C1451.04 1006.44 1455.35 1020.03 1454.37 1034.75C1454.4 1035.68 1454.49 1036.61 1454.64 1037.54C1455.53 1035.97 1456.08 1035.17 1456.43 1034.29C1466.38 1009.69 1476.47 985.185 1486.18 960.465C1490.4 949.753 1493.72 938.638 1493.61 926.854C1493.6 915.488 1489.98 904.419 1483.28 895.239C1476.57 886.06 1467.13 879.244 1456.31 875.771C1453.29 874.78 1450.27 873.771 1447.19 872.923C1413.61 863.532 1393.59 840.999 1386.15 807.646C1378.44 773.106 1387.51 741.887 1408.47 713.98C1415.31 704.874 1423.23 696.589 1430.47 687.778C1442.36 673.298 1454.29 658.657 1461.79 641.418C1469.77 623.072 1476.7 604.2 1476.75 583.658C1476.82 561.08 1469.33 541.029 1456.84 522.559C1455.21 520.166 1453.4 519.077 1450.28 519.255C1441.65 519.773 1435.46 515.47 1431.7 508.025C1429.02 502.766 1430.54 497.678 1434.17 493.214C1438.35 488.072 1443.74 486.34 1450.16 487.608C1451.35 487.84 1452.47 488.286 1453.95 488.742ZM1490.56 902.473C1487.25 883.725 1477.85 869.004 1461.09 859.479C1454.29 855.613 1447.21 852.265 1440.35 848.498C1424.61 839.865 1414.46 826.519 1409.78 809.485C1403.5 787.333 1404.59 763.741 1412.89 742.262C1421.38 719.363 1432.58 697.565 1446.26 677.333C1448.12 674.601 1449.61 671.619 1451.27 668.754C1450.37 668.682 1450.03 668.861 1449.81 669.164C1437.39 686.358 1424.31 703.133 1412.74 720.881C1398.62 742.557 1390.94 766.535 1392.49 792.827C1393.18 804.513 1395.5 815.833 1403.2 825.126C1412.74 836.607 1423.46 846.855 1436.54 854.336C1438.33 855.372 1440.12 856.426 1441.9 857.47C1427.62 854.863 1416.72 846.204 1405.6 837.767C1406.22 839.404 1407.13 840.915 1408.28 842.231C1418.94 853.837 1431.88 861.746 1447.56 863.657C1462.8 865.442 1473.83 872.816 1481.37 885.85C1484.58 891.269 1487.56 896.902 1490.55 902.473H1490.56ZM1462.95 514.765C1467.71 524.639 1472.97 533.771 1476.62 543.502C1483.86 562.768 1486.32 582.783 1480.06 602.744C1475.21 618.135 1468.75 633.008 1463 648.105C1462.44 649.56 1461.88 651.006 1461.33 652.452C1498.24 601.745 1496.72 554.251 1466.68 511.319L1462.95 514.765ZM1475.06 1218.16C1471.4 1213.96 1467.86 1210.39 1464.91 1206.4C1458.51 1197.76 1452.45 1188.9 1446.16 1180.18C1445.36 1179.06 1444.16 1177.5 1443.1 1177.45C1439 1177.31 1434.89 1177.72 1430.8 1177.93C1431.38 1179.01 1432.29 1179.88 1433.39 1180.43C1441.13 1184.61 1447.61 1190.79 1452.14 1198.33C1454.51 1202 1457.17 1205.49 1460.09 1208.75C1463.93 1213.42 1469.18 1216.73 1475.06 1218.16Z" fill="#02287A"/>
<path d="M7.73394 596.564C4.98746 594.107 1.66575 592.936 -1.84768 592.299C-4.2936 591.869 -5.74976 590.454 -7.02972 588.495C-10.7297 582.795 -10.5846 576.576 -9.71921 570.203C-9.25143 567.247 -9.04852 564.255 -9.1129 561.263C-9.32018 556.641 -8.13349 552.128 -6.43896 547.863C-5.57356 545.697 -4.58898 543.582 -3.58367 541.473C-2.7649 539.748 -1.64558 538.136 -0.992641 536.343C-0.339703 534.55 7.35046 520.88 8.2936 519.242C8.74443 518.46 9.02427 517.589 9.51138 516.827C10.3923 515.444 14.341 509.94 14.595 507.272C14.6312 506.878 14.481 506.303 14.0768 506.396C13.9058 506.437 13.8021 506.608 13.7192 506.764C10.8173 512.568 7.53702 518.211 4.45888 523.922C1.38075 529.632 -1.67148 535.322 -4.8688 540.903C-6.30941 543.442 -7.75002 545.982 -9.19063 548.521C-11.678 552.936 -14.0203 557.444 -16.6787 561.756C-20.8969 568.596 -27.1723 572.897 -34.6656 575.524C-43.1149 578.563 -52.2503 579.156 -61.0215 577.235C-51.5902 581.411 -42.2055 580.297 -32.8 577.032C-23.0215 573.659 -16.3211 566.922 -11.5692 557.973C-11.3031 561.63 -11.2529 565.301 -11.4189 568.964C-11.5942 570.249 -12.1522 571.452 -13.0202 572.415C-16.3885 576.411 -20.8554 578.577 -25.9287 579.452C-29.5561 580.079 -32.6964 581.427 -35.189 584.199C-38.6558 588.06 -39.4901 593.066 -41.3038 597.289C-37.3602 596.429 -33.5307 595.512 -29.639 594.781C-25.8665 594.071 -22.3375 592.895 -19.306 590.464C-16.7079 588.493 -14.901 585.656 -14.212 582.468C-13.7457 580.23 -14.4763 579.639 -16.6683 580.292C-18.14 580.727 -19.6325 581.111 -21.1145 581.515L-21.1767 581.142L-11.9164 574.571C-10.88 585.199 -10.88 585.199 -6.21614 592.34L-9.06627 594.797C-9.65702 592.998 -10.2685 591.024 -10.9577 589.096C-11.6469 587.169 -12.4501 585.168 -13.2015 583.204C-13.502 584.49 -13.5355 585.823 -13.3 587.122C-12.9165 589.112 -13.5746 590.449 -15.2122 591.635C-16.9563 592.901 -18.5753 594.331 -20.047 595.905C-24.7109 600.937 -26.5868 610.498 -23.8662 616.235C-20.1092 610.016 -11.4655 608.829 -9.82284 601.668C-8.12831 604.596 -6.71362 608.104 -4.37652 610.804C-1.03928 614.654 2.982 617.914 7.17946 621.862C8.67707 616.095 10.3975 610.54 11.4806 604.865C12.1128 601.564 10.2161 598.792 7.73394 596.564Z" fill="#092B70"/>
<path d="M-82.8711 466.391C-65.2107 454.695 -46.8403 446.756 -25.5421 453.954C-27.3662 448.715 -29.0555 443.553 -30.9573 438.47C-34.1961 429.79 -40.228 424.478 -49.6542 423.442C-55.5151 422.815 -60.21 426.416 -60.8578 431.966C-60.9524 432.654 -60.8885 433.353 -60.6711 434.012C-60.4538 434.671 -60.0886 435.272 -59.6035 435.768C-59.1184 436.264 -58.5264 436.642 -57.8725 436.874C-57.2187 437.106 -56.5204 437.186 -55.8312 437.107C-53.8827 436.842 -53.3386 435.739 -54.2765 433.998C-55.0435 432.547 -54.1366 431.013 -52.411 430.966C-50.5766 430.914 -49.3899 431.966 -48.6177 433.526C-47.0372 436.734 -48.3379 440.439 -51.727 442.413C-59.3601 446.865 -68.7966 441.185 -69.3459 431.795C-69.8641 423.229 -63.2933 416.648 -53.691 416.28C-43.8451 415.902 -35.6004 419.84 -28.1642 425.95C-22.1841 430.862 -18.8728 437.231 -17.142 444.683C-15.8154 450.383 -14.069 455.954 -12.3641 461.54C-11.9056 462.769 -11.2002 463.89 -10.2913 464.836C-5.51346 470.277 -0.673437 475.661 4.14587 481.056C4.34797 481.289 4.69518 481.46 4.77291 481.719C4.94366 482.387 5.08028 483.063 5.18228 483.745C4.51898 483.797 3.70541 484.118 3.21829 483.854C0.590994 482.408 -1.96377 480.869 -4.51852 479.258C-10.046 475.751 -15.5356 472.2 -20.9871 468.603C-22.1153 467.793 -23.0761 466.773 -23.8165 465.598C-20.5932 467.671 -17.427 469.883 -14.126 471.852C-10.8251 473.822 -7.27537 475.646 -3.61166 477.656C-5.35801 472.992 -12.6802 464.997 -17.7586 461.685C-29.2783 454.171 -41.565 452.119 -54.8466 455.954C-61.6506 457.923 -68.5324 459.659 -74.7405 463.235C-75.4504 463.644 -76.1137 464.142 -77.0361 464.753C-76.3314 465.271 -75.8857 465.639 -75.3986 465.95C-70.0766 469.334 -64.4748 472.355 -59.469 476.159C-47.1564 485.523 -33.1753 490.337 -18.0903 492.638C-11.9848 493.492 -5.7968 493.586 0.331888 492.917C1.14617 492.907 1.95968 492.971 2.76227 493.109L2.85554 494.146C-0.31587 494.721 -3.46655 495.545 -6.65869 495.835C-16.9295 496.763 -26.7029 494.493 -36.2586 490.943C-44.612 487.834 -52.3229 483.533 -59.6451 478.506C-66.8586 473.542 -73.7818 467.992 -82.8711 466.391ZM-16.5409 457.348C-18.0955 451.015 -19.1941 445.269 -20.9145 439.729C-22.9148 433.262 -30.2422 425.815 -35.7922 424.079C-35.0719 424.846 -34.5329 425.483 -33.9266 426.053C-29.4294 430.225 -26.3949 435.735 -25.2726 441.765C-24.8836 443.806 -24.345 445.815 -23.661 447.777C-22.3675 451.64 -19.8772 454.99 -16.5512 457.343L-16.5409 457.348Z" fill="#092B70"/>
<path d="M138.476 463.919C138.274 464.789 138.228 465.732 137.849 466.51C133.704 474.993 125.708 481.377 114.442 479.377C109.302 478.465 104.192 477.034 98.896 478.149C98.0478 478.298 97.2591 478.684 96.6211 479.263C97.4035 479.579 98.1757 479.947 98.9633 480.195C114.644 485.082 128.879 492.529 140.373 504.458C146.519 510.837 151.255 518.227 153.494 526.958C153.8 528.145 153.727 529.43 153.831 530.669L153.183 530.798C152.815 529.839 152.432 528.891 152.079 527.927C146.001 511.464 135.113 499.426 119.236 491.819C106.731 485.813 93.7917 481.237 80.08 479.061C71.6851 477.729 63.3316 478.698 55.0662 480.398C49.2675 481.595 43.4221 482.683 38.1313 485.58C37.5133 485.838 36.871 486.034 36.2139 486.165L35.7734 485.621C38.722 482.828 41.313 479.429 44.7073 477.382C49.7339 474.355 55.2579 472.075 60.7302 469.883C63.9482 468.588 67.3995 469.033 70.6175 470.562C71.3982 470.867 72.1959 471.126 73.0065 471.339C73.3537 471.453 73.9911 471.635 73.9807 471.749C73.7527 474.734 76.3178 473.936 77.7377 474.392C82.3549 475.863 87.0343 477.154 91.7292 478.418C92.4391 478.61 93.517 478.573 94.0404 478.154C97.559 475.345 101.637 474.982 105.85 475.34C108.146 475.532 110.405 476.102 112.691 476.423C123.132 477.884 131.553 474.894 136.948 465.313C137.243 464.794 137.627 464.307 137.984 463.81L138.476 463.919Z" fill="#092B70"/>
<path d="M31.9693 500.804C33.9074 502.059 35.8714 503.276 37.7732 504.577C41.5457 507.168 45.4271 509.417 50.0858 510.08C54.7444 510.744 58.0143 513.589 60.0664 517.802C61.0458 519.807 62.0822 521.797 62.8854 523.875C67.031 534.638 75.5866 539.421 86.3756 541.131C88.4744 541.463 90.6249 541.458 92.7547 541.608L92.9154 540.981C92.1899 540.743 91.4696 540.463 90.7389 540.276C83.8053 538.312 78.2657 534.483 74.2756 528.357C70.3372 522.341 66.2019 516.439 62.2273 510.614C62.8842 510.773 63.5258 510.99 64.1447 511.262C69.6532 513.993 73.9905 518.056 77.4988 523.067C78.8202 524.958 80.0173 526.943 81.3957 528.793C85.163 533.856 90.3244 535.913 96.5221 535.488C99.9215 535.255 102.492 533.529 102.932 531.119C103.093 530.244 102.652 529.264 102.487 528.326C101.772 528.556 101.036 528.713 100.289 528.798C99.7194 528.798 98.683 528.554 98.6519 528.316C98.4861 527 98.1337 525.43 98.683 524.372C99.1545 523.466 100.72 522.678 101.834 522.626C106.311 522.419 110.166 527.502 109.337 532.311C108.705 535.975 106.503 538.53 103.435 540.478C97.4548 544.251 90.941 543.966 84.4168 542.712C70.2906 539.996 60.3099 531.71 53.5525 519.237C52.9722 518.164 52.428 516.89 51.4797 516.237C50.3967 515.47 48.8472 514.817 47.5984 514.967C46.897 515.098 46.1739 515.053 45.4945 514.835C44.815 514.617 44.2006 514.233 43.7066 513.718C40.1984 510.485 36.5761 507.38 33.0057 504.214C31.933 503.261 30.9329 502.255 32.0263 500.701L31.9693 500.804Z" fill="#092B70"/>
<path d="M5.19104 500.266L-15.5372 509.593L-15.7911 509.075L0.760382 500.758L0.656751 500.198C-0.023794 500.187 -0.704276 500.224 -1.37981 500.307C-19.4652 503.649 -32.1301 513.972 -40.1519 530.363C-43.8052 537.82 -47.4068 545.313 -51.4436 552.568C-53.2884 555.89 -56.1074 558.678 -58.4704 561.699C-59.0249 562.403 -59.6468 563.062 -60.2427 563.74L-60.0406 564.533C-55.8949 564.228 -51.7182 564.108 -47.6037 563.59C-35.6072 562.082 -26.0515 555.884 -17.4856 547.743C-7.22515 537.991 -1.61818 525.419 4.34118 512.796C1.62579 513.148 -4.77404 517.941 -8.54139 522.693C-11.8683 526.886 -14.8635 531.342 -17.9416 535.597C-17.553 527.927 2.02999 506.536 10.0933 504.774C5.22213 517.506 -0.125743 530.233 -8.56212 541.406C-18.8899 555.107 -32.2026 563.927 -49.2567 566.798C-55.2472 567.798 -61.2169 567.907 -67.0726 565.922C-67.7256 565.699 -68.3837 565.471 -69.0159 565.197C-69.315 565.014 -69.5916 564.796 -69.8398 564.549C-69.5462 564.279 -69.2187 564.049 -68.8656 563.865C-60.8594 561.227 -55.3664 555.672 -51.5058 548.459C-49.0391 543.852 -47.1632 538.934 -44.8002 534.27C-42.1625 529.057 -39.5145 523.823 -36.4364 518.869C-32.9748 513.298 -28.2954 508.666 -22.3308 505.867C-15.6615 502.758 -8.75385 500.084 -1.82545 497.576C2.10772 496.104 2.22173 496.405 5.19104 500.266Z" fill="#092B70"/>
<path d="M93.8211 443.527L85.2448 442.455C86.8564 439.998 88.525 437.423 90.2299 434.873C95.158 427.51 101.516 425.442 109.849 428.494C111.865 429.235 113.839 430.08 116.41 431.085C112.264 434.713 108.346 438.304 104.211 441.589C102.853 442.667 100.858 442.947 98.5937 443.802C103.651 444.455 107.553 446.191 109.403 450.684C110.977 454.264 111.563 458.201 111.098 462.084C109.056 460.664 107.471 459.224 105.636 458.389C103.583 457.546 101.433 456.961 99.2363 456.648C96.6436 456.191 94.2889 454.851 92.5722 452.855C90.9606 451.093 89.0743 449.585 87.0948 447.766L89.805 445.942C84.8385 446.188 80.0349 447.793 75.9171 450.58C71.8233 453.306 67.9575 456.379 63.8066 459.047C67.8797 454.866 72.1653 451.031 77.28 448.129C82.3946 445.227 87.9757 443.921 93.8211 443.527Z" fill="#092B70"/>
<path d="M73.784 410.487C63.2178 411.818 54.6622 416.493 46.7959 422.509C38.7533 428.655 33.1775 436.749 28.5965 445.756C23.9068 454.969 24.5235 464.831 24.2488 474.588C21.5386 474.677 20.8649 473.604 20.7716 471.282C19.6886 443.9 40.0903 415.606 68.3791 408.688C73.3489 407.46 78.5267 407.329 83.5522 408.305C83.2051 408.795 82.7996 409.24 82.3448 409.632C71.1464 416.638 65.7881 427.292 63.5184 439.843C60.7926 454.949 52.3925 466.468 40.7174 475.915C38.2766 477.895 35.6648 479.662 33.0479 481.589L31.4933 479.843C35.1829 476.884 39.0539 474.143 42.5 470.951C51.7249 462.518 58.0477 451.385 60.5646 439.143C62.2228 431.344 64.6429 423.81 68.9543 417.026C70.3068 414.917 71.9288 412.984 73.784 410.487Z" fill="#092B70"/>
<path d="M61.9521 387.333C64.1078 386.152 65.0613 384.074 64.5431 381.571C63.9834 378.788 61.9521 376.632 59.2108 376.648C56.9989 376.64 54.8093 377.089 52.7798 377.969C47.2247 380.534 43.3071 384.975 40.1771 390.132C35.4355 397.936 33.5648 406.636 32.404 415.524C31.9687 418.861 31.6734 422.214 30.8805 425.618C30.7203 425.017 30.5905 424.408 30.4919 423.794C29.2119 413.202 31.2795 403.066 35.1557 393.303C37.1695 388.145 39.5956 383.157 42.4106 378.389C46.862 370.942 54.407 367.564 61.9417 369.155C67.1601 370.258 70.4144 373.611 71.9483 378.658C73.4822 383.706 72.3576 388.116 68.6887 391.826C65.5536 395.003 61.6256 395.567 58.449 393.381C57.625 392.816 56.9206 392.094 56.3762 391.256C55.0859 389.214 55.3398 386.432 56.7234 385.556C58.107 384.68 60.5477 385.52 61.9521 387.333Z" fill="#092B70"/>
<path d="M7.84943 480.709C6.54355 479.833 5.0304 479.154 3.97326 478.055C-6.24574 467.427 -11.6247 454.575 -12.8736 439.962C-13.1845 436.288 -13.568 432.588 -13.3918 428.919C-13.2778 426.375 -12.7699 423.613 -11.5988 421.39C-7.76409 414.093 -9.21506 407.579 -13.7234 401.278C-14.3194 400.444 -14.8531 399.568 -15.418 398.713C-15.2729 398.521 -15.133 398.324 -14.993 398.133C-12.1274 399.335 -9.11661 400.273 -6.42194 401.76C2.26103 406.663 9.84513 413.297 15.8609 421.25C21.5611 428.686 22.8774 436.827 20.675 445.911C19.3643 451.689 18.4536 457.55 17.9493 463.452C17.6176 466.836 18.1876 470.308 17.9493 474.117C17.5295 473.526 16.9387 472.992 16.7107 472.334C15.1976 467.955 15.0007 463.432 15.4878 458.861C16.0371 453.731 16.462 448.58 17.2652 443.491C18.9597 432.775 15.2598 423.991 8.10336 416.301C3.4136 411.259 -2.22447 406.932 -6.47893 405.299C-6.5187 405.579 -6.5187 405.864 -6.47893 406.144C-4.70667 411.45 -5.40107 416.555 -8.19419 421.27C-11.0754 426.131 -11.7284 431.256 -10.5987 436.63C-9.04406 444.071 -7.5827 451.57 -5.46843 458.866C-3.30751 466.323 1.78643 472.2 6.49173 478.2C7.07212 478.936 7.35196 479.905 7.77689 480.791C7.78207 480.786 7.84943 480.709 7.84943 480.709Z" fill="#092B70"/>
<path d="M8.79711 479.066C9.38787 478.744 10.0201 478.48 10.5746 478.102C16.5961 474.029 24.5661 474.283 29.375 478.713C35.3655 484.243 36.7283 491.741 33.0025 498.581C32.6138 499.302 32.3132 500.069 31.966 500.81L32.0386 500.727C29.7015 502.281 27.5509 504.354 24.9807 505.271C18.7622 507.484 11.2949 504.929 7.19067 499.753C3.4596 495.058 3.2886 488.45 6.74503 482.45C7.08704 481.854 7.48088 481.284 7.8488 480.703C7.8488 480.703 7.78144 480.786 7.78144 480.791L8.81785 479.066H8.79711ZM10.2014 490.596C10.0512 496.011 14.2694 500.214 20.0007 500.354C21.2712 500.406 22.5394 500.205 23.7317 499.763C24.9239 499.32 26.0165 498.646 26.9459 497.778C27.8754 496.91 28.6233 495.867 29.1461 494.708C29.669 493.548 29.9564 492.297 29.9917 491.026C30.1679 485.6 26.157 481.107 21.0267 480.988C15.0311 480.864 10.3621 485.004 10.2014 490.596Z" fill="#092B70"/>
<path d="M18.7556 507.577C18.968 509.355 19.2997 511.127 19.367 512.91C19.6572 520.683 19.8023 528.456 20.1444 536.229C20.4294 542.681 22.8079 548.448 25.9949 554.024C29.0419 559.341 31.747 564.865 34.3691 570.41C35.3381 572.457 35.6542 574.815 36.3849 577.463C43.2563 570.664 47.091 562.492 48.8218 553.397C50.5889 544.126 49.0395 535.006 46.1375 526.114C43.163 516.983 35.3485 511.604 29.0005 505.126L29.6275 504.359C30.7221 504.88 31.783 505.468 32.8041 506.121C43.79 514.102 49.2053 525.15 51.2781 538.421C54.0971 556.413 44.5414 580.717 32.545 584.484C32.716 581.893 33.0995 579.302 33.0114 576.711C32.7886 570.156 29.643 564.621 26.3939 559.196C23.1448 553.77 19.6572 548.262 18.5483 541.841C17.7992 537.992 17.347 534.09 17.1958 530.171C17.0714 523.559 17.3668 516.936 17.5326 510.319C17.6232 509.388 17.7878 508.466 18.0249 507.562L18.7556 507.577Z" fill="#092B70"/>
<path d="M93.686 472.345C89.7788 471.521 86.1876 470.79 82.6068 470.008C78.9431 469.215 75.5178 467.878 72.8749 465.085C70.0041 462.043 66.6565 461.421 62.7751 462.794C62.4117 462.908 62.0359 462.977 61.6558 463.001C61.5366 463.001 61.4019 462.887 61.0547 462.722C63.4022 460.353 66.3248 460.934 69.0558 460.815C70.6104 455.348 76.9221 451.42 83.3634 451.865C88.8667 452.249 92.9657 456.306 93.6238 462.52C93.9659 465.758 93.686 469.064 93.686 472.345Z" fill="#092B70"/>
<path d="M7.35417 392.805C6.83596 392.531 6.64941 392.489 6.60795 392.38C4.05838 385.981 -1.41385 383.39 -7.53904 382.146C-13.9544 380.84 -18.6442 377.586 -21.8778 371.942C-23.3857 369.305 -25.2565 366.874 -27.1738 364.04C-21.2663 363.843 -15.7733 364.325 -10.5239 366.631C-6.82589 368.212 -3.63334 370.779 -1.29467 374.052C2.71623 379.669 5.09998 386.022 7.35417 392.805Z" fill="#092B70"/>
<path d="M20.5838 588.329C18.0964 587.091 16.1117 588.329 13.9818 589.241C11.4737 590.345 8.89824 591.532 6.23985 591.972C2.09421 592.661 -1.27412 590.765 -3.75114 587.443C-6.54426 583.691 -7.58586 579.323 -8.21289 574.364C-7.26458 574.996 -6.65827 575.4 -6.05716 575.799C-5.35735 576.322 -4.54767 576.68 -3.6894 576.844C-2.83112 577.008 -1.94673 576.975 -1.10312 576.747C5.79419 575.213 11.6603 577.39 16.4796 582.468C18.0705 584.142 19.4748 585.987 20.9672 587.754L20.5838 588.329Z" fill="#092B70"/>
<path d="M12.2462 515.993C13.7231 518.714 13.3085 521.88 11.6969 524.756C9.9298 527.912 10.5879 529.627 12.2151 531.534C15.288 535.13 17.3142 539.39 15.3243 545.412C13.5831 550.64 10.4325 555.071 6.51483 559.403C4.64411 556.242 2.62311 553.475 1.20322 550.288C-1.66763 543.841 -0.252937 536.986 4.58192 530.207C7.74815 525.756 11.5725 521.683 12.2462 515.993Z" fill="#092B70"/>
<path d="M7.97506 365.211C8.30671 367.31 8.64871 369.403 8.97 371.502C10.3018 380.058 14.3231 387.675 17.3494 395.645C20.5674 404.128 23.8166 412.616 26.5216 421.265C27.8067 425.369 27.8482 429.862 28.4493 434.174L27.6979 434.402C27.2937 433.557 26.7185 432.754 26.5061 431.863C23.2932 418.28 17.0903 405.843 11.7528 393.075C8.83526 386.095 6.69508 378.855 6.24424 371.233C6.18033 369.783 6.25844 368.33 6.47744 366.895C6.56553 366.263 7.10964 365.698 7.44648 365.102L7.97506 365.211Z" fill="#092B70"/>
<path d="M129.861 479.092C130.799 478.449 131.774 477.858 132.665 477.159C137.557 473.283 140.091 468.308 139.873 461.97C139.655 456.026 142.246 452.497 148.465 450.404C149.154 454.679 150.128 458.84 150.424 463.053C150.652 466.396 148.936 469.339 146.532 471.645C142.013 475.994 136.116 478.628 129.861 479.092Z" fill="#092B70"/>
<path d="M34.6077 498.203C36.8567 499.094 39.0902 500.027 41.3443 500.872C52.2266 504.94 63.3784 507.121 75.0639 506.163C80.8017 505.727 86.1861 503.222 90.2163 499.115C92.8487 496.524 95.3672 493.772 98.3106 491.601C104.586 486.979 112.991 491.534 115.655 497.498C113.877 496.514 112.261 495.524 110.566 494.705C105.384 492.213 100.56 492.689 96.2015 496.555C95.1045 497.518 94.0662 498.546 93.0923 499.633C87.677 505.753 80.8316 508.805 72.7268 509.039C60.4817 509.396 48.8894 506.588 37.8516 501.421C36.5354 500.799 35.3798 499.83 34.1465 499.022L34.6077 498.203Z" fill="#092B70"/>
<path d="M12.515 473.391C11.8828 465.173 11.406 456.529 10.5095 447.927C9.53014 438.521 6.8821 431.862 1.45132 422.151C2.2616 423.06 3.02106 424.014 3.72625 425.007C8.73637 432.821 11.8343 441.707 12.7689 450.943C13.5566 458.648 13.0798 466.489 15.5931 474.05L11.1884 476.252C9.72187 472.775 7.8097 469.515 6.98576 466.028C5.30677 458.856 4.317 451.518 2.84012 444.305C1.65861 438.516 0.176536 432.795 -1.1708 427.043C-1.23816 426.768 -1.28479 426.483 -1.3418 426.204L-0.668137 425.96C0.637739 429.411 2.39964 432.769 3.1614 436.324C4.71602 443.538 5.38969 450.943 7.01685 458.135C8.13099 463.043 10.2245 467.733 11.9191 472.51C12.0422 472.849 12.2469 473.151 12.515 473.391Z" fill="#092B70"/>
<path d="M-19.4993 487.844L-6.66333 490.378L-6.51824 489.725C-12.1408 487.093 -17.727 484.377 -23.4014 481.854C-29.2363 479.263 -35.061 476.584 -41.0722 474.449C-46.9849 472.345 -53.1204 470.878 -59.6602 468.987C-52.2343 467.945 -0.149505 486.341 2.94936 490.845C-2.28451 493.187 -16.5248 491.021 -19.4993 487.844Z" fill="#092B70"/>
<path d="M81.9031 433.899C80.4262 438.993 79.4831 443.704 74.8192 446.517C70.1554 449.331 66.6212 453.213 63.4809 457.581C62.201 459.374 60.7966 461.084 59.4493 462.831L58.8223 462.618C58.9777 461.96 58.9674 461.188 59.3405 460.659C60.8951 458.286 62.7399 456.073 64.1857 453.627C65.554 451.44 66.6421 449.09 67.4245 446.631C68.6267 442.413 70.2642 438.501 74.2233 436.33C76.3946 435.143 79.0271 434.78 81.9031 433.899Z" fill="#092B70"/>
<path d="M8.0317 502.323C7.15223 502.975 6.23326 503.572 5.28004 504.111C-4.34211 508.746 -12.5953 515.801 -18.6714 524.585C-23.9934 532.223 -29.4293 539.784 -34.886 547.329C-36.1679 549.083 -37.7254 550.618 -39.498 551.874C-38.7674 550.894 -37.9849 549.941 -37.306 548.925C-31.8027 540.665 -26.2838 532.415 -20.8323 524.124C-14.2511 514.065 -5.54007 506.541 5.65833 502.012C6.33484 501.813 7.02899 501.679 7.73115 501.613L8.0317 502.323Z" fill="#092B70"/>
<path d="M-53.5871 464.349C-48.7367 465.385 -43.8552 466.266 -39.0462 467.458C-24.1478 471.184 -10.4672 477.822 2.8092 485.362C3.94407 486.005 4.53482 486.626 3.61241 487.844C-5.61682 483.18 -14.6543 478.164 -24.096 474.044C-33.5793 469.857 -43.5654 466.917 -53.8047 465.297L-53.5871 464.349Z" fill="#092B70"/>
<path d="M81.6484 443.159C82.4309 441.688 83.2393 440.226 84.0011 438.744C85.6697 435.506 86.4004 432.277 85.2292 428.546C83.6746 423.67 85.4158 418.985 89.0847 416.425C89.4915 416.194 89.912 415.988 90.3439 415.809C90.7533 419.69 91.4891 423.348 89.2816 426.691C88.3851 428.059 88.1571 429.282 88.9189 430.769C89.9553 432.718 89.3645 434.542 88.1726 436.179C86.561 438.408 84.8613 440.568 83.1616 442.729C82.8344 443.035 82.4643 443.292 82.063 443.491L81.6484 443.159Z" fill="#092B70"/>
<path d="M26.1346 475.92C25.8859 475.298 25.29 474.568 25.4454 474.07C30.7881 456.969 37.6336 440.755 52.7496 429.65C53.3305 429.184 54.0061 428.852 54.7292 428.676C39.6183 440.91 32.208 457.654 27.114 475.76L26.1346 475.92Z" fill="#092B70"/>
<path d="M23.4805 507.495C25.3408 506.572 26.4342 506.458 27.1805 508.272C32.093 520.429 36.5859 532.705 38.0628 545.837C38.3633 548.505 38.1042 551.236 37.8244 553.946C37.1713 545.841 35.5695 537.841 33.0517 530.109C30.6162 522.357 28.1495 514.584 23.4805 507.495Z" fill="#092B70"/>
<path d="M84.5362 493.415C80.0381 493.415 75.5038 493.736 71.0628 493.348C60.3826 492.425 49.7232 491.596 39.0015 492.539C38.2086 492.612 37.4002 492.539 36.597 492.539L36.4727 491.736C38.0273 491.399 39.5819 490.777 41.1365 490.762C48.8215 490.705 56.522 490.58 64.2018 490.927C70.9955 491.238 77.7632 492.13 84.5413 492.767C84.5206 492.99 84.531 493.202 84.5362 493.415Z" fill="#092B70"/>
<path d="M28.2441 475.744C34.8098 467.836 38.09 458.265 42.2357 449.108C43.526 446.243 45.3864 443.636 46.9876 440.916L47.5058 441.211C43.4276 450.616 39.4426 460.063 35.214 469.401C34.1776 471.671 32.4312 473.63 30.8714 475.62C30.4413 476.169 29.5086 476.325 28.7986 476.656L28.2441 475.744Z" fill="#092B70"/>
<path d="M36.2168 494.892C38.0616 494.98 39.9375 494.892 41.7408 495.187C52.0635 496.959 62.3913 498.695 72.9212 498.452C76.445 498.369 79.9636 498.115 83.3683 497.934C76.9011 501.52 41.829 498.975 36.2168 494.892Z" fill="#092B70"/>
<path d="M42.5878 532.26C41.5048 530.15 40.3129 528.114 39.3594 525.932C36.5761 519.846 32.9893 514.161 28.6947 509.028C28.0625 508.251 27.9226 507.075 27.5547 506.085C28.5445 506.577 29.7933 506.831 30.4722 507.598C36.7787 514.687 40.1471 523.279 43.1319 532.063L42.5878 532.26Z" fill="#092B70"/>
<path d="M70.5644 484.559C67.6158 484.916 64.6673 485.31 61.7135 485.626C56.8217 486.144 51.8676 486.404 47.0379 487.181C44.1878 487.632 41.4569 488.865 38.6689 489.73C37.8864 489.974 37.0884 490.161 36.2955 490.378L35.7773 489.746C36.4251 489.14 36.9796 488.191 37.731 487.989C42.3326 486.823 46.9291 485.398 51.6137 484.88C57.8632 484.196 64.1957 484.274 70.4867 484.025L70.5644 484.559Z" fill="#092B70"/>
<path d="M-6.14197 560.388C-3.49394 563.922 -3.49394 569.223 1.67774 571.55C0.0816682 572.296 -0.954742 572.897 -2.0637 573.27C-4.17279 573.985 -5.96059 573.182 -6.26115 571.037C-6.7379 567.601 -6.81045 564.114 -7.04883 560.647L-6.14197 560.388Z" fill="#092B70"/>
<path d="M28.2731 535.54C27.6513 531.995 27.2782 528.378 26.335 524.917C25.2986 521.17 23.744 517.568 22.4329 513.894C21.6608 511.728 20.4638 509.63 20.925 507.121C24.4643 507.935 29.8795 528.829 28.2731 535.54Z" fill="#092B70"/>
<path d="M8.81339 479.066C8.07856 477.938 7.414 476.767 6.82349 475.558C5.00977 471.272 3.27896 466.955 1.56888 462.634C1.46116 462.29 1.4281 461.927 1.47189 461.57C1.51568 461.212 1.63531 460.868 1.82279 460.561C2.56901 462.271 3.25305 464.017 4.08218 465.691C5.71452 468.982 7.24841 472.339 9.18131 475.449C10.1555 477.029 10.1504 477.972 8.79784 479.076C8.79266 479.066 8.81339 479.066 8.81339 479.066Z" fill="#092B70"/>
<path d="M1469.79 389.527C1469.21 383.46 1471.44 378.252 1474.99 373.531C1476.46 371.576 1478.14 369.771 1480.16 367.441L1459.69 374.649C1455.13 364.594 1460.43 357.523 1468.18 351.326C1467.89 351.119 1467.77 350.962 1467.65 350.957C1466.94 350.912 1466.21 350.914 1465.49 350.91C1457.7 350.874 1450.08 348.642 1443.51 344.468C1442.44 343.801 1441.61 343.215 1442.03 341.647C1443.02 338.159 1445.17 335.109 1448.11 332.99C1451.06 330.871 1454.63 329.805 1458.26 329.966C1459.2 330.023 1460.14 330.115 1461.07 330.193C1458.16 327.223 1455.2 324.65 1452.8 321.649C1450.34 318.562 1448.46 315.017 1448.68 310.949C1451.69 310.459 1454.48 310.266 1457.15 309.544C1467.6 306.716 1477.12 308.573 1486.16 314.399C1492.4 318.42 1498.89 321.989 1505.29 325.737C1505.92 326.051 1506.57 326.317 1507.24 326.532L1507.66 325.913C1507.2 325.352 1506.71 324.827 1506.17 324.343C1503.02 321.915 1499.83 319.53 1496.66 317.114C1490.72 312.577 1484.65 308.253 1479.53 302.646C1473.9 296.5 1472.36 288.271 1467.66 281.322C1478.34 280.544 1486.36 285.608 1493.41 292.185C1494.48 289.235 1495.23 286.459 1496.47 283.922C1499.39 277.967 1501.95 272.019 1499.9 264.916C1501.6 265.488 1503.19 266.341 1504.61 267.438C1510.48 272.403 1514.18 279.468 1514.92 287.123C1515.71 294.544 1515.53 302.075 1515.86 309.546C1516.01 313.037 1516.27 316.529 1516.65 320.022C1516.71 320.65 1517.57 321.225 1518.06 321.815L1518.67 321.394C1518.43 310.322 1520.9 299.704 1523.93 289.169C1525.89 282.325 1529.3 276.405 1534.59 271.606C1537.87 268.615 1541.21 265.672 1544.72 262.516C1545.14 263.071 1545.92 263.722 1546.22 264.548C1547.57 268.187 1549.42 271.789 1549.91 275.561C1551.09 284.55 1548.32 293.037 1544.49 300.945C1541.13 307.878 1536.71 314.31 1532.75 320.952C1532.3 321.715 1531.92 322.518 1531.5 323.308L1532.08 323.677L1558.61 287.208C1557.97 291.576 1555.77 295.245 1553.48 298.814C1551.2 302.384 1548.63 305.631 1546.18 309.022C1548.62 308.024 1550.75 306.77 1552.96 305.667C1560.41 301.944 1563.99 295.408 1565.38 287.67C1565.79 285.552 1565.74 283.37 1565.25 281.269C1564.77 279.289 1563.92 277.414 1562.77 275.736C1561.7 274.127 1560.51 272.379 1558.29 271.331C1558.15 271.258 1558.03 271.211 1557.94 271.173C1557.17 271.413 1556.43 271.765 1555.76 272.217C1554.75 272.919 1553.9 273.822 1553.25 274.868C1552.88 275.483 1552.54 276.121 1552.25 276.779C1551.31 278.721 1550.18 280.558 1549.22 282.469C1549.19 282.489 1549.17 282.567 1549.14 282.563C1548.97 282.536 1549.22 280.157 1549.6 277.137C1551.47 273.393 1553.47 271.589 1554.99 270.655C1555.65 270.253 1558.45 268.64 1558.45 268.64C1558.45 268.64 1561.43 270.943 1561.67 271.136C1564.26 273.16 1566.91 278.485 1567.6 283.847C1568.69 292.316 1564.64 298.788 1563.4 300.618L1584.66 302.028C1584.15 310.075 1576.91 312.376 1571.68 316.408C1573.49 316.709 1575.14 316.913 1576.75 317.263C1583.28 318.666 1589.29 320.984 1593.37 326.735C1594.3 328.05 1594.16 328.871 1592.69 329.485C1589.82 330.682 1587.01 332.052 1584.07 333.029C1583.71 333.143 1570.86 338.05 1565.77 337.602C1563.58 337.776 1565.33 336.816 1564.96 336.153C1568.62 336.368 1587 329.684 1591.42 327.761C1587.67 323.612 1583.73 321.159 1578.99 320.325C1571.77 319.055 1564.71 319.676 1558 322.913C1552.2 325.728 1546.34 328.44 1540.51 331.197C1539.59 331.63 1538.74 332.174 1537.86 332.67L1538 333.377C1538.9 333.37 1539.81 333.296 1540.7 333.154C1547.85 331.53 1554.94 329.619 1562.13 328.269C1566.87 327.394 1571.78 327.294 1576.61 326.879C1577.7 326.788 1578.8 326.786 1579.88 326.748L1579.7 327.688C1573.46 328.875 1567.23 329.94 1561.01 331.277C1554.78 332.615 1548.7 334.144 1542.55 335.595L1542.66 336.188C1543.5 336.224 1544.34 336.214 1545.17 336.157C1548.72 335.669 1552.3 335.461 1555.88 335.535C1561.67 335.758 1567.43 336.33 1573.19 336.976C1575.64 337.265 1578.1 337.488 1580.53 337.863C1582.73 338.263 1584.87 338.941 1586.89 339.883C1587.4 340.104 1587.9 340.325 1588.4 340.563C1590.91 341.692 1593.18 343.294 1595.09 345.281C1595.68 345.912 1596.24 347.58 1595.97 347.831C1594.26 349.376 1595.46 350.57 1596.19 351.824C1602.73 363.039 1622.34 370.426 1635.52 355.728C1640.72 349.934 1643.44 343.933 1639.83 336.174C1637.44 331.028 1637.63 325.456 1638.5 319.939C1638.71 318.573 1639.09 317.233 1639.44 315.63C1640.79 316.3 1641.82 316.729 1642.75 317.302C1652.64 323.253 1655.91 332.763 1651.65 343.424C1648.32 351.74 1642.33 357.75 1634.82 362.439C1620.15 371.615 1600.5 366.6 1592.09 351.467C1591.75 350.859 1591.33 350.297 1590.86 349.587C1587.53 351.196 1584.31 352.757 1581.08 354.301C1577.86 355.845 1574.59 357.398 1571.18 359.021C1575.77 361.064 1579.51 363.932 1581.7 368.464C1582.89 370.845 1583.47 373.485 1583.39 376.146C1583.35 378.265 1582.58 380.305 1581.2 381.916C1581.15 381.991 1581.07 382.049 1580.98 382.085C1580.91 382.105 1580.84 382.111 1580.77 382.103C1577.65 382.088 1574.53 381.819 1571.44 381.298C1569.71 380.954 1568.01 380.493 1566.34 379.917C1566.01 379.828 1565.71 379.668 1565.45 379.449C1565.24 379.224 1565.08 378.96 1564.97 378.673C1564.63 377.907 1564.29 377.162 1563.94 376.387C1564.35 376.647 1564.8 376.831 1565.27 376.929C1568.44 377.785 1571.66 378.437 1574.91 378.879C1576.02 379.046 1577.13 379.135 1578.25 379.146C1578.67 379.153 1579.09 379.108 1579.5 379.015C1579.65 378.988 1579.79 378.92 1579.91 378.82C1579.99 378.719 1580.04 378.603 1580.08 378.479C1580.56 377.255 1580.85 375.962 1580.93 374.649C1580.96 372.267 1580.39 369.915 1579.27 367.813C1579.01 367.336 1578.73 366.879 1578.4 366.445C1578.09 366.04 1577.71 365.69 1577.4 365.285C1573.75 361.713 1569.12 360.043 1564.33 358.552C1562.1 358.023 1559.93 357.256 1557.86 356.264L1541.52 349.401C1541.45 349.368 1541.3 349.516 1541.23 349.557C1542.86 350.801 1545.06 352.585 1547.55 354.864C1552.59 359.567 1557.15 364.767 1561.16 370.385C1561.16 370.385 1568.36 380.334 1569.12 386.838C1569.31 388.501 1569.11 390.186 1568.53 391.757C1568.29 392.333 1567.98 392.881 1567.62 393.392C1562.03 392.655 1556.66 390.702 1551.91 387.671C1547.15 384.641 1543.11 380.606 1540.08 375.85C1538.74 373.892 1537.75 372.263 1537.15 371.229C1533.52 365.006 1531.81 361.944 1528.59 356.561C1528.2 356.03 1527.77 355.537 1527.29 355.088L1526.71 355.371C1526.86 356.246 1527.06 357.11 1527.33 357.955C1529.55 363.51 1531.82 369.041 1534.06 374.587C1537.44 382.975 1539.19 391.503 1536.57 400.509C1535.49 404.212 1533.99 408.082 1537.64 411.68C1536.54 411.928 1535.56 412.175 1534.84 411.834C1532.99 410.954 1531.04 410.068 1529.53 408.733C1523.83 403.692 1521.02 397.112 1520 389.669C1519.67 387.223 1519.39 384.8 1519.09 382.362C1515.89 394.093 1508.8 402.9 1499.23 410.251C1498.83 409.573 1497.96 408.702 1497.8 407.715C1497.43 405.532 1497.27 403.32 1497.32 401.107C1497.47 394.8 1497.77 388.491 1498.01 381.669C1494.02 386.27 1489.8 389.392 1484 390.048C1480.53 390.438 1477.12 391.367 1473.74 392.219C1470.74 393.017 1470.08 392.664 1469.79 389.527ZM1465.38 355.451C1460.91 359.832 1459.54 365.139 1460.8 371.017C1468 368.953 1475.02 367.223 1481.85 364.895C1485.02 363.826 1487.94 361.828 1490.71 359.87C1495.41 356.548 1499.9 352.922 1504.49 349.422C1492.68 353.203 1482.34 360.722 1470.15 363.489L1469.83 362.811L1500.46 346.962L1500.32 346.487C1499.03 346.563 1497.69 346.663 1496.39 346.791C1491.15 347.223 1485.87 347.4 1480.69 348.174C1474.87 348.983 1469.61 351.292 1465.36 355.461L1465.38 355.451ZM1446.6 338.69C1444.6 341.49 1444.8 342.191 1448.1 343.839C1455.84 347.69 1464.6 349.01 1473.13 347.613C1479.3 346.616 1485.51 345.97 1491.69 345.109C1494.97 344.636 1498.24 344.072 1501.52 343.545L1501.41 342.952C1501.26 342.913 1501.1 342.819 1500.97 342.852C1492.29 344.753 1483.84 343.069 1475.4 341.249C1467.97 339.645 1460.55 339.268 1453.14 341.29C1453.03 341.337 1452.9 341.358 1452.78 341.35C1452.66 341.342 1452.54 341.306 1452.43 341.245C1453.23 340.099 1454.3 339.167 1455.55 338.532C1456.79 337.897 1458.17 337.577 1459.57 337.602C1464.42 337.674 1469.25 338.061 1474.04 338.759C1478.13 339.382 1482.12 340.695 1486.11 341.703C1491.9 343.206 1497.19 340.924 1502.67 340.004L1502.77 339.251C1501.94 339.052 1501.1 338.663 1500.28 338.695C1488.22 339.183 1476.99 335.296 1465.6 332.267C1457.5 330.155 1451.19 332.214 1446.58 338.7L1446.6 338.69ZM1499.91 325.752C1497.96 324.534 1496.04 323.301 1494.07 322.106C1489.91 319.592 1485.76 317.068 1481.56 314.633C1476.25 311.43 1469.99 310.173 1463.85 311.077C1459.6 311.703 1455.38 312.367 1450.83 313.071C1450.99 313.99 1451.22 314.894 1451.54 315.77C1454.76 322.635 1459.16 328.455 1466.86 330.521C1477.33 333.332 1487.83 336.117 1498.85 335.544C1503.56 335.324 1503.55 335.427 1504.4 330.237C1495 326.451 1485.73 322.72 1476.46 318.989C1484.71 319.608 1492.04 323.457 1499.91 325.752ZM1477.95 284.734C1477.19 284.388 1476.27 284.391 1474.89 284.129C1474.87 285.996 1474.71 287.64 1474.89 289.199C1475.47 294.088 1478.39 297.806 1481.27 301.558C1486.25 308.076 1493.12 312.278 1499.94 316.681C1494.76 309.487 1489.59 302.29 1484.41 295.09L1485.37 294.44C1486.96 296.192 1488.65 297.856 1490.09 299.732C1493.28 303.909 1496.2 308.291 1499.52 312.366C1502.57 316.114 1506 319.575 1509.27 323.154C1509.5 323.365 1509.77 323.526 1510.07 323.624C1510.17 323.664 1510.34 323.526 1510.81 323.332C1509.94 322.354 1509.17 321.417 1508.34 320.555C1503.87 315.909 1501.19 310.207 1499.04 304.278C1495.36 294.059 1487.09 288.942 1477.95 284.734ZM1512.5 313.783C1512.52 312.801 1512.5 311.818 1512.58 310.845C1512.99 305.527 1513.71 300.219 1513.79 294.9C1513.92 287.992 1511.93 281.21 1508.09 275.467C1506.98 273.791 1505.53 272.345 1504.2 270.745C1502.22 276.377 1500.36 281.581 1498.58 286.816C1498.3 287.735 1498.2 288.701 1498.3 289.658C1499.18 300.265 1501.76 310.246 1509.34 318.261C1510.39 319.327 1511.63 320.191 1512.99 320.811C1510.92 315.642 1507.4 311.165 1506.96 304.684L1511.59 313.982L1512.5 313.783ZM1538 329.054C1548.98 325.64 1559.41 320.68 1568.99 314.322C1572.24 312.148 1575.66 310.244 1578.87 308.019C1580.08 307.179 1580.92 305.778 1582.4 304.12C1580.65 304.027 1579.73 303.976 1578.81 303.937C1576.5 303.85 1574.13 304.008 1571.89 303.657C1559.73 301.895 1550.34 307.147 1542.09 315.18C1539.14 318.058 1536.69 321.464 1534.08 324.68C1533.7 325.142 1533.68 325.929 1533.53 326.54C1534.15 326.47 1534.89 326.558 1535.41 326.272C1540.81 323.364 1546.14 320.353 1551.55 317.473C1552.78 316.872 1554.14 316.605 1555.5 316.7L1535.12 328.641C1535.24 328.933 1535.35 329.224 1535.47 329.516C1536.32 329.417 1537.17 329.263 1538 329.054ZM1563.22 356.068C1567.2 357.887 1570.95 357.201 1574.66 355.194C1580.4 352.095 1586.16 349.11 1592.13 345.977C1591.59 345.529 1590.84 344.547 1589.85 344.147C1586.4 342.728 1582.96 340.755 1579.37 340.377C1568.36 339.228 1557.38 337.512 1546.25 338.339C1544.19 338.491 1542.12 338.796 1540.06 338.931C1538.56 339.009 1538.1 339.678 1538.54 341.353L1567.84 347.177C1557.76 347.696 1548.01 345.088 1538.08 344.544C1546.46 348.387 1554.84 352.228 1563.22 356.068ZM1529.53 320.792C1533.76 314.332 1538.5 308.128 1542 301.285C1545.69 294.036 1547.49 285.994 1547.74 277.76C1547.88 273.524 1546.38 269.678 1544.49 265.928C1535.59 272.261 1528.57 279.949 1526.38 290.746C1524.52 299.94 1523.56 309.321 1522.22 318.622C1522.12 319.013 1522.13 319.421 1522.24 319.808C1522.53 320.474 1522.86 321.121 1523.24 321.746C1523.75 321.313 1524.21 320.831 1524.63 320.308C1530.22 311.709 1534.99 302.74 1537.77 292.812C1537.9 292.48 1538.06 292.162 1538.26 291.866C1538.33 303.298 1532.12 312.382 1527.17 321.951L1527.81 322.405C1528.45 321.947 1529.02 321.416 1529.53 320.823L1529.53 320.792ZM1540.17 371.871C1543.93 377.33 1547.47 382.465 1554.02 386.195C1554.02 386.195 1555.66 387.123 1566.69 391.686C1566.66 391.44 1566.67 391.191 1566.72 390.947C1566.87 390.091 1566.84 388.976 1566.47 386.786C1566.11 384.7 1565.41 382.684 1564.42 380.813C1560.39 373.089 1554.5 366.732 1548.69 360.409C1545.49 356.933 1541.56 354.116 1537.85 351.123C1536.99 350.429 1535.71 350.188 1534.62 349.736C1538.22 356.778 1543.76 362.303 1546.35 369.616C1544.1 367.128 1542.15 364.438 1540.05 361.86C1537.59 358.834 1535.06 355.854 1532.43 352.974C1531.92 352.415 1530.79 352.409 1529.96 352.163L1529.64 352.895C1529.89 353.384 1530.12 353.885 1530.38 354.361C1533.42 359.807 1536.54 366.609 1540.17 371.874L1540.17 371.871ZM1529.5 350.456C1536.5 344.99 1537.43 337.234 1531.95 330.093C1526.58 323.063 1517.33 321.568 1510.82 326.646C1503.96 331.985 1502.69 341.071 1507.83 347.909C1512.68 354.361 1522.96 355.565 1529.5 350.459L1529.5 350.456ZM1528.74 404.56C1529.7 405.623 1530.77 406.593 1531.81 407.575C1532.09 407.788 1532.41 407.966 1532.74 408.106C1534.4 399.525 1536.56 391.002 1533.67 382.404C1530.78 373.806 1527.53 365.154 1524.39 356.553C1524.23 356.138 1523.49 355.939 1523.02 355.646C1522.71 356.134 1522.19 356.6 1522.17 357.088C1521.86 365.52 1521.39 373.955 1521.42 382.384C1521.45 390.487 1523.02 398.261 1528.74 404.564L1528.74 404.56ZM1499.77 388.866C1499.74 393.558 1499.43 398.253 1499.32 402.948C1499.28 404.326 1499.49 405.709 1499.58 407.089L1500.35 407.348C1502.77 404.655 1505.42 402.119 1507.56 399.231C1516.52 386.924 1521.6 373.397 1519.77 357.884C1519.57 357.025 1519.06 356.272 1518.33 355.776C1516.59 367.239 1513.38 378.428 1508.76 389.064C1510.35 377.968 1513.84 367.222 1515.21 356.094L1514.6 355.889C1514.27 356.288 1513.96 356.703 1513.68 357.133C1510.52 362.574 1507.46 368.064 1504.22 373.451C1501.34 378.084 1499.8 383.421 1499.76 388.873L1499.77 388.866ZM1483.94 388.186C1485.95 388.004 1488.43 387.34 1489.78 385.982C1498.27 377.469 1505.47 367.959 1510.32 356.84C1510.65 356.073 1510.85 355.249 1511.28 353.928C1495.88 369.738 1490.85 373.821 1485.66 374.715C1489.31 371.631 1492.95 368.866 1496.22 365.717C1500.12 361.977 1503.78 357.921 1507.4 353.933C1507.88 353.4 1507.75 352.314 1507.92 351.506C1507.08 351.631 1506.03 351.483 1505.42 351.926C1497.21 357.976 1488.89 363.881 1480.98 370.332C1478.04 372.729 1475.91 376.235 1473.76 379.443C1472.93 380.706 1472.38 382.135 1472.16 383.631C1471.94 385.127 1472.05 386.653 1472.48 388.102C1476.48 388.176 1480.24 388.495 1483.94 388.194L1483.94 388.186Z" fill="#092B70"/>
</g>
<defs>
<clipPath id="clip0_123_2361">
<rect width="1512" height="623" fill="white"/>
</clipPath>
</defs>
</svg>
